<?xml version="1.0" standalone="no"?>
<!DOCTYPE svg PUBLIC "-//W3C//DTD SVG 20010904//EN"
 "http://www.w3.org/TR/2001/REC-SVG-20010904/DTD/svg10.dtd">
<svg version="1.0" xmlns="http://www.w3.org/2000/svg"
 width="794.000000pt" height="561.000000pt" viewBox="0 0 794.000000 561.000000"
 preserveAspectRatio="xMidYMid meet">

<g transform="translate(0.000000,561.000000) scale(0.100000,-0.100000)"
fill="#000000" stroke="none">
<path d="M276 5315 l-26 -24 0 -374 0 -374 25 -27 c19 -21 33 -26 70 -26 l45
0 0 43 c0 54 17 117 38 141 10 10 37 28 61 41 43 21 44 23 20 30 -33 10 -69
45 -69 67 0 11 -13 23 -34 32 -44 18 -60 48 -51 95 3 20 7 65 8 100 1 35 7 66
12 68 29 9 75 44 75 56 0 33 41 52 129 59 47 4 106 10 131 13 60 9 126 -10
162 -45 39 -40 39 -101 -1 -156 -17 -23 -31 -59 -36 -89 -10 -71 -30 -105 -61
-105 -28 0 -39 -19 -30 -53 4 -17 22 -30 63 -47 32 -13 75 -34 95 -48 38 -25
41 -32 63 -164 6 -37 7 -38 46 -38 29 0 47 7 64 25 l25 24 0 376 0 376 -25 24
-24 25 -374 0 -374 0 -27 -25z"/>
<path d="M1937 5183 c-11 -10 -8 -43 3 -43 9 0 30 31 30 44 0 8 -25 7 -33 -1z"/>
<path d="M4249 5166 c-27 -13 -38 -68 -18 -92 16 -20 63 -18 82 4 44 48 -7
117 -64 88z m45 -22 c29 -29 13 -68 -25 -62 -27 3 -38 40 -19 64 16 18 25 18
44 -2z"/>
<path d="M4350 5119 l0 -60 31 3 c58 6 66 68 10 76 -13 2 -21 11 -21 23 0 10
-4 19 -10 19 -6 0 -10 -27 -10 -61z m55 -19 c0 -8 -8 -16 -17 -18 -13 -2 -18
3 -18 18 0 15 5 20 18 18 9 -2 17 -10 17 -18z"/>
<path d="M4450 5170 c0 -5 5 -10 10 -10 6 0 10 5 10 10 0 6 -4 10 -10 10 -5 0
-10 -4 -10 -10z"/>
<path d="M4740 5170 c0 -5 5 -10 10 -10 6 0 10 5 10 10 0 6 -4 10 -10 10 -5 0
-10 -4 -10 -10z"/>
<path d="M4805 5172 c-17 -12 -36 -52 -25 -52 5 0 10 -13 10 -30 0 -16 5 -30
10 -30 6 0 10 13 10 29 0 16 6 32 13 34 9 4 8 8 -3 16 -12 9 -12 11 3 17 9 3
14 10 11 15 -6 11 -16 11 -29 1z"/>
<path d="M1349 5141 c-61 -61 -27 -171 53 -171 40 0 71 16 48 24 -8 3 -28 6
-45 8 -78 8 -64 138 15 138 33 0 48 15 24 24 -34 13 -67 5 -95 -23z"/>
<path d="M1490 5070 c0 -82 3 -100 15 -100 11 0 15 12 15 50 0 37 4 52 18 58
31 17 42 3 42 -55 0 -46 3 -54 18 -51 21 4 28 70 12 112 -10 26 -14 28 -50 23
-40 -5 -40 -5 -40 29 0 24 -5 34 -15 34 -12 0 -15 -18 -15 -100z"/>
<path d="M1650 5069 c0 -90 2 -100 18 -97 14 3 17 17 20 101 3 92 2 97 -18 97
-19 0 -20 -6 -20 -101z"/>
<path d="M4667 5147 c-3 -8 -2 -29 2 -48 5 -26 12 -35 31 -37 23 -2 24 -1 8
11 -21 16 -24 43 -6 49 9 3 8 9 -4 21 -20 20 -24 21 -31 4z"/>
<path d="M4448 5088 c-5 -59 -4 -63 11 -53 13 8 15 105 2 105 -5 0 -11 -24
-13 -52z"/>
<path d="M4502 5128 c-27 -27 -6 -68 35 -68 30 0 30 20 1 21 -21 1 -21 2 -3 6
31 8 40 20 25 38 -15 18 -41 20 -58 3z"/>
<path d="M4592 5128 c-29 -29 -2 -73 40 -66 23 4 22 5 -4 16 -35 14 -36 30 -3
42 14 5 25 12 25 15 0 10 -46 5 -58 -7z"/>
<path d="M4740 5100 c0 -22 5 -40 10 -40 6 0 10 18 10 40 0 22 -4 40 -10 40
-5 0 -10 -18 -10 -40z"/>
<path d="M4857 5133 c-13 -13 -7 -30 16 -41 l22 -11 -22 0 c-13 -1 -23 -6 -23
-12 0 -17 54 -6 58 12 1 8 -7 21 -20 27 -17 8 -19 11 -6 11 27 1 32 21 5 21
-13 0 -27 -3 -30 -7z"/>
<path d="M1735 5090 c-42 -46 -10 -120 52 -120 42 0 73 30 73 70 0 62 -84 95
-125 50z m80 -50 c0 -38 -24 -52 -50 -30 -31 25 -9 73 30 68 16 -2 20 -11 20
-38z"/>
<path d="M1897 5092 c-44 -49 -5 -126 61 -120 52 4 57 33 6 33 -21 0 -39 6
-41 13 -3 8 9 12 42 12 46 0 47 0 40 27 -4 16 -11 34 -17 40 -16 19 -72 16
-91 -5z m73 -27 c0 -9 -9 -15 -25 -15 -16 0 -25 6 -25 15 0 9 9 15 25 15 16 0
25 -6 25 -15z"/>
<path d="M6143 4620 c0 -25 2 -35 4 -22 2 12 2 32 0 45 -2 12 -4 2 -4 -23z"/>
<path d="M6321 4628 c0 -20 -7 -39 -13 -41 -10 -4 -10 -6 0 -6 17 -1 24 21 19
56 -3 24 -4 23 -6 -9z"/>
<path d="M4699 4608 c4 -28 6 -29 9 -9 2 13 0 27 -5 32 -6 6 -7 -3 -4 -23z"/>
<path d="M4939 4608 c4 -28 6 -29 9 -9 2 13 0 27 -5 32 -6 6 -7 -3 -4 -23z"/>
<path d="M5189 4608 c4 -28 6 -29 9 -9 2 13 0 27 -5 32 -6 6 -7 -3 -4 -23z"/>
<path d="M5415 4630 c3 -5 8 -10 11 -10 2 0 4 5 4 10 0 6 -5 10 -11 10 -5 0
-7 -4 -4 -10z"/>
<path d="M5477 4619 c4 -13 8 -18 11 -10 2 7 -1 18 -6 23 -8 8 -9 4 -5 -13z"/>
<path d="M5717 4619 c4 -13 8 -18 11 -10 2 7 -1 18 -6 23 -8 8 -9 4 -5 -13z"/>
<path d="M6016 4627 c3 -10 9 -15 12 -12 3 3 0 11 -7 18 -10 9 -11 8 -5 -6z"/>
<path d="M6430 4629 c0 -5 5 -7 10 -4 6 3 10 8 10 11 0 2 -4 4 -10 4 -5 0 -10
-5 -10 -11z"/>
<path d="M6498 4630 c20 -23 15 -43 -9 -37 -16 4 -19 3 -11 -5 14 -14 42 -3
42 15 0 8 -8 21 -17 28 -15 11 -16 11 -5 -1z"/>
<path d="M6821 4623 c7 -12 15 -20 18 -17 3 2 -3 12 -13 22 -17 16 -18 16 -5
-5z"/>
<path d="M4514 4615 c-8 -19 4 -35 24 -34 14 1 14 2 -1 6 -13 3 -17 11 -14 24
6 22 -1 26 -9 4z"/>
<path d="M4632 4605 c0 -16 2 -22 5 -12 2 9 2 23 0 30 -3 6 -5 -1 -5 -18z"/>
<path d="M4881 4613 c-1 -27 -27 -31 -34 -5 -4 15 -5 15 -6 -1 -1 -11 7 -21
19 -24 11 -3 17 -10 13 -17 -4 -8 -3 -8 6 0 7 6 11 24 8 40 -3 22 -4 24 -6 7z"/>
<path d="M5245 4619 c-4 -6 -5 -12 -2 -15 2 -3 7 2 10 11 7 17 1 20 -8 4z"/>
<path d="M5512 4605 c0 -16 2 -22 5 -12 2 9 2 23 0 30 -3 6 -5 -1 -5 -18z"/>
<path d="M6204 4605 c1 -12 9 -21 21 -22 14 -1 15 0 3 3 -9 3 -19 13 -21 22
-3 12 -4 11 -3 -3z"/>
<path d="M6530 4605 c0 -14 2 -25 4 -25 2 0 6 11 8 25 3 14 1 25 -3 25 -5 0
-9 -11 -9 -25z"/>
<path d="M6572 4605 c0 -16 2 -22 5 -12 2 9 2 23 0 30 -3 6 -5 -1 -5 -18z"/>
<path d="M6852 4605 c0 -16 2 -22 5 -12 2 9 2 23 0 30 -3 6 -5 -1 -5 -18z"/>
<path d="M4820 4607 c0 -8 -8 -18 -17 -20 -17 -4 -17 -5 0 -6 18 -1 35 25 23
36 -3 4 -6 -1 -6 -10z"/>
<path d="M5874 4600 c1 -8 10 -16 21 -17 15 -1 15 0 3 3 -9 3 -19 11 -21 17
-2 7 -3 5 -3 -3z"/>
<path d="M6700 4606 c0 -8 -8 -17 -17 -19 -14 -4 -12 -5 5 -6 16 -1 22 5 22
19 0 11 -2 20 -5 20 -3 0 -5 -6 -5 -14z"/>
<path d="M4390 4601 c0 -4 11 -6 25 -3 14 2 25 6 25 8 0 2 -11 4 -25 4 -14 0
-25 -4 -25 -9z"/>
<path d="M5993 4600 c2 -8 12 -16 23 -17 13 -2 15 -1 4 4 -8 3 -19 11 -23 17
-6 7 -7 6 -4 -4z"/>
<path d="M6353 4600 c2 -8 12 -16 23 -17 13 -2 15 -1 4 4 -8 3 -19 11 -23 17
-6 7 -7 6 -4 -4z"/>
<path d="M4468 4588 c5 -5 16 -8 23 -6 8 3 3 7 -10 11 -17 4 -21 3 -13 -5z"/>
<path d="M4590 4590 c-9 -6 -10 -10 -3 -10 6 0 15 5 18 10 8 12 4 12 -15 0z"/>
<path d="M4745 4590 c-16 -7 -17 -9 -3 -9 9 -1 20 4 23 9 7 11 7 11 -20 0z"/>
<path d="M5265 4590 c-16 -7 -17 -9 -3 -9 9 -1 20 4 23 9 7 11 7 11 -20 0z"/>
<path d="M5398 4588 c5 -5 16 -8 23 -6 8 3 3 7 -10 11 -17 4 -21 3 -13 -5z"/>
<path d="M5458 4588 c5 -5 16 -8 23 -6 8 3 3 7 -10 11 -17 4 -21 3 -13 -5z"/>
<path d="M5698 4588 c5 -5 16 -8 23 -6 8 3 3 7 -10 11 -17 4 -21 3 -13 -5z"/>
<path d="M4988 4583 c7 -3 16 -2 19 1 4 3 -2 6 -13 5 -11 0 -14 -3 -6 -6z"/>
<path d="M5118 4583 c7 -3 16 -2 19 1 4 3 -2 6 -13 5 -11 0 -14 -3 -6 -6z"/>
<path d="M5578 4583 c7 -3 16 -2 19 1 4 3 -2 6 -13 5 -11 0 -14 -3 -6 -6z"/>
<path d="M6098 4583 c7 -3 16 -2 19 1 4 3 -2 6 -13 5 -11 0 -14 -3 -6 -6z"/>
<path d="M4721 4463 c-1 -24 1 -43 3 -43 8 0 12 48 5 66 -5 13 -8 7 -8 -23z"/>
<path d="M5153 4460 c0 -25 2 -35 4 -22 2 12 2 32 0 45 -2 12 -4 2 -4 -23z"/>
<path d="M5830 4479 c0 -5 5 -7 10 -4 6 3 10 8 10 11 0 2 -4 4 -10 4 -5 0 -10
-5 -10 -11z"/>
<path d="M5893 4455 c0 -22 2 -30 4 -17 2 12 2 30 0 40 -3 9 -5 -1 -4 -23z"/>
<path d="M5953 4455 c0 -22 2 -30 4 -17 2 12 2 30 0 40 -3 9 -5 -1 -4 -23z"/>
<path d="M5984 4470 c0 -13 4 -16 10 -10 7 7 7 13 0 20 -6 6 -10 3 -10 -10z"/>
<path d="M4415 4444 c0 -13 3 -24 8 -24 4 0 7 9 7 19 0 11 -3 22 -7 24 -5 3
-8 -6 -8 -19z"/>
<path d="M4533 4454 c-3 -8 -2 -19 3 -24 5 -5 9 1 9 16 0 28 -3 30 -12 8z"/>
<path d="M4590 4445 c0 -14 2 -25 4 -25 2 0 6 11 8 25 3 14 1 25 -3 25 -5 0
-9 -11 -9 -25z"/>
<path d="M4845 4445 c0 -13 3 -21 8 -18 4 2 7 10 7 18 0 8 -3 16 -7 18 -5 3
-8 -5 -8 -18z"/>
<path d="M4984 4444 c0 -13 4 -24 8 -24 4 0 8 9 8 19 0 11 -4 22 -8 25 -4 2
-8 -6 -8 -20z"/>
<path d="M5263 4454 c-3 -8 -2 -19 3 -24 5 -5 9 1 9 16 0 28 -3 30 -12 8z"/>
<path d="M5320 4445 c0 -14 2 -25 4 -25 2 0 6 11 8 25 3 14 1 25 -3 25 -5 0
-9 -11 -9 -25z"/>
<path d="M5435 4459 c-4 -6 -5 -12 -2 -15 2 -3 7 2 10 11 7 17 1 20 -8 4z"/>
<path d="M4870 4446 c0 -8 4 -17 9 -20 5 -4 7 3 4 14 -6 23 -13 26 -13 6z"/>
<path d="M5200 4446 c0 -8 4 -17 9 -20 5 -4 7 3 4 14 -6 23 -13 26 -13 6z"/>
<path d="M5820 4449 c0 -4 11 -9 24 -11 15 -3 23 -1 20 6 -5 12 -44 16 -44 5z"/>
<path d="M5656 4441 c-3 -4 6 -6 19 -3 14 2 25 6 25 8 0 8 -39 4 -44 -5z"/>
<path d="M5050 4429 c0 -5 5 -7 10 -4 6 3 10 8 10 11 0 2 -4 4 -10 4 -5 0 -10
-5 -10 -11z"/>
<path d="M4722 4295 c0 -23 3 -30 5 -17 2 12 12 22 21 23 14 0 14 2 2 6 -8 3
-18 11 -22 17 -4 6 -7 -7 -6 -29z"/>
<path d="M5438 4318 c-3 -7 -1 -24 3 -38 6 -22 7 -20 8 13 1 38 -3 47 -11 25z"/>
<path d="M5553 4295 c0 -22 2 -30 4 -17 2 12 2 30 0 40 -3 9 -5 -1 -4 -23z"/>
<path d="M4404 4303 c11 -3 14 -8 9 -12 -7 -4 -6 -11 4 -20 13 -12 14 -10 11
10 -2 15 -10 25 -23 26 -18 2 -18 1 -1 -4z"/>
<path d="M4476 4301 c-4 -5 3 -7 14 -4 23 6 26 13 6 13 -8 0 -17 -4 -20 -9z"/>
<path d="M4533 4294 c-3 -8 0 -21 7 -27 10 -9 11 -9 6 1 -5 7 -1 12 11 13 16
0 16 1 -2 8 l-20 8 20 5 c17 5 17 6 2 7 -10 0 -20 -6 -24 -15z"/>
<path d="M4594 4295 c-3 -8 -4 -20 -2 -27 3 -7 7 -1 10 15 6 29 1 36 -8 12z"/>
<path d="M4816 4301 c-4 -5 3 -7 14 -4 23 6 26 13 6 13 -8 0 -17 -4 -20 -9z"/>
<path d="M4873 4295 c-7 -21 -2 -24 22 -14 l20 8 -20 1 -20 1 20 9 c18 8 18 9
2 9 -10 1 -20 -6 -24 -14z"/>
<path d="M4968 4303 c7 -3 16 -2 19 1 4 3 -2 6 -13 5 -11 0 -14 -3 -6 -6z"/>
<path d="M5118 4302 c11 -7 11 -10 -2 -15 -9 -4 -16 -12 -15 -19 0 -10 2 -10
6 0 2 6 11 12 20 12 18 0 12 22 -8 28 -11 3 -11 2 -1 -6z"/>
<path d="M5220 4285 c0 -14 2 -25 4 -25 2 0 6 11 8 25 3 14 1 25 -3 25 -5 0
-9 -11 -9 -25z"/>
<path d="M5283 4295 c-7 -21 -2 -24 22 -14 l20 8 -20 1 -20 1 20 9 c18 8 18 9
2 9 -10 1 -20 -6 -24 -14z"/>
<path d="M5344 4295 c-3 -8 -4 -20 -2 -27 3 -7 7 -1 10 15 6 29 1 36 -8 12z"/>
<path d="M5403 4294 c-3 -8 -2 -19 3 -24 5 -5 9 1 9 16 0 28 -3 30 -12 8z"/>
<path d="M5485 4301 c19 -8 18 -9 -5 -13 -24 -5 -24 -5 3 -7 32 -1 33 22 1 26
-18 3 -18 2 1 -6z"/>
<path d="M5608 4303 c7 -3 16 -2 19 1 4 3 -2 6 -13 5 -11 0 -14 -3 -6 -6z"/>
<path d="M5713 4270 c0 -25 2 -35 4 -22 2 12 2 32 0 45 -2 12 -4 2 -4 -23z"/>
<path d="M5773 4295 c-7 -21 -2 -24 22 -14 l20 8 -20 1 -20 1 20 9 c18 8 18 9
2 9 -10 1 -20 -6 -24 -14z"/>
<path d="M5834 4295 c-3 -8 -4 -20 -2 -27 3 -7 7 -1 10 15 6 29 1 36 -8 12z"/>
<path d="M5893 4294 c-3 -8 0 -21 7 -27 10 -9 11 -9 6 1 -5 7 -1 12 11 13 16
0 16 1 -2 8 l-20 8 20 5 c17 5 17 6 2 7 -10 0 -20 -6 -24 -15z"/>
<path d="M5950 4285 c0 -14 2 -25 4 -25 2 0 6 11 8 25 3 14 1 25 -3 25 -5 0
-9 -11 -9 -25z"/>
<path d="M6013 4295 c-3 -9 -3 -18 -1 -21 3 -3 8 4 11 16 6 23 -1 27 -10 5z"/>
<path d="M6094 4302 c3 -6 -3 -12 -16 -15 -20 -4 -19 -4 5 -6 28 -1 36 12 15
25 -6 4 -8 3 -4 -4z"/>
<path d="M5663 4280 c-1 -9 4 -17 11 -17 6 0 12 8 12 17 0 9 -5 17 -11 17 -6
0 -12 -8 -12 -17z"/>
<path d="M4846 4273 c-6 -14 -5 -15 5 -6 7 7 10 15 7 18 -3 3 -9 -2 -12 -12z"/>
<path d="M4973 4283 c9 -2 15 -9 12 -14 -4 -5 -1 -9 4 -9 6 0 11 7 11 15 0 9
-9 15 -22 14 -18 -1 -19 -2 -5 -6z"/>
<path d="M5608 4283 c6 -2 18 -2 25 0 6 3 1 5 -13 5 -14 0 -19 -2 -12 -5z"/>
<path d="M5746 4273 c-6 -14 -5 -15 5 -6 7 7 10 15 7 18 -3 3 -9 -2 -12 -12z"/>
<path d="M5175 4240 c-16 -7 -17 -9 -3 -9 9 -1 20 4 23 9 7 11 7 11 -20 0z"/>
<path d="M5048 4233 c7 -3 16 -2 19 1 4 3 -2 6 -13 5 -11 0 -14 -3 -6 -6z"/>
<path d="M275 4180 c-3 -5 1 -10 10 -10 9 0 13 5 10 10 -3 6 -8 10 -10 10 -2
0 -7 -4 -10 -10z"/>
<path d="M262 4127 c-16 -45 -15 -49 7 -35 15 9 23 9 35 -1 20 -17 20 -13 1
33 -19 45 -28 45 -43 3z"/>
<path d="M543 4143 c21 -6 22 -17 2 -33 -22 -18 -18 -30 8 -29 18 1 18 2 4 6
-17 4 -17 6 -2 23 19 21 12 41 -13 39 -15 -1 -15 -2 1 -6z"/>
<path d="M598 4143 c7 -3 16 -2 19 1 4 3 -2 6 -13 5 -11 0 -14 -3 -6 -6z"/>
<path d="M329 4124 c-11 -14 -10 -19 9 -34 20 -17 21 -19 5 -24 -11 -3 -8 -4
7 -3 21 2 25 8 28 40 3 31 0 37 -16 37 -11 0 -26 -7 -33 -16z m27 -21 c-10
-10 -19 5 -10 18 6 11 8 11 12 0 2 -7 1 -15 -2 -18z"/>
<path d="M397 4134 c-13 -13 -7 -42 10 -48 9 -4 21 -1 27 5 8 9 8 10 -1 5 -6
-3 -14 -2 -18 4 -3 5 1 10 10 10 9 0 15 6 13 13 -5 14 -31 21 -41 11z"/>
<path d="M684 4132 c18 -8 18 -9 3 -15 -23 -9 -22 -39 1 -35 25 5 23 52 -3 55
-19 3 -19 3 -1 -5z m16 -26 c0 -3 -4 -8 -10 -11 -5 -3 -10 -1 -10 4 0 6 5 11
10 11 6 0 10 -2 10 -4z"/>
<path d="M727 4133 c-4 -3 -7 -16 -6 -27 0 -20 1 -20 9 2 5 12 14 22 19 22 5
0 12 -10 14 -22 4 -20 4 -19 6 5 1 20 -4 27 -17 27 -10 0 -22 -3 -25 -7z"/>
<path d="M785 4131 c-3 -6 3 -14 12 -20 16 -9 16 -12 3 -21 -9 -6 -10 -10 -3
-10 21 0 27 23 9 36 -16 12 -16 13 1 17 15 4 16 5 1 6 -9 0 -19 -3 -23 -8z"/>
<path d="M580 4119 c0 -5 9 -9 21 -9 16 0 20 -4 14 -17 -5 -14 -3 -15 6 -6 6
6 9 16 5 21 -8 13 -46 22 -46 11z"/>
<path d="M260 3959 l0 -40 50 3 c38 2 49 6 45 17 -3 7 -1 19 4 25 6 8 2 11
-14 11 -18 0 -23 -5 -22 -20 2 -15 -5 -21 -25 -23 -30 -4 -36 6 -16 26 9 9 9
12 0 12 -18 0 -14 18 6 23 13 4 11 5 -5 6 -20 1 -23 -4 -23 -40z"/>
<path d="M895 3983 c15 -11 16 -56 2 -66 -8 -6 -8 -7 3 -4 10 2 15 16 15 37 0
21 -5 35 -15 37 -9 3 -11 1 -5 -4z"/>
<path d="M380 3938 c0 -24 4 -38 8 -33 14 19 51 35 57 25 3 -6 16 -9 28 -9 17
1 18 2 5 6 -10 3 -18 14 -18 26 0 18 2 19 10 7 5 -8 12 -11 16 -7 4 4 2 13 -4
19 -10 10 -17 10 -32 0 -12 -7 -21 -8 -25 -2 -3 6 -15 10 -26 10 -16 0 -19 -7
-19 -42z m33 -1 c-3 -5 -10 -4 -15 1 -6 6 -7 16 -3 22 6 9 9 9 16 -1 4 -7 5
-17 2 -22z"/>
<path d="M501 3947 c1 -21 3 -25 6 -12 3 11 10 23 15 26 5 3 3 9 -6 12 -13 5
-16 0 -15 -26z"/>
<path d="M540 3951 c0 -17 5 -31 10 -31 6 0 10 11 10 24 0 14 -4 28 -10 31 -6
4 -10 -7 -10 -24z"/>
<path d="M574 3965 c-9 -22 3 -45 23 -44 11 0 13 3 6 6 -7 2 -13 14 -13 26 0
18 2 19 10 7 5 -8 12 -11 15 -8 10 10 -4 28 -21 28 -8 0 -17 -7 -20 -15z"/>
<path d="M631 3946 c1 -21 3 -24 6 -11 7 31 23 42 23 18 0 -12 5 -25 11 -28 7
-5 9 3 7 21 -2 22 -9 29 -25 30 -19 1 -23 -4 -22 -30z"/>
<path d="M694 3965 c-10 -24 4 -45 28 -44 l23 0 -24 10 c-23 9 -23 10 -6 29
17 18 17 20 1 20 -9 0 -19 -7 -22 -15z"/>
<path d="M750 3965 c-15 -18 3 -45 29 -44 10 0 11 2 4 6 -18 7 -16 23 3 23 14
0 14 3 4 15 -7 8 -16 15 -20 15 -4 0 -13 -7 -20 -15z"/>
<path d="M978 3973 c15 -6 16 -43 1 -43 -5 0 -7 5 -4 10 3 6 1 10 -5 10 -18 0
-6 -25 13 -28 13 -3 17 4 17 27 0 23 -4 31 -17 30 -11 0 -13 -3 -5 -6z"/>
<path d="M1022 3950 c0 -19 2 -27 5 -17 2 9 2 25 0 35 -3 9 -5 1 -5 -18z"/>
<path d="M1045 3970 c3 -5 8 -10 11 -10 2 0 4 5 4 10 0 6 -5 10 -11 10 -5 0
-7 -4 -4 -10z"/>
<path d="M1080 3966 c0 -8 8 -17 18 -21 16 -7 15 -8 -3 -15 -16 -7 -17 -9 -3
-9 24 -1 31 14 12 29 -12 11 -12 15 -2 21 10 7 9 9 -4 9 -10 0 -18 -6 -18 -14z"/>
<path d="M260 3800 c0 -37 2 -40 28 -39 23 2 24 2 5 6 -27 5 -31 23 -5 23 15
1 15 2 -2 12 -19 11 -19 11 -1 24 18 13 18 14 -3 14 -19 0 -22 -6 -22 -40z"/>
<path d="M360 3831 c0 -5 -9 -13 -20 -16 -13 -4 -20 -15 -20 -31 0 -19 5 -24
25 -24 23 0 25 4 25 40 0 22 -2 40 -5 40 -3 0 -5 -4 -5 -9z m-2 -43 c-6 -18
-28 -21 -28 -4 0 9 7 16 16 16 9 0 14 -5 12 -12z"/>
<path d="M605 3830 c3 -5 8 -10 11 -10 2 0 4 5 4 10 0 6 -5 10 -11 10 -5 0 -7
-4 -4 -10z"/>
<path d="M1400 3825 c0 -8 -3 -14 -7 -14 -25 4 -34 -3 -31 -23 2 -15 11 -24
26 -26 20 -3 22 1 22 37 0 23 -2 41 -5 41 -3 0 -5 -7 -5 -15z m0 -41 c0 -9 -5
-14 -12 -12 -18 6 -21 28 -4 28 9 0 16 -7 16 -16z"/>
<path d="M1500 3829 c0 -5 5 -7 10 -4 6 3 10 8 10 11 0 2 -4 4 -10 4 -5 0 -10
-5 -10 -11z"/>
<path d="M562 3798 c2 -17 8 -33 13 -35 9 -3 11 15 6 60 -1 4 -6 7 -12 7 -6 0
-9 -14 -7 -32z"/>
<path d="M1042 3798 c2 -17 8 -33 13 -35 9 -3 11 15 6 60 -1 4 -6 7 -12 7 -6
0 -9 -14 -7 -32z"/>
<path d="M463 3813 c-7 -3 -13 -16 -13 -29 0 -18 5 -24 23 -24 20 1 20 2 5 11
-10 5 -18 14 -18 19 0 5 8 10 18 12 9 2 13 6 7 9 -5 4 -16 4 -22 2z"/>
<path d="M515 3810 c-4 -6 0 -10 7 -10 8 0 6 -5 -5 -11 -21 -12 -13 -29 14
-29 13 0 19 7 19 24 0 25 -25 43 -35 26z"/>
<path d="M642 3811 c-21 -13 -10 -46 16 -49 27 -4 40 22 22 43 -14 17 -20 18
-38 6z m28 -26 c0 -8 -4 -15 -9 -15 -13 0 -22 16 -14 24 11 11 23 6 23 -9z"/>
<path d="M713 3813 c-7 -2 -12 -17 -12 -31 2 -24 2 -24 6 -4 2 12 9 22 14 22
5 0 14 -10 19 -22 9 -21 10 -21 7 6 -2 30 -12 38 -34 29z"/>
<path d="M853 3813 c-7 -3 -12 -17 -12 -31 2 -24 2 -24 6 -4 5 27 23 29 23 2
0 -11 5 -20 10 -20 6 0 10 9 10 20 0 27 17 25 23 -2 4 -16 5 -15 4 6 -2 23 -7
29 -27 31 -14 1 -31 0 -37 -2z"/>
<path d="M945 3810 c-4 -6 0 -10 7 -10 8 0 6 -5 -5 -11 -21 -12 -13 -29 14
-29 13 0 19 7 19 24 0 25 -25 43 -35 26z"/>
<path d="M994 3808 c-4 -6 1 -17 10 -24 16 -12 16 -13 -1 -17 -14 -4 -14 -5 5
-6 24 -1 31 24 10 32 -10 4 -10 6 0 6 7 1 10 6 7 11 -8 13 -22 13 -31 -2z"/>
<path d="M1090 3805 c-17 -21 -5 -45 22 -44 22 0 22 1 3 9 -17 7 -17 9 -2 9
20 1 23 27 3 34 -8 3 -20 -1 -26 -8z"/>
<path d="M1221 3810 c-21 -13 -8 -45 19 -47 23 -2 23 -2 5 6 -17 8 -18 10 -2
10 20 1 23 27 4 34 -8 3 -19 2 -26 -3z"/>
<path d="M1288 3813 c-12 -3 -18 -14 -17 -31 0 -26 1 -26 9 -4 5 12 14 22 19
22 5 0 12 -10 14 -22 4 -20 4 -20 6 4 1 30 -6 36 -31 31z"/>
<path d="M1460 3809 c-13 -8 -12 -11 3 -23 18 -14 18 -14 0 -19 -14 -4 -14 -5
5 -6 13 -1 22 5 22 14 0 8 -6 15 -12 15 -10 0 -9 3 1 9 7 5 9 11 4 14 -5 3
-15 1 -23 -4z"/>
<path d="M1543 3813 c-21 -7 -15 -44 7 -50 11 -3 17 -9 15 -14 -3 -4 -13 -5
-23 -2 -13 5 -15 3 -5 -7 20 -22 43 -4 43 34 0 33 -13 47 -37 39z m27 -29 c0
-17 -22 -14 -28 4 -2 7 3 12 12 12 9 0 16 -7 16 -16z"/>
<path d="M1608 3812 c-20 -4 -21 -8 -8 -37 8 -19 9 -19 9 3 1 27 21 30 21 2 0
-11 5 -20 10 -20 15 0 12 47 -2 52 -7 2 -21 3 -30 0z"/>
<path d="M382 3788 c2 -17 11 -24 31 -26 23 -3 27 0 27 22 0 14 -4 26 -10 26
-5 0 -10 -9 -10 -20 0 -11 -4 -20 -10 -20 -5 0 -10 9 -10 20 0 11 -5 20 -11
20 -6 0 -9 -10 -7 -22z"/>
<path d="M601 3803 c0 -5 4 -17 9 -28 8 -18 9 -17 9 8 1 15 -3 27 -9 27 -5 0
-10 -3 -9 -7z"/>
<path d="M1140 3785 c0 -14 5 -25 10 -25 6 0 10 9 10 19 0 11 6 22 13 24 6 3
2 6 -10 6 -18 1 -23 -5 -23 -24z"/>
<path d="M1432 3785 c0 -16 2 -22 5 -12 2 9 2 23 0 30 -3 6 -5 -1 -5 -18z"/>
<path d="M1500 3785 c0 -14 5 -25 10 -25 6 0 10 11 10 25 0 14 -4 25 -10 25
-5 0 -10 -11 -10 -25z"/>
<path d="M4370 3684 c0 -14 3 -14 15 -4 8 7 15 14 15 16 0 2 -7 4 -15 4 -8 0
-15 -7 -15 -16z"/>
<path d="M4453 3683 c-7 -2 -13 -11 -13 -18 0 -7 -6 -16 -12 -19 -10 -5 -10
-7 0 -12 6 -3 12 -19 12 -35 0 -16 5 -29 10 -29 6 0 10 13 10 29 0 16 6 32 13
34 9 4 8 8 -3 16 -12 9 -12 11 3 17 9 3 14 10 11 15 -6 10 -12 10 -31 2z"/>
<path d="M4500 3680 c0 -5 7 -10 15 -10 8 0 15 5 15 10 0 6 -7 10 -15 10 -8 0
-15 -4 -15 -10z"/>
<path d="M4220 3625 c0 -55 0 -55 31 -55 48 0 69 16 69 53 0 43 -15 57 -62 57
l-38 0 0 -55z m70 30 c18 -21 4 -65 -20 -65 -17 0 -20 7 -20 40 0 43 17 53 40
25z"/>
<path d="M4347 3643 c-4 -3 -7 -19 -7 -34 0 -27 15 -39 51 -39 27 0 24 20 -3
21 -22 1 -19 2 20 15 21 6 -5 44 -32 44 -12 0 -26 -3 -29 -7z m40 -19 c-3 -3
-12 -4 -19 -1 -8 3 -5 6 6 6 11 1 17 -2 13 -5z"/>
<path d="M4500 3610 c0 -29 4 -40 15 -40 11 0 15 11 15 40 0 29 -4 40 -15 40
-11 0 -15 -11 -15 -40z"/>
<path d="M4544 3639 c-4 -7 4 -20 17 -30 20 -15 21 -19 7 -19 -10 0 -18 -4
-18 -10 0 -16 47 -12 54 5 3 9 -3 20 -14 27 -23 15 -27 30 -5 22 8 -4 15 -1
15 5 0 15 -47 14 -56 0z"/>
<path d="M4527 3323 c-4 -3 -7 -20 -7 -36 0 -38 6 -32 13 11 5 33 5 36 -6 25z"/>
<path d="M4398 3303 c7 -3 16 -2 19 1 4 3 -2 6 -13 5 -11 0 -14 -3 -6 -6z"/>
<path d="M4462 3296 c7 -8 15 -12 17 -11 5 6 -10 25 -20 25 -5 0 -4 -6 3 -14z"/>
<path d="M4573 3304 c9 -3 15 -9 13 -13 -3 -4 0 -13 5 -21 8 -12 9 -9 7 10 -2
16 -10 25 -23 27 -16 1 -16 1 -2 -3z"/>
<path d="M4687 3304 c-4 -4 -7 -12 -7 -18 0 -6 5 -4 10 4 9 13 11 13 21 0 9
-12 10 -12 7 -1 -5 17 -21 25 -31 15z"/>
<path d="M4764 3295 c-3 -8 -4 -20 -1 -27 3 -7 6 -3 6 9 1 12 9 24 19 26 16 4
16 5 -1 6 -10 0 -20 -6 -23 -14z"/>
<path d="M4813 3294 c-3 -8 2 -22 11 -30 9 -8 11 -9 6 -2 -17 21 -12 41 10 35
11 -3 18 -1 14 4 -9 15 -34 10 -41 -7z"/>
<path d="M4886 3302 c-2 -4 4 -8 15 -8 10 0 19 4 19 8 0 4 -6 8 -14 8 -8 0
-17 -4 -20 -8z"/>
<path d="M5016 3303 c7 -4 14 -17 17 -28 5 -16 5 -15 4 4 -1 14 -9 26 -17 28
-10 3 -11 2 -4 -4z"/>
<path d="M5164 3296 c-3 -8 -4 -21 -1 -28 3 -7 6 -3 6 10 1 23 15 30 24 12 3
-6 4 -5 3 2 -4 18 -25 21 -32 4z"/>
<path d="M4612 3280 c0 -14 2 -19 5 -12 2 6 2 18 0 25 -3 6 -5 1 -5 -13z"/>
<path d="M4642 3280 c0 -14 2 -19 5 -12 2 6 2 18 0 25 -3 6 -5 1 -5 -13z"/>
<path d="M4942 3280 c0 -14 2 -19 5 -12 2 6 2 18 0 25 -3 6 -5 1 -5 -13z"/>
<path d="M5062 3280 c0 -14 2 -19 5 -12 2 6 2 18 0 25 -3 6 -5 1 -5 -13z"/>
<path d="M5122 3280 c0 -14 2 -19 5 -12 2 6 2 18 0 25 -3 6 -5 1 -5 -13z"/>
<path d="M4430 3282 c0 -12 22 -32 35 -32 5 0 2 5 -8 11 -9 6 -15 14 -12 20 4
5 1 9 -4 9 -6 0 -11 -4 -11 -8z"/>
<path d="M4402 3264 c-7 -8 -8 -14 -3 -14 10 0 25 19 20 25 -2 1 -10 -3 -17
-11z"/>
<path d="M5000 3271 c0 -6 4 -13 10 -16 6 -3 7 1 4 9 -7 18 -14 21 -14 7z"/>
<path d="M4687 3259 c7 -7 15 -10 18 -7 3 3 -2 9 -12 12 -14 6 -15 5 -6 -5z"/>
<path d="M1633 3190 c0 -25 2 -35 4 -22 2 12 2 32 0 45 -2 12 -4 2 -4 -23z"/>
<path d="M2818 3190 c-2 -22 0 -40 4 -40 5 0 8 18 8 40 0 22 -2 40 -4 40 -2 0
-6 -18 -8 -40z"/>
<path d="M3583 3190 c0 -25 2 -35 4 -22 2 12 2 32 0 45 -2 12 -4 2 -4 -23z"/>
<path d="M1300 3187 c0 -20 4 -37 8 -37 9 0 7 58 -2 67 -3 4 -6 -10 -6 -30z"/>
<path d="M1504 3206 c-9 -23 -1 -49 16 -53 12 -4 13 -3 1 5 -8 6 -12 20 -9 36
6 28 1 35 -8 12z"/>
<path d="M2673 3185 c0 -22 2 -30 4 -17 2 12 2 30 0 40 -3 9 -5 -1 -4 -23z"/>
<path d="M1970 3186 c0 -14 4 -27 8 -30 5 -3 6 8 4 25 -5 35 -12 38 -12 5z"/>
<path d="M310 3163 c0 -24 3 -33 9 -25 7 12 4 62 -5 62 -2 0 -4 -17 -4 -37z"/>
<path d="M345 3175 c0 -13 3 -21 8 -18 4 2 7 10 7 18 0 8 -3 16 -7 18 -5 3 -8
-5 -8 -18z"/>
<path d="M370 3175 c0 -14 2 -25 4 -25 2 0 6 11 8 25 3 14 1 25 -3 25 -5 0 -9
-11 -9 -25z"/>
<path d="M410 3181 c0 -11 4 -22 9 -25 4 -3 6 6 3 19 -5 30 -12 33 -12 6z"/>
<path d="M470 3193 c1 -14 30 -48 30 -34 0 7 -7 19 -15 27 -8 9 -15 12 -15 7z"/>
<path d="M571 3184 c0 -11 3 -14 6 -6 3 7 2 16 -1 19 -3 4 -6 -2 -5 -13z"/>
<path d="M621 3179 c-7 -12 -10 -23 -8 -26 3 -3 11 5 17 17 6 12 10 23 8 25
-2 2 -10 -5 -17 -16z"/>
<path d="M653 3184 c-3 -8 -2 -19 3 -24 5 -5 9 1 9 16 0 28 -3 30 -12 8z"/>
<path d="M688 3177 c-3 -19 -2 -25 4 -19 6 6 8 18 6 28 -3 14 -5 12 -10 -9z"/>
<path d="M740 3175 c0 -14 2 -25 4 -25 2 0 6 11 8 25 3 14 1 25 -3 25 -5 0 -9
-11 -9 -25z"/>
<path d="M894 3174 c0 -13 4 -24 8 -24 4 0 8 9 8 19 0 11 -4 22 -8 25 -4 2 -8
-6 -8 -20z"/>
<path d="M970 3190 c0 -6 7 -13 15 -16 8 -4 12 -11 8 -17 -3 -6 -1 -7 5 -3 15
9 15 9 -8 29 -11 9 -20 12 -20 7z"/>
<path d="M1020 3181 c0 -11 4 -22 9 -25 4 -3 6 6 3 19 -5 30 -12 33 -12 6z"/>
<path d="M1153 3184 c-3 -8 -2 -19 3 -24 5 -5 9 1 9 16 0 28 -3 30 -12 8z"/>
<path d="M1188 3177 c-3 -19 -2 -25 4 -19 6 6 8 18 6 28 -3 14 -5 12 -10 -9z"/>
<path d="M1252 3175 c0 -16 2 -22 5 -12 2 9 2 23 0 30 -3 6 -5 -1 -5 -18z"/>
<path d="M1338 3177 c-3 -19 -2 -25 4 -19 6 6 8 18 6 28 -3 14 -5 12 -10 -9z"/>
<path d="M1423 3184 c-3 -8 -2 -19 3 -24 5 -5 9 1 9 16 0 28 -3 30 -12 8z"/>
<path d="M1602 3175 c0 -16 2 -22 5 -12 2 9 2 23 0 30 -3 6 -5 -1 -5 -18z"/>
<path d="M1653 3184 c-3 -8 -2 -19 3 -24 5 -5 9 1 9 16 0 28 -3 30 -12 8z"/>
<path d="M1828 3175 c-3 -14 -1 -25 3 -25 5 0 9 11 9 25 0 14 -2 25 -4 25 -2
0 -6 -11 -8 -25z"/>
<path d="M1882 3175 c0 -16 2 -22 5 -12 2 9 2 23 0 30 -3 6 -5 -1 -5 -18z"/>
<path d="M1910 3175 c0 -14 2 -25 4 -25 2 0 6 11 8 25 3 14 1 25 -3 25 -5 0
-9 -11 -9 -25z"/>
<path d="M2010 3181 c0 -11 4 -22 9 -25 4 -3 6 6 3 19 -5 30 -12 33 -12 6z"/>
<path d="M2103 3165 c0 -22 2 -30 4 -17 2 12 2 30 0 40 -3 9 -5 -1 -4 -23z"/>
<path d="M2130 3175 c0 -14 2 -25 4 -25 2 0 6 11 8 25 3 14 1 25 -3 25 -5 0
-9 -11 -9 -25z"/>
<path d="M2291 3178 c-1 -21 4 -28 17 -28 11 0 13 3 6 8 -7 4 -14 16 -17 27
-4 15 -5 14 -6 -7z"/>
<path d="M2332 3175 c0 -16 2 -22 5 -12 2 9 2 23 0 30 -3 6 -5 -1 -5 -18z"/>
<path d="M2350 3175 c0 -14 2 -25 4 -25 2 0 6 11 8 25 3 14 1 25 -3 25 -5 0
-9 -11 -9 -25z"/>
<path d="M2392 3175 c0 -16 2 -22 5 -12 2 9 2 23 0 30 -3 6 -5 -1 -5 -18z"/>
<path d="M2413 3184 c-3 -8 -2 -19 3 -24 5 -5 9 1 9 16 0 28 -3 30 -12 8z"/>
<path d="M2500 3181 c0 -11 4 -22 9 -25 4 -3 6 6 3 19 -5 30 -12 33 -12 6z"/>
<path d="M2645 3175 c0 -13 3 -21 8 -18 4 2 7 10 7 18 0 8 -3 16 -7 18 -5 3
-8 -5 -8 -18z"/>
<path d="M2700 3181 c0 -11 4 -22 9 -25 4 -3 6 6 3 19 -5 30 -12 33 -12 6z"/>
<path d="M2783 3184 c-3 -8 -2 -19 3 -24 5 -5 9 1 9 16 0 28 -3 30 -12 8z"/>
<path d="M2872 3175 c0 -16 2 -22 5 -12 2 9 2 23 0 30 -3 6 -5 -1 -5 -18z"/>
<path d="M2890 3175 c0 -14 2 -25 4 -25 2 0 6 11 8 25 3 14 1 25 -3 25 -5 0
-9 -11 -9 -25z"/>
<path d="M2932 3175 c0 -16 2 -22 5 -12 2 9 2 23 0 30 -3 6 -5 -1 -5 -18z"/>
<path d="M2953 3184 c-3 -8 -2 -19 3 -24 5 -5 9 1 9 16 0 28 -3 30 -12 8z"/>
<path d="M2988 3176 c-3 -14 -1 -31 3 -38 6 -8 9 1 9 25 0 42 -6 48 -12 13z"/>
<path d="M3015 3189 c-4 -6 -5 -12 -2 -15 2 -3 7 2 10 11 7 17 1 20 -8 4z"/>
<path d="M3070 3175 c0 -14 2 -25 4 -25 2 0 6 11 8 25 3 14 1 25 -3 25 -5 0
-9 -11 -9 -25z"/>
<path d="M3112 3175 c0 -16 2 -22 5 -12 2 9 2 23 0 30 -3 6 -5 -1 -5 -18z"/>
<path d="M3160 3181 c0 -11 4 -22 9 -25 4 -3 6 6 3 19 -5 30 -12 33 -12 6z"/>
<path d="M3222 3175 c0 -16 2 -22 5 -12 2 9 2 23 0 30 -3 6 -5 -1 -5 -18z"/>
<path d="M3280 3175 c0 -14 2 -25 4 -25 2 0 6 11 8 25 3 14 1 25 -3 25 -5 0
-9 -11 -9 -25z"/>
<path d="M3343 3184 c-3 -8 -2 -19 3 -24 5 -5 9 1 9 16 0 28 -3 30 -12 8z"/>
<path d="M3495 3189 c-4 -6 -5 -12 -2 -15 2 -3 7 2 10 11 7 17 1 20 -8 4z"/>
<path d="M255 3171 c-3 -5 -2 -12 3 -15 5 -3 9 1 9 9 0 17 -3 19 -12 6z"/>
<path d="M943 3165 c0 -8 4 -15 9 -15 4 0 8 4 8 9 0 6 -4 12 -8 15 -5 3 -9 -1
-9 -9z"/>
<path d="M1123 3165 c0 -8 4 -15 9 -15 4 0 8 4 8 9 0 6 -4 12 -8 15 -5 3 -9
-1 -9 -9z"/>
<path d="M1365 3171 c-3 -5 -2 -12 3 -15 5 -3 9 1 9 9 0 17 -3 19 -12 6z"/>
<path d="M2170 3171 c0 -6 4 -13 10 -16 6 -3 7 1 4 9 -7 18 -14 21 -14 7z"/>
<path d="M835 3160 c-3 -5 -1 -10 4 -10 6 0 11 5 11 10 0 6 -2 10 -4 10 -3 0
-8 -4 -11 -10z"/>
<path d="M1685 3160 c-3 -5 -1 -10 4 -10 6 0 11 5 11 10 0 6 -2 10 -4 10 -3 0
-8 -4 -11 -10z"/>
<path d="M3245 3160 c-3 -5 -1 -10 4 -10 6 0 11 5 11 10 0 6 -2 10 -4 10 -3 0
-8 -4 -11 -10z"/>
<path d="M3375 3160 c-3 -5 -1 -10 4 -10 6 0 11 5 11 10 0 6 -2 10 -4 10 -3 0
-8 -4 -11 -10z"/>
<path d="M3435 3160 c-3 -5 -1 -10 4 -10 6 0 11 5 11 10 0 6 -2 10 -4 10 -3 0
-8 -4 -11 -10z"/>
<path d="M4800 3135 c0 -37 -7 -43 -30 -22 -12 10 -12 9 -1 -5 24 -31 41 -22
41 22 0 22 -2 40 -5 40 -3 0 -5 -16 -5 -35z"/>
<path d="M4390 3131 c0 -17 4 -32 8 -35 4 -2 6 11 4 30 -5 42 -12 45 -12 5z"/>
<path d="M5240 3131 c0 -17 4 -32 8 -35 4 -2 6 11 4 30 -5 42 -12 45 -12 5z"/>
<path d="M4470 3135 c-7 -9 -11 -17 -9 -20 3 -2 10 5 17 15 14 24 10 26 -8 5z"/>
<path d="M4834 3136 c-9 -23 3 -46 23 -45 17 1 17 2 1 6 -10 2 -18 13 -18 24
0 20 15 26 23 9 3 -6 4 -5 3 2 -4 19 -25 21 -32 4z"/>
<path d="M4980 3146 c0 -2 8 -10 18 -17 15 -13 16 -12 3 4 -13 16 -21 21 -21
13z"/>
<path d="M5080 3139 c0 -5 5 -7 10 -4 6 3 10 8 10 11 0 2 -4 4 -10 4 -5 0 -10
-5 -10 -11z"/>
<path d="M5209 3118 c4 -28 6 -29 9 -9 2 13 0 27 -5 32 -6 6 -7 -3 -4 -23z"/>
<path d="M5275 3141 c-3 -5 0 -13 6 -17 7 -4 9 -3 5 4 -3 5 0 13 6 15 9 4 10
6 1 6 -6 1 -14 -3 -18 -8z"/>
<path d="M4531 3118 c-1 -28 21 -39 34 -18 3 5 0 7 -9 4 -9 -4 -16 2 -19 18
-4 21 -4 20 -6 -4z"/>
<path d="M4700 3115 c0 -14 2 -25 4 -25 2 0 6 11 8 25 3 14 1 25 -3 25 -5 0
-9 -11 -9 -25z"/>
<path d="M4964 3115 c1 -12 9 -21 21 -22 14 -1 15 0 3 3 -9 3 -19 13 -21 22
-3 12 -4 11 -3 -3z"/>
<path d="M5022 3115 c0 -16 2 -22 5 -12 2 9 2 23 0 30 -3 6 -5 -1 -5 -18z"/>
<path d="M5152 3115 c0 -16 2 -22 5 -12 2 9 2 23 0 30 -3 6 -5 -1 -5 -18z"/>
<path d="M5380 3120 c0 -21 -15 -27 -23 -10 -3 6 -4 5 -3 -2 1 -7 10 -14 19
-16 12 -3 17 4 17 22 0 14 -2 26 -5 26 -3 0 -5 -9 -5 -20z"/>
<path d="M5471 3123 c-1 -27 -27 -31 -34 -5 -4 15 -5 15 -6 -1 -1 -11 7 -21
19 -24 11 -3 17 -10 13 -17 -4 -8 -3 -8 6 0 7 6 11 24 8 40 -3 22 -4 24 -6 7z"/>
<path d="M5550 3115 c0 -14 2 -25 4 -25 2 0 6 11 8 25 3 14 1 25 -3 25 -5 0
-9 -11 -9 -25z"/>
<path d="M5593 3121 c1 -14 9 -26 17 -28 10 -3 11 -2 4 4 -7 4 -14 17 -17 28
-5 16 -5 15 -4 -4z"/>
<path d="M5654 3115 c1 -12 9 -21 21 -22 14 -1 15 0 3 3 -9 3 -19 13 -21 22
-3 12 -4 11 -3 -3z"/>
<path d="M5710 3115 c0 -14 2 -25 4 -25 2 0 6 11 8 25 3 14 1 25 -3 25 -5 0
-9 -11 -9 -25z"/>
<path d="M4641 3114 c0 -11 3 -14 6 -6 3 7 2 16 -1 19 -3 4 -6 -2 -5 -13z"/>
<path d="M5530 3114 c0 -12 -6 -15 -21 -11 -16 4 -19 3 -11 -5 14 -14 42 -3
42 17 0 8 -2 15 -5 15 -3 0 -5 -7 -5 -16z"/>
<path d="M4607 3113 c-4 -3 -7 -11 -7 -17 0 -6 5 -5 12 2 6 6 9 14 7 17 -3 3
-9 2 -12 -2z"/>
<path d="M4902 3104 c-7 -8 -8 -14 -3 -14 10 0 25 19 20 25 -2 1 -10 -3 -17
-11z"/>
<path d="M5292 3104 c-7 -8 -8 -14 -3 -14 10 0 25 19 20 25 -2 1 -10 -3 -17
-11z"/>
<path d="M4490 3100 c-9 -6 -10 -10 -3 -10 6 0 15 5 18 10 8 12 4 12 -15 0z"/>
<path d="M403 3025 c0 -22 2 -30 4 -17 2 12 2 30 0 40 -3 9 -5 -1 -4 -23z"/>
<path d="M1358 3048 c-3 -7 -1 -24 3 -38 6 -22 7 -20 8 13 1 38 -3 47 -11 25z"/>
<path d="M1848 3048 c-3 -7 -1 -24 3 -38 6 -22 7 -20 8 13 1 38 -3 47 -11 25z"/>
<path d="M2678 3048 c-3 -7 -1 -24 3 -38 6 -22 7 -20 8 13 1 38 -3 47 -11 25z"/>
<path d="M2903 3025 c0 -22 2 -30 4 -17 2 12 2 30 0 40 -3 9 -5 -1 -4 -23z"/>
<path d="M3198 3048 c-3 -7 -1 -24 3 -38 6 -22 7 -20 8 13 1 38 -3 47 -11 25z"/>
<path d="M460 3027 c0 -14 4 -28 8 -31 9 -5 8 41 -1 51 -4 3 -7 -5 -7 -20z"/>
<path d="M1167 3043 c-2 -5 -1 -19 3 -33 l6 -25 6 28 c5 26 -5 47 -15 30z"/>
<path d="M2517 3043 c-2 -5 -1 -19 4 -33 7 -23 7 -23 8 8 1 31 -3 40 -12 25z"/>
<path d="M435 3015 c0 -13 3 -21 8 -18 4 2 7 10 7 18 0 8 -3 16 -7 18 -5 3 -8
-5 -8 -18z"/>
<path d="M507 3033 c-4 -3 -7 -16 -7 -27 0 -12 3 -16 8 -10 4 6 14 14 22 17
11 4 10 6 -5 7 l-20 1 20 9 c15 6 16 9 4 9 -9 1 -19 -2 -22 -6z"/>
<path d="M560 3015 c0 -14 2 -25 4 -25 2 0 6 11 8 25 3 14 1 25 -3 25 -5 0 -9
-11 -9 -25z"/>
<path d="M622 3015 c0 -16 2 -22 5 -12 2 9 2 23 0 30 -3 6 -5 -1 -5 -18z"/>
<path d="M683 3024 c-3 -8 0 -21 7 -27 10 -9 11 -9 6 0 -3 6 1 13 11 16 17 4
17 5 0 6 -10 0 -15 6 -12 11 3 6 4 10 0 10 -3 0 -8 -7 -12 -16z"/>
<path d="M766 3032 c-3 -5 4 -16 15 -25 10 -9 19 -12 19 -7 0 6 -7 13 -15 16
-8 4 -12 10 -9 15 3 5 3 9 0 9 -3 0 -7 -4 -10 -8z"/>
<path d="M813 3024 c-3 -8 -2 -19 3 -24 5 -5 9 1 9 16 0 28 -3 30 -12 8z"/>
<path d="M845 3030 c3 -5 8 -10 11 -10 2 0 4 5 4 10 0 6 -5 10 -11 10 -5 0 -7
-4 -4 -10z"/>
<path d="M912 3015 c0 -16 2 -22 5 -12 2 9 2 23 0 30 -3 6 -5 -1 -5 -18z"/>
<path d="M998 3015 c2 -14 6 -25 7 -25 1 0 5 11 7 25 3 16 1 25 -7 25 -8 0
-10 -9 -7 -25z"/>
<path d="M1076 3032 c7 -4 14 -16 17 -27 4 -15 5 -14 6 8 1 20 -4 27 -16 27
-12 0 -14 -3 -7 -8z"/>
<path d="M1203 3024 c-3 -8 0 -21 7 -27 10 -9 11 -9 6 1 -5 8 0 12 13 12 23 0
28 15 9 26 -7 4 -8 3 -4 -4 4 -7 1 -12 -9 -12 -9 0 -13 5 -10 10 3 6 4 10 0
10 -3 0 -8 -7 -12 -16z"/>
<path d="M1262 3015 c0 -16 2 -22 5 -12 2 9 2 23 0 30 -3 6 -5 -1 -5 -18z"/>
<path d="M1397 3033 c-4 -3 -7 -16 -7 -27 0 -12 3 -16 8 -10 4 6 14 14 22 17
11 4 10 6 -5 7 l-20 1 20 9 c15 6 16 9 4 9 -9 1 -19 -2 -22 -6z"/>
<path d="M1522 3015 c0 -16 2 -22 5 -12 2 9 2 23 0 30 -3 6 -5 -1 -5 -18z"/>
<path d="M1567 3033 c-4 -3 -7 -16 -7 -27 0 -12 3 -16 8 -10 4 6 14 14 22 17
11 4 10 6 -5 7 l-20 1 20 9 c15 6 16 9 4 9 -9 1 -19 -2 -22 -6z"/>
<path d="M1680 3031 c0 -6 4 -13 10 -16 6 -3 7 1 4 9 -7 18 -14 21 -14 7z"/>
<path d="M1754 3032 c3 -6 -2 -13 -11 -15 -14 -4 -13 -5 5 -6 23 -1 30 13 10
25 -6 4 -8 3 -4 -4z"/>
<path d="M1813 3024 c-3 -8 -2 -19 3 -24 5 -5 9 1 9 16 0 28 -3 30 -12 8z"/>
<path d="M1873 3024 c-3 -8 0 -21 7 -27 10 -9 11 -9 6 1 -5 8 0 12 13 12 23 0
28 15 9 26 -7 4 -8 3 -4 -4 4 -7 1 -12 -9 -12 -9 0 -13 5 -10 10 3 6 4 10 0
10 -3 0 -8 -7 -12 -16z"/>
<path d="M2034 3032 c3 -6 -3 -12 -16 -15 -20 -4 -19 -4 5 -6 28 -1 36 12 15
25 -6 4 -8 3 -4 -4z"/>
<path d="M2092 3015 c0 -16 2 -22 5 -12 2 9 2 23 0 30 -3 6 -5 -1 -5 -18z"/>
<path d="M2156 3028 c5 -8 2 -9 -9 -5 -13 5 -17 1 -16 -16 0 -12 3 -16 6 -9 2
6 11 12 19 12 8 0 14 7 14 15 0 8 -5 15 -11 15 -5 0 -7 -5 -3 -12z"/>
<path d="M2275 3015 c0 -13 3 -21 8 -18 4 2 7 10 7 18 0 8 -3 16 -7 18 -5 3
-8 -5 -8 -18z"/>
<path d="M2300 3015 c0 -14 2 -25 4 -25 2 0 6 11 8 25 3 14 1 25 -3 25 -5 0
-9 -11 -9 -25z"/>
<path d="M2338 3015 c2 -14 6 -25 8 -25 2 0 4 11 4 25 0 14 -4 25 -9 25 -4 0
-6 -11 -3 -25z"/>
<path d="M2421 3028 c-1 -12 6 -18 19 -18 11 0 20 7 20 15 0 8 -5 15 -11 15
-5 0 -7 -4 -4 -10 3 -5 2 -10 -4 -10 -5 0 -12 6 -14 13 -3 7 -6 5 -6 -5z"/>
<path d="M2552 3015 c0 -16 2 -22 5 -12 2 9 2 23 0 30 -3 6 -5 -1 -5 -18z"/>
<path d="M2584 3025 c-3 -8 -4 -20 -2 -27 3 -7 7 -1 10 15 6 29 1 36 -8 12z"/>
<path d="M2643 3024 c-3 -8 -2 -19 3 -24 5 -5 9 1 9 16 0 28 -3 30 -12 8z"/>
<path d="M2723 3034 c13 -4 17 -12 14 -25 -3 -10 -1 -19 5 -19 19 0 3 45 -17
47 -17 2 -17 1 -2 -3z"/>
<path d="M2762 3015 c0 -16 2 -22 5 -12 2 9 2 23 0 30 -3 6 -5 -1 -5 -18z"/>
<path d="M2798 3015 c2 -14 6 -25 8 -25 2 0 4 11 4 25 0 14 -4 25 -9 25 -4 0
-6 -11 -3 -25z"/>
<path d="M2826 3032 c-3 -5 4 -16 15 -25 10 -9 19 -12 19 -7 0 6 -7 13 -15 16
-8 4 -12 10 -9 15 3 5 3 9 0 9 -3 0 -7 -4 -10 -8z"/>
<path d="M2943 3034 c13 -4 17 -12 14 -25 -3 -10 -1 -19 5 -19 19 0 3 45 -17
47 -17 2 -17 1 -2 -3z"/>
<path d="M3086 3032 c7 -4 14 -16 17 -27 4 -15 5 -14 6 8 1 20 -4 27 -16 27
-12 0 -14 -3 -7 -8z"/>
<path d="M3134 3025 c-3 -8 -4 -20 -2 -27 3 -7 7 -1 10 15 6 29 1 36 -8 12z"/>
<path d="M3256 3028 c5 -8 2 -9 -9 -5 -10 3 -17 2 -17 -3 0 -6 9 -10 20 -10
11 0 20 7 20 15 0 8 -5 15 -11 15 -5 0 -7 -5 -3 -12z"/>
<path d="M1065 3009 c-4 -6 -5 -12 -2 -15 2 -3 7 2 10 11 7 17 1 20 -8 4z"/>
<path d="M1136 3007 c3 -10 9 -15 12 -12 3 3 0 11 -7 18 -10 9 -11 8 -5 -6z"/>
<path d="M1466 3007 c3 -10 9 -15 12 -12 3 3 0 11 -7 18 -10 9 -11 8 -5 -6z"/>
<path d="M1976 3007 c3 -10 9 -15 12 -12 3 3 0 11 -7 18 -10 9 -11 8 -5 -6z"/>
<path d="M2370 3011 c0 -6 4 -13 10 -16 6 -3 7 1 4 9 -7 18 -14 21 -14 7z"/>
<path d="M3075 3009 c-4 -6 -5 -12 -2 -15 2 -3 7 2 10 11 7 17 1 20 -8 4z"/>
<path d="M5573 2965 c0 -22 2 -30 4 -17 2 12 2 30 0 40 -3 9 -5 -1 -4 -23z"/>
<path d="M3025 2970 c-16 -7 -17 -9 -3 -9 9 -1 20 4 23 9 7 11 7 11 -20 0z"/>
<path d="M4440 2961 c0 -11 3 -22 8 -24 4 -3 7 6 7 19 0 13 -3 24 -7 24 -5 0
-8 -9 -8 -19z"/>
<path d="M4475 2955 c0 -13 3 -21 8 -18 4 2 7 10 7 18 0 8 -3 16 -7 18 -5 3
-8 -5 -8 -18z"/>
<path d="M4500 2955 c0 -14 2 -25 4 -25 2 0 6 11 8 25 3 14 1 25 -3 25 -5 0
-9 -11 -9 -25z"/>
<path d="M4540 2955 c0 -14 2 -25 4 -25 2 0 6 11 8 25 3 14 1 25 -3 25 -5 0
-9 -11 -9 -25z"/>
<path d="M4600 2955 c0 -14 2 -25 4 -25 2 0 6 11 8 25 3 14 1 25 -3 25 -5 0
-9 -11 -9 -25z"/>
<path d="M4672 2955 c0 -16 2 -22 5 -12 2 9 2 23 0 30 -3 6 -5 -1 -5 -18z"/>
<path d="M4728 2955 c-3 -14 -1 -25 3 -25 5 0 9 11 9 25 0 14 -2 25 -4 25 -2
0 -6 -11 -8 -25z"/>
<path d="M4762 2955 c0 -16 2 -22 5 -12 2 9 2 23 0 30 -3 6 -5 -1 -5 -18z"/>
<path d="M4822 2955 c0 -16 2 -22 5 -12 2 9 2 23 0 30 -3 6 -5 -1 -5 -18z"/>
<path d="M4843 2964 c-3 -8 -2 -19 3 -24 5 -5 9 1 9 16 0 28 -3 30 -12 8z"/>
<path d="M4878 2956 c-3 -14 -1 -31 3 -38 6 -8 9 1 9 25 0 42 -6 48 -12 13z"/>
<path d="M4938 2955 c-3 -14 -1 -25 3 -25 5 0 9 11 9 25 0 14 -2 25 -4 25 -2
0 -6 -11 -8 -25z"/>
<path d="M5093 2964 c-3 -8 -2 -19 3 -24 5 -5 9 1 9 16 0 28 -3 30 -12 8z"/>
<path d="M5198 2955 c-3 -14 -1 -25 3 -25 5 0 9 11 9 25 0 14 -2 25 -4 25 -2
0 -6 -11 -8 -25z"/>
<path d="M5232 2955 c0 -16 2 -22 5 -12 2 9 2 23 0 30 -3 6 -5 -1 -5 -18z"/>
<path d="M5250 2955 c0 -14 2 -25 4 -25 2 0 6 11 8 25 3 14 1 25 -3 25 -5 0
-9 -11 -9 -25z"/>
<path d="M5293 2964 c-3 -8 -2 -19 3 -24 5 -5 9 1 9 16 0 28 -3 30 -12 8z"/>
<path d="M5350 2955 c0 -14 2 -25 4 -25 2 0 6 11 8 25 3 14 1 25 -3 25 -5 0
-9 -11 -9 -25z"/>
<path d="M5422 2955 c0 -16 2 -22 5 -12 2 9 2 23 0 30 -3 6 -5 -1 -5 -18z"/>
<path d="M5445 2969 c-4 -6 -5 -12 -2 -15 2 -3 7 2 10 11 7 17 1 20 -8 4z"/>
<path d="M5500 2955 c0 -14 2 -25 4 -25 2 0 6 11 8 25 3 14 1 25 -3 25 -5 0
-9 -11 -9 -25z"/>
<path d="M5542 2955 c0 -16 2 -22 5 -12 2 9 2 23 0 30 -3 6 -5 -1 -5 -18z"/>
<path d="M4970 2951 c0 -6 4 -13 10 -16 6 -3 7 1 4 9 -7 18 -14 21 -14 7z"/>
<path d="M290 2891 c0 -5 -9 -11 -20 -14 -25 -6 -26 -30 -2 -48 14 -11 15 -11
5 1 -17 19 -16 40 1 40 8 0 17 -10 19 -22 3 -14 5 -9 6 15 0 20 -1 37 -4 37
-3 0 -5 -4 -5 -9z"/>
<path d="M458 2888 c-3 -7 -2 -24 2 -38 l6 -25 6 27 c6 29 -6 60 -14 36z"/>
<path d="M743 2865 c0 -22 2 -30 4 -17 2 12 2 30 0 40 -3 9 -5 -1 -4 -23z"/>
<path d="M763 2865 c0 -22 2 -30 4 -17 2 12 2 30 0 40 -3 9 -5 -1 -4 -23z"/>
<path d="M1133 2865 c0 -22 2 -30 4 -17 2 12 2 30 0 40 -3 9 -5 -1 -4 -23z"/>
<path d="M1393 2865 c0 -22 2 -30 4 -17 2 12 2 30 0 40 -3 9 -5 -1 -4 -23z"/>
<path d="M1603 2865 c0 -22 2 -30 4 -17 2 12 2 30 0 40 -3 9 -5 -1 -4 -23z"/>
<path d="M2047 2893 c-4 -3 -7 -20 -7 -36 0 -38 6 -32 13 11 5 33 5 36 -6 25z"/>
<path d="M2790 2891 c0 -5 -9 -11 -20 -14 -13 -3 -20 -13 -19 -29 2 -23 2 -23
6 0 2 12 11 22 18 22 7 0 16 -10 18 -22 3 -14 5 -9 6 15 0 20 -1 37 -4 37 -3
0 -5 -4 -5 -9z"/>
<path d="M3013 2865 c0 -22 2 -30 4 -17 2 12 2 30 0 40 -3 9 -5 -1 -4 -23z"/>
<path d="M3100 2891 c0 -5 -9 -11 -20 -14 -13 -3 -20 -13 -19 -29 2 -23 2 -23
6 0 2 12 11 22 18 22 7 0 16 -10 18 -22 3 -14 5 -9 6 15 0 20 -1 37 -4 37 -3
0 -5 -4 -5 -9z"/>
<path d="M3521 2868 c-6 -17 -9 -33 -7 -36 3 -2 8 7 12 22 3 14 10 23 15 20 5
-3 9 -1 9 5 0 25 -19 18 -29 -11z"/>
<path d="M3590 2896 c0 -2 9 -6 20 -9 11 -3 18 -1 14 4 -5 9 -34 13 -34 5z"/>
<path d="M980 2862 c0 -17 3 -33 8 -35 9 -6 8 50 -1 60 -4 3 -7 -8 -7 -25z"/>
<path d="M2330 2862 c0 -17 3 -33 8 -35 9 -6 8 50 -1 60 -4 3 -7 -8 -7 -25z"/>
<path d="M347 2874 c-4 -4 -7 -12 -7 -18 0 -6 5 -4 10 4 9 13 11 13 21 0 9
-12 10 -12 7 -1 -5 17 -21 25 -31 15z"/>
<path d="M405 2870 c-3 -5 0 -7 9 -4 9 4 16 -2 19 -18 4 -21 4 -20 6 5 1 27
-21 38 -34 17z"/>
<path d="M508 2873 c7 -3 16 -2 19 1 4 3 -2 6 -13 5 -11 0 -14 -3 -6 -6z"/>
<path d="M552 2855 c0 -16 2 -22 5 -12 2 9 2 23 0 30 -3 6 -5 -1 -5 -18z"/>
<path d="M576 2873 c7 -4 14 -17 17 -28 5 -16 5 -15 4 4 -1 14 -9 26 -17 28
-10 3 -11 2 -4 -4z"/>
<path d="M687 2874 c-4 -4 -7 -12 -7 -18 0 -6 5 -4 10 4 9 13 11 13 21 0 9
-12 10 -12 7 -1 -5 17 -21 25 -31 15z"/>
<path d="M794 2865 c-3 -8 -4 -20 -1 -27 3 -7 6 -3 6 9 1 12 9 24 19 26 16 4
16 5 -1 6 -10 0 -20 -6 -23 -14z"/>
<path d="M874 2865 c-4 -10 0 -23 10 -31 9 -8 11 -9 6 -2 -6 7 -10 18 -10 25
0 15 26 18 33 3 3 -6 4 -5 3 2 -4 20 -35 22 -42 3z"/>
<path d="M935 2871 c-3 -5 0 -13 6 -17 7 -4 9 -3 5 4 -3 5 0 13 6 15 9 4 10 6
1 6 -6 1 -14 -3 -18 -8z"/>
<path d="M1064 2873 c11 -3 14 -8 9 -12 -7 -4 -6 -11 4 -20 13 -12 14 -10 11
10 -2 15 -10 25 -23 26 -18 2 -18 1 -1 -4z"/>
<path d="M1174 2873 c11 -3 14 -8 9 -12 -7 -4 -6 -11 4 -20 13 -12 14 -10 11
10 -2 15 -10 25 -23 26 -18 2 -18 1 -1 -4z"/>
<path d="M1287 2874 c-4 -4 -7 -12 -7 -18 0 -6 5 -4 10 4 9 13 11 13 21 0 9
-12 10 -12 7 -1 -5 17 -21 25 -31 15z"/>
<path d="M1333 2864 c-3 -8 2 -22 11 -30 9 -8 11 -9 6 -2 -15 18 -12 36 8 41
16 4 16 5 -1 6 -10 0 -20 -6 -24 -15z"/>
<path d="M1454 2865 c-3 -8 -4 -20 -1 -27 3 -7 6 -3 6 9 1 12 9 24 19 26 16 4
16 5 -1 6 -10 0 -20 -6 -23 -14z"/>
<path d="M1555 2870 c-3 -6 1 -7 9 -4 18 7 21 14 7 14 -6 0 -13 -4 -16 -10z"/>
<path d="M1626 2873 c7 -4 14 -17 17 -28 5 -16 5 -15 4 4 -1 14 -9 26 -17 28
-10 3 -11 2 -4 -4z"/>
<path d="M1664 2865 c-4 -10 0 -23 10 -31 9 -8 11 -9 6 -2 -6 7 -10 18 -10 25
0 15 26 18 33 3 3 -6 4 -5 3 2 -4 20 -35 22 -42 3z"/>
<path d="M1756 2872 c-2 -4 4 -8 15 -8 10 0 19 4 19 8 0 4 -6 8 -14 8 -8 0
-17 -4 -20 -8z"/>
<path d="M1830 2856 c0 -14 4 -27 8 -30 5 -3 6 8 4 25 -5 35 -12 38 -12 5z"/>
<path d="M1868 2855 c-3 -14 -1 -25 3 -25 5 0 9 11 9 25 0 14 -2 25 -4 25 -2
0 -6 -11 -8 -25z"/>
<path d="M1916 2873 c7 -4 14 -17 17 -28 5 -16 5 -15 4 4 -1 14 -9 26 -17 28
-10 3 -11 2 -4 -4z"/>
<path d="M1954 2866 c-7 -18 12 -46 30 -46 6 0 3 5 -6 11 -10 5 -18 17 -18 24
0 17 26 20 33 5 3 -6 4 -5 3 2 -4 19 -35 22 -42 4z"/>
<path d="M2080 2864 c-11 -12 -10 -18 5 -32 18 -16 18 -16 5 1 -19 26 2 46 27
26 16 -13 17 -12 4 4 -17 21 -25 21 -41 1z"/>
<path d="M2184 2865 c-3 -8 -4 -20 -1 -27 3 -7 6 -2 6 11 1 16 5 21 16 17 8
-3 15 -1 15 4 0 16 -30 12 -36 -5z"/>
<path d="M2236 2873 c7 -4 14 -17 17 -28 5 -16 5 -15 4 4 -1 14 -9 26 -17 28
-10 3 -11 2 -4 -4z"/>
<path d="M2288 2873 c7 -3 16 -2 19 1 4 3 -2 6 -13 5 -11 0 -14 -3 -6 -6z"/>
<path d="M2372 2855 c0 -16 2 -22 5 -12 2 9 2 23 0 30 -3 6 -5 -1 -5 -18z"/>
<path d="M2393 2864 c-3 -8 2 -22 11 -30 9 -8 11 -9 6 -2 -17 21 -12 41 10 35
11 -3 18 -1 14 4 -9 15 -34 10 -41 -7z"/>
<path d="M2466 2871 c-4 -5 3 -7 14 -4 23 6 26 13 6 13 -8 0 -17 -4 -20 -9z"/>
<path d="M2558 2873 c7 -3 16 -2 19 1 4 3 -2 6 -13 5 -11 0 -14 -3 -6 -6z"/>
<path d="M2642 2855 c0 -16 2 -22 5 -12 2 9 2 23 0 30 -3 6 -5 -1 -5 -18z"/>
<path d="M2686 2873 c7 -4 14 -17 17 -28 5 -16 5 -15 4 4 -1 14 -9 26 -17 28
-10 3 -11 2 -4 -4z"/>
<path d="M2814 2865 c-4 -10 0 -23 10 -31 9 -8 11 -9 6 -2 -6 7 -10 18 -10 25
0 15 26 18 33 3 3 -6 4 -5 3 2 -4 20 -35 22 -42 3z"/>
<path d="M2968 2873 c6 -2 10 -9 6 -14 -3 -5 0 -9 5 -9 6 0 11 7 11 15 0 8 -8
15 -17 14 -11 0 -13 -3 -5 -6z"/>
<path d="M3123 2864 c-3 -8 2 -22 11 -30 9 -8 11 -9 6 -2 -15 18 -12 36 8 41
16 4 16 5 -1 6 -10 0 -20 -6 -24 -15z"/>
<path d="M3245 2871 c-3 -5 0 -13 6 -17 7 -4 9 -3 5 4 -3 6 2 13 11 15 16 4
16 5 1 6 -9 0 -19 -3 -23 -8z"/>
<path d="M3293 2864 c-3 -8 2 -22 11 -30 9 -8 11 -9 6 -2 -17 21 -12 41 10 35
11 -3 18 -1 14 4 -9 15 -34 10 -41 -7z"/>
<path d="M3364 2865 c-3 -8 -4 -20 -1 -27 3 -7 6 -3 6 9 1 12 9 24 19 26 16 4
16 5 -1 6 -10 0 -20 -6 -23 -14z"/>
<path d="M1242 2850 c0 -14 2 -19 5 -12 2 6 2 18 0 25 -3 6 -5 1 -5 -13z"/>
<path d="M1512 2850 c0 -14 2 -19 5 -12 2 6 2 18 0 25 -3 6 -5 1 -5 -13z"/>
<path d="M1892 2850 c0 -14 2 -19 5 -12 2 6 2 18 0 25 -3 6 -5 1 -5 -13z"/>
<path d="M2142 2850 c0 -14 2 -19 5 -12 2 6 2 18 0 25 -3 6 -5 1 -5 -13z"/>
<path d="M2662 2850 c0 -14 2 -19 5 -12 2 6 2 18 0 25 -3 6 -5 1 -5 -13z"/>
<path d="M3182 2850 c0 -14 2 -19 5 -12 2 6 2 18 0 25 -3 6 -5 1 -5 -13z"/>
<path d="M2566 2853 c5 -5 12 -12 16 -18 4 -6 8 -2 8 8 0 9 -7 17 -17 17 -9 0
-12 -3 -7 -7z"/>
<path d="M3550 2851 c0 -6 4 -13 10 -16 6 -3 7 1 4 9 -7 18 -14 21 -14 7z"/>
<path d="M2950 2841 c0 -6 4 -13 10 -16 6 -3 7 1 4 9 -7 18 -14 21 -14 7z"/>
<path d="M3266 2833 c-6 -14 -5 -15 5 -6 7 7 10 15 7 18 -3 3 -9 -2 -12 -12z"/>
<path d="M4753 2805 c0 -22 2 -30 4 -17 2 12 2 30 0 40 -3 9 -5 -1 -4 -23z"/>
<path d="M5393 2805 c0 -22 2 -30 4 -17 2 12 2 30 0 40 -3 9 -5 -1 -4 -23z"/>
<path d="M5040 2801 c0 -17 2 -31 4 -31 8 0 13 51 5 56 -5 3 -9 -9 -9 -25z"/>
<path d="M5830 2801 c0 -17 2 -31 4 -31 8 0 13 51 5 56 -5 3 -9 -9 -9 -25z"/>
<path d="M4421 2788 c-1 -26 -6 -38 -18 -41 -17 -4 -17 -5 0 -6 21 -1 30 18
24 56 -3 24 -4 23 -6 -9z"/>
<path d="M4475 2799 c6 -33 15 -36 15 -6 0 15 -4 27 -9 27 -6 0 -8 -10 -6 -21z"/>
<path d="M4538 2786 c3 -23 -1 -36 -10 -39 -9 -3 -9 -4 2 -3 16 1 28 76 13 76
-5 0 -7 -15 -5 -34z"/>
<path d="M4570 2795 c0 -14 2 -25 4 -25 2 0 6 11 8 25 3 14 1 25 -3 25 -5 0
-9 -11 -9 -25z"/>
<path d="M4637 2813 c-11 -10 -8 -43 4 -43 5 0 7 5 4 10 -3 6 2 10 12 11 16 0
16 1 -2 8 l-20 8 20 5 c13 4 15 6 4 7 -9 0 -19 -2 -22 -6z"/>
<path d="M4690 2795 c0 -14 2 -25 4 -25 2 0 6 11 8 25 3 14 1 25 -3 25 -5 0
-9 -11 -9 -25z"/>
<path d="M4805 2799 c6 -33 15 -36 15 -6 0 15 -4 27 -9 27 -6 0 -8 -10 -6 -21z"/>
<path d="M4863 2804 c-3 -8 -2 -19 3 -24 5 -5 9 1 9 16 0 28 -3 30 -12 8z"/>
<path d="M4913 2804 c-3 -8 -2 -19 3 -24 5 -5 9 1 9 16 0 28 -3 30 -12 8z"/>
<path d="M4980 2795 c0 -14 2 -25 4 -25 2 0 6 11 8 25 3 14 1 25 -3 25 -5 0
-9 -11 -9 -25z"/>
<path d="M5082 2795 c0 -16 2 -22 5 -12 2 9 2 23 0 30 -3 6 -5 -1 -5 -18z"/>
<path d="M5124 2811 c3 -5 -1 -11 -9 -15 -8 -3 -15 -11 -14 -18 0 -10 2 -10 6
0 2 6 11 12 19 12 8 0 14 7 14 15 0 8 -5 15 -11 15 -5 0 -8 -4 -5 -9z"/>
<path d="M5160 2795 c0 -14 2 -25 4 -25 2 0 6 11 8 25 3 14 1 25 -3 25 -5 0
-9 -11 -9 -25z"/>
<path d="M5227 2813 c-9 -9 -9 -43 1 -43 4 0 7 11 7 25 0 14 0 25 -1 25 0 0
-4 -3 -7 -7z"/>
<path d="M5273 2804 c-3 -8 0 -21 7 -27 10 -9 11 -9 6 1 -5 8 0 12 13 12 23 0
28 15 9 26 -7 4 -8 3 -4 -4 4 -7 1 -12 -9 -12 -9 0 -13 5 -10 10 3 6 4 10 0
10 -3 0 -8 -7 -12 -16z"/>
<path d="M5427 2813 c-11 -10 -8 -43 4 -43 5 0 8 4 4 9 -3 5 3 12 12 14 17 4
17 5 0 6 -10 0 -15 6 -12 11 7 11 2 13 -8 3z"/>
<path d="M5550 2783 c0 -20 3 -34 6 -30 9 9 11 67 2 67 -4 0 -8 -16 -8 -37z"/>
<path d="M5585 2795 c0 -13 3 -21 8 -18 4 2 7 10 7 18 0 8 -3 16 -7 18 -5 3
-8 -5 -8 -18z"/>
<path d="M5670 2795 c0 -14 2 -25 4 -25 2 0 6 11 8 25 3 14 1 25 -3 25 -5 0
-9 -11 -9 -25z"/>
<path d="M5711 2795 c0 -16 3 -25 7 -19 4 6 14 14 22 17 12 4 12 6 -2 6 -9 1
-19 7 -21 14 -3 6 -6 -1 -6 -18z"/>
<path d="M4500 2791 c0 -6 4 -13 10 -16 6 -3 7 1 4 9 -7 18 -14 21 -14 7z"/>
<path d="M5496 2787 c3 -10 9 -15 12 -12 3 3 0 11 -7 18 -10 9 -11 8 -5 -6z"/>
<path d="M5616 2791 c-4 -5 3 -7 14 -4 23 6 26 13 6 13 -8 0 -17 -4 -20 -9z"/>
<path d="M5886 2787 c3 -10 9 -15 12 -12 3 3 0 11 -7 18 -10 9 -11 8 -5 -6z"/>
<path d="M330 2700 c0 -35 3 -40 23 -39 16 1 18 2 5 6 -12 3 -18 14 -18 33 0
19 6 30 18 33 13 4 11 5 -5 6 -20 1 -23 -4 -23 -39z"/>
<path d="M391 2698 c0 -24 3 -36 6 -28 3 8 11 18 17 22 8 5 7 8 -1 8 -7 0 -13
6 -13 14 0 8 6 17 13 19 7 3 5 6 -5 6 -15 1 -18 -7 -17 -41z"/>
<path d="M468 2733 c6 -2 18 -2 25 0 6 3 1 5 -13 5 -14 0 -19 -2 -12 -5z"/>
<path d="M270 2719 c0 -5 5 -7 10 -4 6 3 10 8 10 11 0 2 -4 4 -10 4 -5 0 -10
-5 -10 -11z"/>
<path d="M431 2714 c0 -11 3 -14 6 -6 3 7 2 16 -1 19 -3 4 -6 -2 -5 -13z"/>
<path d="M290 2701 c0 -7 -6 -11 -14 -8 -14 6 -32 -21 -21 -31 3 -3 5 0 5 7 0
9 9 12 25 9 27 -6 30 -1 15 22 -7 12 -10 12 -10 1z"/>
<path d="M468 2663 c6 -2 18 -2 25 0 6 3 1 5 -13 5 -14 0 -19 -2 -12 -5z"/>
<path d="M4596 2031 c-4 -5 -2 -12 3 -15 5 -4 12 -2 15 3 4 5 2 12 -3 15 -5 4
-12 2 -15 -3z"/>
<path d="M4220 1975 l0 -55 33 0 c45 0 56 11 54 50 -3 49 -13 60 -53 60 l-34
0 0 -55z m60 25 c0 -5 -7 -10 -15 -10 -8 0 -15 5 -15 10 0 6 7 10 15 10 8 0
15 -4 15 -10z m8 -47 c2 -8 -5 -13 -17 -13 -12 0 -21 6 -21 16 0 18 31 15 38
-3z"/>
<path d="M4330 1980 c-16 -30 4 -60 40 -60 17 0 30 5 30 11 0 6 -8 8 -19 4
-11 -3 -22 -1 -26 5 -4 6 4 10 19 10 27 0 30 7 20 34 -9 23 -51 20 -64 -4z
m45 -10 c-3 -5 -10 -10 -16 -10 -5 0 -9 5 -9 10 0 6 7 10 16 10 8 0 12 -4 9
-10z"/>
<path d="M4416 1985 c-3 -9 3 -20 14 -27 23 -15 27 -33 5 -24 -8 3 -15 1 -15
-4 0 -14 47 -12 56 2 4 6 -3 19 -16 30 -17 14 -19 18 -6 18 9 0 16 5 16 10 0
16 -47 12 -54 -5z"/>
<path d="M4500 1986 c-6 -8 -10 -25 -8 -38 4 -32 62 -39 78 -9 23 44 -38 85
-70 47z m50 -26 c0 -11 -6 -20 -14 -20 -18 0 -29 16 -21 30 11 18 35 11 35
-10z"/>
<path d="M4590 1960 c0 -29 4 -40 15 -40 11 0 15 11 15 40 0 29 -4 40 -15 40
-11 0 -15 -11 -15 -40z"/>
<path d="M4640 1958 c0 -21 5 -38 10 -38 6 0 10 14 10 30 0 20 5 30 15 30 10
0 15 -10 15 -30 0 -20 5 -30 15 -30 10 0 15 10 15 28 0 40 -12 52 -48 49 -30
-2 -32 -4 -32 -39z"/>
<path d="M4736 1985 c-3 -9 3 -20 14 -27 23 -15 27 -33 5 -24 -8 3 -15 1 -15
-4 0 -14 47 -12 56 2 4 6 -3 19 -16 30 -17 14 -19 18 -6 18 9 0 16 5 16 10 0
16 -47 12 -54 -5z"/>
<path d="M5020 1681 c0 -5 -9 -11 -20 -14 -11 -3 -23 -12 -26 -21 -7 -17 12
-46 29 -46 6 0 2 6 -8 14 -12 8 -16 19 -12 30 9 24 30 15 38 -15 6 -19 7 -15
8 19 1 23 -1 42 -4 42 -3 0 -5 -4 -5 -9z"/>
<path d="M4565 1660 c-3 -6 1 -7 9 -4 18 7 21 14 7 14 -6 0 -13 -4 -16 -10z"/>
<path d="M4640 1666 c0 -2 7 -7 16 -10 8 -3 12 -2 9 4 -6 10 -25 14 -25 6z"/>
<path d="M4700 1655 c-17 -21 -8 -50 18 -53 12 -2 22 1 22 6 0 6 -9 8 -21 5
-17 -5 -20 -2 -17 18 2 16 9 24 20 23 10 -1 15 2 12 7 -8 13 -20 11 -34 -6z"/>
<path d="M4795 1660 c3 -5 8 -10 11 -10 2 0 4 5 4 10 0 6 -5 10 -11 10 -5 0
-7 -4 -4 -10z"/>
<path d="M4839 1654 c-16 -19 -1 -48 27 -51 13 -2 11 1 -6 8 l-25 12 25 7 c25
8 25 8 2 9 -14 1 -20 5 -17 12 4 6 14 8 22 5 8 -3 11 -1 8 4 -9 14 -21 12 -36
-6z"/>
<path d="M5049 1654 c-16 -19 -1 -48 27 -51 13 -2 11 1 -6 9 l-25 12 28 4 c29
4 33 12 15 30 -16 16 -23 15 -39 -4z m36 -4 c3 -5 -3 -10 -15 -10 -12 0 -18 5
-15 10 3 6 10 10 15 10 5 0 12 -4 15 -10z"/>
<path d="M4600 1635 c0 -29 -24 -34 -40 -7 -7 10 -10 11 -7 3 2 -8 12 -19 23
-25 10 -6 22 -15 26 -21 4 -5 8 9 8 33 0 23 -2 42 -5 42 -3 0 -5 -11 -5 -25z"/>
<path d="M4760 1630 c0 -16 2 -30 4 -30 2 0 6 14 8 30 3 17 1 30 -4 30 -4 0
-8 -13 -8 -30z"/>
<path d="M4900 1630 c0 -16 2 -30 4 -30 2 0 6 14 8 30 3 17 1 30 -4 30 -4 0
-8 -13 -8 -30z"/>
<path d="M4648 1633 c7 -3 16 -2 19 1 4 3 -2 6 -13 5 -11 0 -14 -3 -6 -6z"/>
<path d="M4645 1610 c-16 -7 -17 -9 -3 -9 9 -1 20 4 23 9 7 11 7 11 -20 0z"/>
<path d="M4715 1580 c-16 -7 -17 -9 -3 -9 9 -1 20 4 23 9 7 11 7 11 -20 0z"/>
<path d="M6319 1568 c-4 -63 -3 -78 4 -78 4 0 7 20 7 45 0 25 -2 45 -5 45 -3
0 -5 -6 -6 -12z"/>
<path d="M6528 1563 c-2 -10 -1 -31 3 -48 6 -26 7 -23 8 18 1 48 -3 61 -11 30z"/>
<path d="M7030 1533 c0 -24 2 -43 4 -43 8 0 12 60 4 72 -4 8 -8 -4 -8 -29z"/>
<path d="M6855 1550 c-3 -5 1 -10 10 -10 9 0 13 5 10 10 -3 6 -8 10 -10 10 -2
0 -7 -4 -10 -10z"/>
<path d="M6135 1506 c0 -24 3 -42 8 -39 4 2 7 22 7 44 0 21 -3 39 -7 39 -5 0
-8 -20 -8 -44z"/>
<path d="M6205 1519 c0 -16 3 -29 8 -29 4 0 7 11 7 24 0 14 -3 27 -7 29 -5 3
-8 -8 -8 -24z"/>
<path d="M6280 1539 c0 -5 5 -7 10 -4 6 3 10 8 10 11 0 2 -4 4 -10 4 -5 0 -10
-5 -10 -11z"/>
<path d="M6355 1539 c-4 -6 -5 -12 -2 -15 2 -3 7 2 10 11 7 17 1 20 -8 4z"/>
<path d="M6386 1537 c3 -10 9 -15 12 -12 3 3 0 11 -7 18 -10 9 -11 8 -5 -6z"/>
<path d="M6567 1543 c-9 -9 -9 -41 1 -46 4 -3 7 8 7 24 0 16 0 29 -1 29 0 0
-4 -3 -7 -7z"/>
<path d="M6596 1537 c3 -10 9 -15 12 -12 3 3 0 11 -7 18 -10 9 -11 8 -5 -6z"/>
<path d="M6717 1543 c-9 -9 -9 -41 1 -46 4 -3 7 8 7 24 0 16 0 29 -1 29 0 0
-4 -3 -7 -7z"/>
<path d="M6782 1520 c0 -19 2 -27 5 -17 2 9 2 25 0 35 -3 9 -5 1 -5 -18z"/>
<path d="M6925 1519 c0 -16 3 -29 8 -29 4 0 7 11 7 24 0 14 -3 27 -7 29 -5 3
-8 -8 -8 -24z"/>
<path d="M6960 1520 c0 -16 2 -30 4 -30 2 0 6 14 8 30 3 17 1 30 -4 30 -4 0
-8 -13 -8 -30z"/>
<path d="M6998 1520 c2 -16 6 -30 8 -30 2 0 4 14 4 30 0 17 -4 30 -8 30 -5 0
-7 -13 -4 -30z"/>
<path d="M7070 1540 c0 -5 9 -19 20 -30 11 -11 20 -15 20 -10 0 6 -9 19 -20
30 -11 11 -20 16 -20 10z"/>
<path d="M6171 1504 c0 -11 3 -14 6 -6 3 7 2 16 -1 19 -3 4 -6 -2 -5 -13z"/>
<path d="M6490 1511 c0 -6 4 -13 10 -16 6 -3 7 1 4 9 -7 18 -14 21 -14 7z"/>
<path d="M6653 1505 c0 -8 4 -15 9 -15 4 0 8 4 8 9 0 6 -4 12 -8 15 -5 3 -9
-1 -9 -9z"/>
<path d="M6891 1504 c0 -11 3 -14 6 -6 3 7 2 16 -1 19 -3 4 -6 -2 -5 -13z"/>
<path d="M6100 1500 c0 -5 5 -10 11 -10 5 0 7 5 4 10 -3 6 -8 10 -11 10 -2 0
-4 -4 -4 -10z"/>
<path d="M4543 1425 c0 -27 2 -38 4 -22 2 15 2 37 0 50 -2 12 -4 0 -4 -28z"/>
<path d="M4610 1446 c0 -2 7 -7 16 -10 8 -3 12 -2 9 4 -6 10 -25 14 -25 6z"/>
<path d="M4740 1446 c0 -2 7 -7 16 -10 8 -3 12 -2 9 4 -6 10 -25 14 -25 6z"/>
<path d="M4794 1436 c-11 -28 0 -51 26 -53 22 -1 22 -1 3 4 -29 6 -30 23 -2
23 14 0 19 5 17 17 -4 23 -36 29 -44 9z m36 -6 c0 -5 -7 -10 -15 -10 -8 0 -15
5 -15 10 0 6 7 10 15 10 8 0 15 -4 15 -10z"/>
<path d="M4903 1415 c0 -22 2 -30 4 -17 2 12 2 30 0 40 -3 9 -5 -1 -4 -23z"/>
<path d="M4929 1434 c-16 -19 -1 -48 27 -51 13 -2 11 1 -6 9 l-25 12 28 4 c15
2 27 7 27 11 0 5 -12 6 -27 4 -27 -4 -27 -4 -9 11 11 9 15 16 9 16 -6 0 -16
-7 -24 -16z"/>
<path d="M5028 1438 c7 -7 12 -21 12 -32 0 -10 3 -17 6 -13 10 10 -5 57 -18
57 -9 0 -9 -3 0 -12z"/>
<path d="M5069 1434 c-16 -19 -1 -48 27 -51 15 -2 14 -1 -3 7 -27 11 -30 35
-5 49 9 6 12 11 6 11 -6 0 -17 -7 -25 -16z"/>
<path d="M5129 1434 c-16 -19 -1 -48 27 -51 13 -2 11 1 -6 9 l-25 12 28 4 c29
4 33 12 15 30 -16 16 -23 15 -39 -4z m36 -4 c3 -5 -3 -10 -15 -10 -12 0 -18 5
-15 10 3 6 10 10 15 10 5 0 12 -4 15 -10z"/>
<path d="M4590 1424 c0 -18 4 -20 28 -16 22 5 24 7 7 10 -11 2 -23 9 -27 16
-5 6 -8 3 -8 -10z"/>
<path d="M4665 1416 c0 -14 6 -22 17 -22 12 0 14 4 7 18 -14 26 -24 28 -24 4z"/>
<path d="M4722 1400 c0 -25 2 -39 5 -32 2 6 11 12 18 12 8 0 16 4 19 9 4 5 -3
7 -13 4 -15 -4 -20 1 -24 24 -3 18 -4 13 -5 -17z"/>
<path d="M4990 1415 c0 -14 2 -25 4 -25 2 0 6 11 8 25 3 14 1 25 -3 25 -5 0
-9 -11 -9 -25z"/>
<path d="M4618 1383 c7 -3 16 -2 19 1 4 3 -2 6 -13 5 -11 0 -14 -3 -6 -6z"/>
<path d="M5916 1132 c-3 -5 1 -9 9 -9 8 0 12 4 9 9 -3 4 -7 8 -9 8 -2 0 -6 -4
-9 -8z"/>
<path d="M5121 1088 c-1 -27 3 -48 7 -48 4 0 6 17 4 38 -5 58 -10 62 -11 10z"/>
<path d="M5738 1085 c-2 -25 0 -45 4 -45 5 0 8 20 8 45 0 25 -2 45 -4 45 -2 0
-6 -20 -8 -45z"/>
<path d="M5873 1085 c0 -27 2 -38 4 -22 2 15 2 37 0 50 -2 12 -4 0 -4 -28z"/>
<path d="M5190 1086 c0 -19 3 -37 8 -40 4 -2 6 13 4 35 -5 48 -12 51 -12 5z"/>
<path d="M5085 1071 c0 -16 3 -27 8 -24 4 2 7 15 7 29 0 13 -3 24 -7 24 -5 0
-8 -13 -8 -29z"/>
<path d="M5155 1090 c3 -5 8 -10 11 -10 2 0 4 5 4 10 0 6 -5 10 -11 10 -5 0
-7 -4 -4 -10z"/>
<path d="M5237 1093 c-9 -9 -9 -41 1 -46 4 -3 7 8 7 24 0 16 0 29 -1 29 0 0
-4 -3 -7 -7z"/>
<path d="M5266 1085 c4 -8 8 -15 10 -15 2 0 4 7 4 15 0 8 -4 15 -10 15 -5 0
-7 -7 -4 -15z"/>
<path d="M5300 1070 c0 -16 2 -30 4 -30 2 0 6 14 8 30 3 17 1 30 -4 30 -4 0
-8 -13 -8 -30z"/>
<path d="M5342 1070 c0 -19 2 -27 5 -17 2 9 2 25 0 35 -3 9 -5 1 -5 -18z"/>
<path d="M5372 1070 c0 -19 2 -27 5 -17 2 9 2 25 0 35 -3 9 -5 1 -5 -18z"/>
<path d="M5470 1085 c0 -8 4 -15 10 -15 5 0 7 7 4 15 -4 8 -8 15 -10 15 -2 0
-4 -7 -4 -15z"/>
<path d="M5565 1090 c3 -5 8 -10 11 -10 2 0 4 5 4 10 0 6 -5 10 -11 10 -5 0
-7 -4 -4 -10z"/>
<path d="M5600 1070 c0 -16 2 -30 4 -30 2 0 6 14 8 30 3 17 1 30 -4 30 -4 0
-8 -13 -8 -30z"/>
<path d="M5642 1070 c0 -19 2 -27 5 -17 2 9 2 25 0 35 -3 9 -5 1 -5 -18z"/>
<path d="M5772 1070 c0 -19 2 -27 5 -17 2 9 2 25 0 35 -3 9 -5 1 -5 -18z"/>
<path d="M5800 1055 c0 -27 3 -45 7 -42 7 8 6 77 -2 85 -3 3 -5 -16 -5 -43z"/>
<path d="M5835 1090 c3 -5 8 -10 11 -10 2 0 4 5 4 10 0 6 -5 10 -11 10 -5 0
-7 -4 -4 -10z"/>
<path d="M5900 1089 c0 -5 5 -7 10 -4 6 3 10 8 10 11 0 2 -4 4 -10 4 -5 0 -10
-5 -10 -11z"/>
<path d="M5930 1096 c0 -2 7 -9 15 -16 13 -11 14 -10 9 4 -5 14 -24 23 -24 12z"/>
<path d="M5970 1070 c0 -16 2 -30 4 -30 2 0 6 14 8 30 3 17 1 30 -4 30 -4 0
-8 -13 -8 -30z"/>
<path d="M6010 1070 c0 -16 2 -30 4 -30 2 0 6 14 8 30 3 17 1 30 -4 30 -4 0
-8 -13 -8 -30z"/>
<path d="M6052 1070 c0 -19 2 -27 5 -17 2 9 2 25 0 35 -3 9 -5 1 -5 -18z"/>
<path d="M6080 1076 c0 -14 3 -27 8 -29 4 -3 7 8 7 24 0 16 -3 29 -7 29 -5 0
-8 -11 -8 -24z"/>
<path d="M6116 1087 c3 -10 9 -15 12 -12 3 3 0 11 -7 18 -10 9 -11 8 -5 -6z"/>
<path d="M5501 1054 c0 -11 3 -14 6 -6 3 7 2 16 -1 19 -3 4 -6 -2 -5 -13z"/>
<path d="M5700 1061 c0 -6 4 -13 10 -16 6 -3 7 1 4 9 -7 18 -14 21 -14 7z"/>
<path d="M5498 668 c-7 -16 2 -77 11 -83 8 -4 5 84 -2 91 -3 3 -7 -1 -9 -8z"/>
<path d="M4394 649 c-4 -8 0 -9 15 -4 11 3 21 2 21 -3 0 -5 -9 -12 -20 -15
-20 -5 -27 -31 -12 -41 5 -3 18 -2 30 1 22 5 28 27 16 57 -7 18 -39 21 -50 5z
m36 -39 c0 -5 -7 -10 -16 -10 -8 0 -12 5 -9 10 3 6 10 10 16 10 5 0 9 -4 9
-10z"/>
<path d="M4472 648 c-27 -27 1 -73 36 -61 21 8 13 21 -9 16 -17 -5 -20 -2 -17
18 2 17 8 23 22 21 11 -2 15 1 11 7 -8 14 -28 14 -43 -1z"/>
<path d="M4547 654 c-24 -25 8 -78 41 -67 20 7 14 20 -9 19 -25 -1 -33 12 -20
33 8 13 12 13 27 0 15 -12 17 -12 12 1 -5 16 -39 25 -51 14z"/>
<path d="M4621 641 c-13 -23 -6 -47 16 -55 23 -9 44 14 41 43 -4 33 -42 41
-57 12z m43 -7 c8 -20 -1 -34 -20 -34 -8 0 -14 8 -14 18 0 33 23 44 34 16z"/>
<path d="M4701 621 l1 -36 7 30 c8 37 25 36 30 -2 l4 -28 6 29 c8 41 31 46 31
7 0 -17 5 -31 11 -31 6 0 9 14 7 33 -3 31 -4 32 -50 33 l-48 0 1 -35z"/>
<path d="M4815 652 c-9 -10 -5 -92 5 -92 6 0 10 7 10 16 0 10 6 14 14 11 20
-8 38 17 34 45 -2 17 -10 23 -30 24 -15 1 -30 -1 -33 -4z m50 -28 c0 -10 -8
-20 -17 -22 -18 -3 -26 27 -11 42 12 11 28 0 28 -20z"/>
<path d="M4904 649 c-4 -8 0 -9 15 -4 12 4 21 2 21 -4 0 -6 -6 -11 -14 -11
-23 0 -38 -26 -23 -38 21 -17 57 -3 57 22 0 37 -39 62 -56 35z m36 -39 c0 -5
-7 -10 -15 -10 -8 0 -15 5 -15 10 0 6 7 10 15 10 8 0 15 -4 15 -10z"/>
<path d="M4974 636 c-7 -31 1 -46 27 -46 10 0 19 -5 19 -11 0 -6 -9 -9 -20 -6
-11 3 -20 1 -20 -5 0 -5 12 -8 28 -6 25 3 27 7 30 51 3 46 3 47 -27 47 -24 0
-32 -5 -37 -24z m44 -14 c2 -15 -2 -22 -12 -22 -11 0 -16 9 -16 26 0 31 23 28
28 -4z"/>
<path d="M5061 621 c1 -35 2 -35 8 -7 9 41 31 46 31 7 0 -17 5 -31 11 -31 6 0
9 14 7 33 -3 27 -7 32 -30 33 -26 1 -28 -2 -27 -35z"/>
<path d="M5140 645 c-22 -26 13 -77 41 -59 17 10 9 22 -11 17 -11 -3 -20 0
-20 6 0 6 11 11 25 11 27 0 32 9 13 28 -16 16 -33 15 -48 -3z m40 -5 c0 -5 -7
-10 -16 -10 -8 0 -12 5 -9 10 3 6 10 10 16 10 5 0 9 -4 9 -10z"/>
<path d="M5216 652 c-10 -9 -7 -62 3 -62 5 0 11 11 13 25 4 34 22 33 27 -2 l4
-28 6 30 c8 38 24 38 32 -1 6 -28 7 -28 8 7 1 36 1 36 -43 37 -25 0 -47 -2
-50 -6z"/>
<path d="M5337 653 c-25 -24 8 -77 41 -66 20 8 14 22 -8 16 -11 -3 -20 0 -20
6 0 6 11 11 25 11 23 0 24 2 15 20 -10 19 -40 27 -53 13z m38 -13 c3 -5 -1
-10 -9 -10 -9 0 -16 5 -16 10 0 6 4 10 9 10 6 0 13 -4 16 -10z"/>
<path d="M5410 626 c0 -20 5 -36 10 -36 6 0 10 14 10 31 0 39 22 34 32 -7 6
-27 6 -27 5 6 -2 30 -6 35 -29 38 -26 3 -28 1 -28 -32z"/>
<path d="M6200 641 c0 -5 -12 -12 -26 -15 -20 -5 -25 -12 -22 -34 2 -22 8 -27
31 -28 25 -1 27 1 27 42 0 24 -2 44 -5 44 -3 0 -5 -4 -5 -9z m-3 -37 c8 -21
-13 -42 -28 -27 -13 13 -5 43 11 43 6 0 13 -7 17 -16z"/>
<path d="M6874 636 c-3 -8 -4 -29 -2 -47 3 -32 3 -31 14 14 9 43 1 67 -12 33z"/>
<path d="M7423 605 c0 -27 2 -38 4 -22 2 15 2 37 0 50 -2 12 -4 0 -4 -28z"/>
<path d="M6598 627 c-7 -20 6 -60 22 -65 13 -4 13 -3 2 11 -8 9 -11 25 -7 36
6 21 -10 39 -17 18z"/>
<path d="M5892 621 c-23 -14 -10 -56 18 -58 l25 -3 -25 12 -25 11 23 5 c15 2
22 9 20 19 -4 20 -19 26 -36 14z m23 -11 c3 -5 -1 -10 -10 -10 -9 0 -13 5 -10
10 3 6 8 10 10 10 2 0 7 -4 10 -10z"/>
<path d="M5989 592 c5 -34 6 -35 9 -8 2 16 0 32 -5 37 -5 5 -7 -7 -4 -29z"/>
<path d="M6030 615 c-18 -22 -8 -50 20 -52 25 -3 25 -3 3 7 -36 15 -28 48 10
41 5 -1 6 3 2 9 -9 14 -20 13 -35 -5z"/>
<path d="M6094 619 c-4 -7 -3 -9 4 -5 6 3 13 2 16 -3 3 -5 -4 -11 -15 -14 -26
-7 -20 -32 7 -32 14 0 19 7 19 29 0 31 -18 45 -31 25z m26 -39 c0 -5 -4 -10
-10 -10 -5 0 -10 5 -10 10 0 6 5 10 10 10 6 0 10 -4 10 -10z"/>
<path d="M6280 615 c-18 -22 -8 -50 20 -52 l25 -3 -25 12 -25 12 28 4 c29 4
33 12 15 30 -16 16 -23 15 -38 -3z m25 -5 c3 -5 -1 -10 -10 -10 -9 0 -13 5
-10 10 3 6 8 10 10 10 2 0 7 -4 10 -10z"/>
<path d="M6358 622 c-13 -2 -18 -12 -17 -35 2 -29 2 -30 6 -5 6 39 33 45 33 7
0 -18 4 -28 10 -24 6 3 10 15 10 25 0 33 19 32 29 -2 l10 -33 -2 35 c-2 31 -5
35 -32 35 -16 1 -38 0 -47 -3z"/>
<path d="M6459 614 c-16 -19 -1 -48 27 -51 13 -2 11 1 -6 9 l-25 12 28 4 c29
4 33 12 15 30 -16 16 -23 15 -39 -4z m36 -4 c3 -5 -1 -10 -10 -10 -9 0 -13 5
-10 10 3 6 8 10 10 10 2 0 7 -4 10 -10z"/>
<path d="M6538 623 c-13 -3 -18 -14 -17 -36 1 -22 3 -25 6 -10 2 12 11 27 18
33 16 13 18 10 29 -35 2 -11 4 -5 3 14 -2 36 -9 42 -39 34z"/>
<path d="M6693 623 c-8 -3 -13 -22 -12 -51 1 -26 3 -40 6 -31 2 10 13 19 24
22 12 3 19 14 19 30 0 25 -15 37 -37 30z m24 -37 c-4 -9 -11 -16 -17 -16 -11
0 -14 33 -3 44 11 10 26 -11 20 -28z"/>
<path d="M6799 614 c-16 -20 0 -49 27 -49 35 0 28 64 -7 65 -4 0 -12 -7 -20
-16z m41 -25 c0 -20 -24 -26 -35 -9 -8 13 14 42 26 34 5 -3 9 -14 9 -25z"/>
<path d="M6919 614 c-17 -21 0 -48 32 -51 23 -1 23 -1 2 4 -28 6 -30 23 -3 23
23 0 26 10 8 28 -16 16 -23 15 -39 -4z m36 -4 c3 -5 -1 -10 -10 -10 -9 0 -13
5 -10 10 3 6 8 10 10 10 2 0 7 -4 10 -10z"/>
<path d="M6984 618 c-4 -6 0 -16 9 -23 22 -16 21 -22 0 -28 -14 -4 -12 -5 5
-6 22 -1 31 22 12 34 -5 3 -10 11 -10 16 0 6 5 7 12 3 7 -4 8 -3 4 4 -9 15
-23 15 -32 0z"/>
<path d="M7044 618 c-4 -6 0 -16 9 -23 22 -16 21 -22 0 -28 -16 -4 -16 -5 -1
-6 26 -2 33 20 12 36 -16 12 -17 15 -4 23 9 6 10 10 3 10 -6 0 -15 -5 -19 -12z"/>
<path d="M7130 615 c-25 -30 15 -70 45 -45 19 16 19 25 -1 44 -19 20 -28 20
-44 1z m40 -26 c0 -10 -7 -19 -15 -19 -15 0 -21 31 -9 43 11 10 24 -3 24 -24z"/>
<path d="M7218 623 c-13 -3 -18 -14 -17 -36 2 -29 2 -30 6 -5 6 40 31 43 42 5
7 -24 9 -26 10 -10 1 25 -8 53 -18 52 -3 -1 -14 -3 -23 -6z"/>
<path d="M7293 623 c-7 -2 -12 -19 -12 -36 l1 -32 7 29 c3 17 11 30 16 30 6 0
13 -13 17 -30 6 -28 6 -28 5 5 -2 35 -11 44 -34 34z"/>
<path d="M7361 620 c-7 -4 -11 -18 -9 -31 2 -17 10 -25 28 -26 l25 -3 -25 12
c-25 11 -25 11 -2 15 24 5 30 28 9 36 -8 3 -19 2 -26 -3z m24 -10 c3 -5 -1
-10 -10 -10 -9 0 -13 5 -10 10 3 6 8 10 10 10 2 0 7 -4 10 -10z"/>
<path d="M5950 590 c0 -16 2 -30 4 -30 2 0 6 14 8 30 3 17 1 30 -4 30 -4 0 -8
-13 -8 -30z"/>
<path d="M6231 588 c2 -28 2 -29 6 -8 3 14 10 28 17 32 7 5 5 8 -6 8 -14 0
-18 -8 -17 -32z"/>
<path d="M6751 588 c2 -28 2 -29 6 -8 3 14 10 28 17 32 7 5 5 8 -6 8 -14 0
-18 -8 -17 -32z"/>
<path d="M7102 590 c0 -19 2 -27 5 -17 2 9 2 25 0 35 -3 9 -5 1 -5 -18z"/>
</g>
</svg>
