<?xml version="1.0" standalone="no"?>
<!DOCTYPE svg PUBLIC "-//W3C//DTD SVG 20010904//EN"
 "http://www.w3.org/TR/2001/REC-SVG-20010904/DTD/svg10.dtd">
<svg version="1.0" xmlns="http://www.w3.org/2000/svg"
 width="348.000000pt" height="131.000000pt" viewBox="0 0 348.000000 131.000000"
 preserveAspectRatio="xMidYMid meet">

<g transform="translate(0.000000,131.000000) scale(0.100000,-0.100000)"
fill="#000000" stroke="none">
<path d="M268 1131 l-33 -29 0 -447 0 -447 33 -29 32 -29 1440 0 1440 0 32 29
33 29 0 447 0 447 -33 29 -32 29 -1440 0 -1440 0 -32 -29z m536 -157 c14 -13
16 -56 16 -319 0 -263 -2 -306 -16 -319 -13 -13 -42 -16 -160 -16 -81 0 -154
5 -165 10 -18 10 -19 24 -19 323 0 230 3 316 12 325 8 8 59 12 164 12 125 0
155 -3 168 -16z m308 -74 c32 -97 33 -100 14 -100 -8 0 -18 13 -24 28 -13 39
-62 38 -75 -1 -10 -30 -42 -39 -33 -9 3 9 15 49 27 87 26 85 25 84 46 81 11
-2 26 -29 45 -86z m388 77 c0 -8 -3 -17 -7 -20 -9 -9 -34 13 -27 24 8 14 34
11 34 -4z m80 -82 c0 -78 -3 -95 -15 -95 -12 0 -15 17 -15 95 0 78 3 95 15 95
12 0 15 -17 15 -95z m230 60 c0 -32 2 -35 19 -25 28 14 38 13 61 -10 24 -24
26 -67 5 -98 -13 -18 -25 -21 -65 -21 l-50 2 0 93 c0 77 3 94 15 94 11 0 15
-11 15 -35z m170 -60 c0 -78 -3 -95 -15 -95 -12 0 -15 17 -15 95 0 78 3 95 15
95 12 0 15 -17 15 -95z m810 60 c0 -32 2 -35 19 -25 25 13 27 13 45 -6 22 -21
23 -124 2 -124 -11 0 -16 15 -18 53 -3 44 -6 52 -23 52 -17 0 -20 -8 -23 -52
-2 -38 -7 -53 -18 -53 -11 0 -14 19 -14 95 0 78 3 95 15 95 11 0 15 -11 15
-35z m-106 -10 c3 -8 12 -15 21 -15 8 0 15 -4 15 -10 0 -5 -9 -10 -20 -10 -17
0 -20 -7 -20 -40 0 -27 5 -43 15 -46 22 -9 18 -24 -5 -24 -24 0 -40 28 -40 74
0 19 -6 37 -12 40 -10 5 -10 7 0 12 6 3 12 12 12 20 0 19 26 18 34 -1z m-1289
-19 c12 -9 20 -30 23 -68 l4 -55 -51 -1 c-46 -2 -51 1 -57 23 -8 31 8 52 47
60 36 8 28 25 -12 25 -47 0 -34 23 17 29 5 0 18 -5 29 -13z m313 -2 c18 -12
22 -25 22 -67 l0 -53 -45 -2 c-35 -1 -47 3 -55 18 -15 27 -3 48 36 60 45 15
43 30 -3 30 -36 1 -37 2 -19 15 25 19 36 19 64 -1z m400 0 c12 -8 22 -26 22
-40 0 -21 -4 -24 -40 -24 -29 0 -40 -4 -40 -15 0 -14 37 -29 56 -23 5 2 11 -1
14 -7 9 -18 -66 -18 -84 0 -31 31 -16 104 24 118 23 8 24 8 48 -9z m250 -12
c17 -22 15 -72 -5 -94 -30 -34 -96 -18 -107 26 -18 72 68 124 112 68z m152 8
c25 -25 29 -120 5 -120 -11 0 -15 11 -15 39 0 52 -8 71 -30 71 -22 0 -30 -19
-30 -71 0 -28 -4 -39 -15 -39 -12 0 -15 14 -15 66 0 60 2 66 19 61 10 -2 25
-1 32 4 20 13 27 11 49 -11z m488 4 c12 -8 22 -26 22 -40 0 -22 -4 -24 -45
-24 -43 0 -45 -1 -34 -21 8 -16 18 -20 40 -17 20 3 29 0 29 -9 0 -19 -65 -17
-84 3 -27 26 -24 81 6 107 25 21 37 21 66 1z m-1793 -36 c15 -53 21 -54 35 -3
8 27 18 45 27 45 8 0 13 -6 11 -12 -3 -7 -13 -37 -23 -65 -12 -35 -25 -53 -35
-53 -11 0 -22 18 -34 53 -9 28 -20 58 -23 65 -3 9 1 13 13 10 11 -2 22 -17 29
-40z m295 -23 c0 -51 -3 -65 -15 -65 -12 0 -15 14 -15 65 0 51 3 65 15 65 12
0 15 -14 15 -65z m-323 -162 c4 -9 30 -90 59 -180 l52 -164 -31 3 c-27 3 -32
9 -47 53 l-17 50 -58 0 -58 0 -15 -52 c-13 -48 -17 -53 -43 -53 -16 0 -29 3
-29 6 0 3 25 84 56 180 l55 174 35 0 c23 0 37 -6 41 -17z m970 9 c18 -11 4
-55 -14 -48 -37 15 -61 16 -86 7 -21 -8 -27 -17 -27 -41 0 -26 7 -33 59 -60
69 -34 91 -61 91 -108 0 -68 -44 -102 -130 -102 -64 0 -90 13 -83 40 5 18 10
19 42 13 79 -16 114 0 109 51 -3 27 -11 35 -57 57 -66 31 -91 60 -91 106 0 25
8 43 29 64 26 25 37 29 88 29 32 0 63 -4 70 -8z m133 -62 c0 -27 3 -30 30 -30
23 0 30 -4 30 -20 0 -16 -7 -20 -30 -20 l-30 0 0 -78 c0 -81 9 -102 42 -102
11 0 18 -7 18 -20 0 -16 -7 -20 -37 -20 -21 0 -43 4 -50 8 -21 13 -33 62 -33
138 0 65 -2 74 -18 74 -11 0 -19 7 -19 16 0 9 9 19 19 22 11 2 18 13 18 27 0
22 12 31 48 34 7 1 12 -11 12 -29z m687 -35 c28 -8 51 -44 59 -94 l7 -41 -85
0 c-47 0 -87 -3 -91 -6 -12 -12 24 -64 49 -70 14 -4 43 -4 64 0 35 5 40 4 40
-13 0 -23 -19 -31 -75 -31 -94 0 -139 46 -132 138 4 63 30 102 78 119 33 11
41 11 86 -2z m-1597 -17 l0 -21 23 21 c31 29 95 30 130 2 56 -44 60 -153 7
-210 -23 -25 -36 -30 -73 -30 -28 0 -52 6 -61 16 -15 14 -16 9 -16 -50 l0 -66
-30 0 -30 0 0 180 0 180 25 0 c19 0 25 -5 25 -22z m280 7 c0 -19 9 -19 34 0
11 8 38 15 61 15 33 0 47 -6 69 -29 51 -53 45 -167 -11 -211 -32 -25 -99 -27
-125 -3 -17 15 -18 13 -18 -50 l0 -67 -30 0 -30 0 0 180 0 180 25 0 c16 0 25
-6 25 -15z m909 -1 c70 -49 64 -191 -10 -229 -37 -20 -109 -19 -137 1 -32 22
-52 67 -52 114 0 47 20 92 52 114 30 21 117 21 147 0z m131 -4 c0 -11 3 -20 8
-20 4 0 13 9 20 20 7 11 23 20 37 20 20 0 25 -5 25 -24 0 -18 -7 -25 -28 -29
-38 -8 -52 -42 -52 -132 0 -73 -1 -75 -25 -75 -25 0 -25 0 -25 99 0 54 -3 113
-6 130 -6 28 -4 31 20 31 19 0 26 -5 26 -20z"/>
<path d="M618 923 c12 -2 30 -2 40 0 9 3 -1 5 -23 4 -22 0 -30 -2 -17 -4z"/>
<path d="M480 655 l0 -225 155 0 155 0 0 225 0 225 -155 0 -155 0 0 -225z"/>
<path d="M611 397 c-22 -27 10 -64 45 -50 23 9 14 57 -12 61 -11 2 -26 -3 -33
-11z"/>
<path d="M1053 915 c-11 -33 -10 -35 12 -35 23 0 23 2 13 33 -6 17 -12 33 -13
34 -1 2 -6 -13 -12 -32z"/>
<path d="M1814 885 c-3 -14 -4 -32 0 -40 14 -39 66 -23 66 19 0 47 -55 64 -66
21z"/>
<path d="M1358 863 c-25 -6 -23 -43 1 -43 20 0 37 29 24 40 -4 4 -16 5 -25 3z"/>
<path d="M1664 856 c-15 -11 -16 -17 -7 -27 16 -16 43 -4 43 21 0 24 -9 25
-36 6z"/>
<path d="M2063 913 c-23 -8 -14 -33 12 -33 15 0 25 6 25 14 0 16 -19 25 -37
19z"/>
<path d="M2280 889 c-9 -16 -9 -28 -1 -45 20 -45 65 -19 59 33 -4 36 -41 44
-58 12z"/>
<path d="M2945 904 c-21 -21 -19 -24 15 -24 19 0 30 5 30 14 0 21 -27 27 -45
10z"/>
<path d="M1116 600 c-10 -35 -20 -70 -23 -77 -4 -10 7 -13 41 -13 25 0 46 4
46 8 0 4 -10 39 -23 77 l-23 69 -18 -64z"/>
<path d="M2900 582 c-19 -5 -40 -32 -40 -49 0 -9 16 -13 55 -13 47 0 55 3 55
19 0 28 -39 53 -70 43z"/>
<path d="M1402 557 c-16 -17 -22 -36 -22 -70 0 -113 115 -117 127 -5 5 40 2
50 -20 72 -32 32 -57 33 -85 3z"/>
<path d="M1681 554 c-32 -41 -25 -121 13 -146 41 -28 96 19 96 82 0 46 -32 90
-65 90 -14 0 -32 -11 -44 -26z"/>
<path d="M2436 558 c-23 -33 -21 -113 4 -138 28 -28 64 -25 89 6 32 41 25 121
-13 146 -23 16 -65 8 -80 -14z"/>
</g>
</svg>
