<svg width="274" height="120" viewBox="0 0 274 120" fill="none" xmlns="http://www.w3.org/2000/svg">
<g filter="url(#filter0_d_386_2400)">
<rect x="26" y="26" width="219" height="60" rx="4" fill="white"/>
<path d="M87.4102 50.5664V53.3203H75.7148V50.5664H87.4102ZM83.0508 45.8672V58.2891H80.0859V45.8672H83.0508ZM102.233 53.7773V56.2148H89.9405L89.8116 54.3398L97.042 42.9375H99.5147L96.8428 47.4727L92.9639 53.7773H102.233ZM100.206 42.9375V60H97.1006V42.9375H100.206ZM108.127 52.1484L105.654 51.5508L106.604 42.9375H115.99V45.5039H109.17L108.725 49.4883C108.967 49.3398 109.318 49.1914 109.779 49.043C110.248 48.8867 110.775 48.8086 111.361 48.8086C112.174 48.8086 112.9 48.9414 113.541 49.207C114.182 49.4648 114.725 49.8398 115.17 50.332C115.623 50.8242 115.963 51.4258 116.19 52.1367C116.424 52.8398 116.541 53.6367 116.541 54.5273C116.541 55.3086 116.424 56.043 116.19 56.7305C115.963 57.4102 115.615 58.0156 115.147 58.5469C114.678 59.0703 114.088 59.4844 113.377 59.7891C112.666 60.0859 111.83 60.2344 110.869 60.2344C110.143 60.2344 109.443 60.1289 108.772 59.918C108.108 59.6992 107.51 59.3828 106.979 58.9688C106.447 58.5469 106.022 58.0312 105.701 57.4219C105.389 56.8125 105.217 56.1133 105.186 55.3242H108.244C108.299 55.8477 108.44 56.293 108.666 56.6602C108.893 57.0273 109.19 57.3086 109.557 57.5039C109.932 57.6992 110.365 57.7969 110.858 57.7969C111.303 57.7969 111.686 57.7148 112.006 57.5508C112.334 57.3789 112.604 57.1406 112.815 56.8359C113.025 56.5312 113.182 56.1719 113.283 55.7578C113.385 55.3438 113.436 54.8906 113.436 54.3984C113.436 53.9219 113.377 53.4883 113.26 53.0977C113.143 52.6992 112.963 52.3555 112.721 52.0664C112.479 51.7773 112.174 51.5547 111.807 51.3984C111.447 51.2422 111.025 51.1641 110.541 51.1641C109.893 51.1641 109.393 51.2617 109.041 51.457C108.697 51.6523 108.393 51.8828 108.127 52.1484Z" fill="black"/>
<ellipse cx="55" cy="52.5" rx="15" ry="13.5" fill="#FFB636"/>
<path d="M77.2472 70.4062V75H76.0739V67.3636H77.2074V68.5568H77.3068C77.4858 68.169 77.7576 67.8575 78.1222 67.6222C78.4867 67.3835 78.9574 67.2642 79.5341 67.2642C80.0511 67.2642 80.5036 67.3703 80.8913 67.5824C81.2791 67.7912 81.5807 68.1094 81.7962 68.5369C82.0116 68.9612 82.1193 69.4981 82.1193 70.1477V75H80.946V70.2273C80.946 69.6274 80.7902 69.16 80.4787 68.8253C80.1671 68.4872 79.7396 68.3182 79.196 68.3182C78.8215 68.3182 78.4867 68.3994 78.1918 68.5618C77.9001 68.7242 77.6697 68.9612 77.5007 69.2727C77.3317 69.5843 77.2472 69.9621 77.2472 70.4062ZM88.2056 75.1591C87.5162 75.1591 86.9113 74.995 86.391 74.6669C85.8739 74.3388 85.4696 73.8797 85.1779 73.2898C84.8895 72.6998 84.7454 72.0104 84.7454 71.2216C84.7454 70.4261 84.8895 69.7318 85.1779 69.1385C85.4696 68.5452 85.8739 68.0845 86.391 67.7564C86.9113 67.4283 87.5162 67.2642 88.2056 67.2642C88.895 67.2642 89.4982 67.4283 90.0152 67.7564C90.5356 68.0845 90.94 68.5452 91.2283 69.1385C91.52 69.7318 91.6658 70.4261 91.6658 71.2216C91.6658 72.0104 91.52 72.6998 91.2283 73.2898C90.94 73.8797 90.5356 74.3388 90.0152 74.6669C89.4982 74.995 88.895 75.1591 88.2056 75.1591ZM88.2056 74.1051C88.7293 74.1051 89.1601 73.9709 89.4982 73.7024C89.8363 73.4339 90.0865 73.081 90.2489 72.6435C90.4113 72.206 90.4925 71.732 90.4925 71.2216C90.4925 70.7112 90.4113 70.2356 90.2489 69.7947C90.0865 69.3539 89.8363 68.9976 89.4982 68.7259C89.1601 68.4541 88.7293 68.3182 88.2056 68.3182C87.6819 68.3182 87.251 68.4541 86.913 68.7259C86.5749 68.9976 86.3247 69.3539 86.1623 69.7947C85.9999 70.2356 85.9187 70.7112 85.9187 71.2216C85.9187 71.732 85.9999 72.206 86.1623 72.6435C86.3247 73.081 86.5749 73.4339 86.913 73.7024C87.251 73.9709 87.6819 74.1051 88.2056 74.1051ZM99.1093 71.8778V67.3636H100.283V75H99.1093V73.7074H99.0298C98.8508 74.0952 98.5724 74.425 98.1946 74.6967C97.8167 74.9652 97.3394 75.0994 96.7627 75.0994C96.2855 75.0994 95.8612 74.995 95.49 74.7862C95.1188 74.5741 94.8271 74.2559 94.615 73.8317C94.4029 73.4041 94.2968 72.8655 94.2968 72.2159V67.3636H95.4701V72.1364C95.4701 72.6932 95.6259 73.1373 95.9375 73.4688C96.2523 73.8002 96.6534 73.9659 97.1406 73.9659C97.4322 73.9659 97.7289 73.8913 98.0305 73.7422C98.3354 73.593 98.5906 73.3643 98.7961 73.0561C99.0049 72.7479 99.1093 72.3551 99.1093 71.8778ZM104.445 70.4062V75H103.272V67.3636H104.405V68.5568H104.505C104.684 68.169 104.955 67.8575 105.32 67.6222C105.684 67.3835 106.155 67.2642 106.732 67.2642C107.249 67.2642 107.701 67.3703 108.089 67.5824C108.477 67.7912 108.778 68.1094 108.994 68.5369C109.209 68.9612 109.317 69.4981 109.317 70.1477V75H108.144V70.2273C108.144 69.6274 107.988 69.16 107.676 68.8253C107.365 68.4872 106.937 68.3182 106.394 68.3182C106.019 68.3182 105.684 68.3994 105.389 68.5618C105.098 68.7242 104.867 68.9612 104.698 69.2727C104.529 69.5843 104.445 69.9621 104.445 70.4062ZM115.403 75.1591C114.714 75.1591 114.109 74.995 113.589 74.6669C113.072 74.3388 112.667 73.8797 112.376 73.2898C112.087 72.6998 111.943 72.0104 111.943 71.2216C111.943 70.4261 112.087 69.7318 112.376 69.1385C112.667 68.5452 113.072 68.0845 113.589 67.7564C114.109 67.4283 114.714 67.2642 115.403 67.2642C116.093 67.2642 116.696 67.4283 117.213 67.7564C117.733 68.0845 118.138 68.5452 118.426 69.1385C118.718 69.7318 118.864 70.4261 118.864 71.2216C118.864 72.0104 118.718 72.6998 118.426 73.2898C118.138 73.8797 117.733 74.3388 117.213 74.6669C116.696 74.995 116.093 75.1591 115.403 75.1591ZM115.403 74.1051C115.927 74.1051 116.358 73.9709 116.696 73.7024C117.034 73.4339 117.284 73.081 117.447 72.6435C117.609 72.206 117.69 71.732 117.69 71.2216C117.69 70.7112 117.609 70.2356 117.447 69.7947C117.284 69.3539 117.034 68.9976 116.696 68.7259C116.358 68.4541 115.927 68.3182 115.403 68.3182C114.88 68.3182 114.449 68.4541 114.111 68.7259C113.773 68.9976 113.522 69.3539 113.36 69.7947C113.198 70.2356 113.116 70.7112 113.116 71.2216C113.116 71.732 113.198 72.206 113.36 72.6435C113.522 73.081 113.773 73.4339 114.111 73.7024C114.449 73.9709 114.88 74.1051 115.403 74.1051ZM126.307 71.8778V67.3636H127.48V75H126.307V73.7074H126.228C126.049 74.0952 125.77 74.425 125.392 74.6967C125.014 74.9652 124.537 75.0994 123.96 75.0994C123.483 75.0994 123.059 74.995 122.688 74.7862C122.317 74.5741 122.025 74.2559 121.813 73.8317C121.601 73.4041 121.495 72.8655 121.495 72.2159V67.3636H122.668V72.1364C122.668 72.6932 122.824 73.1373 123.135 73.4688C123.45 73.8002 123.851 73.9659 124.338 73.9659C124.63 73.9659 124.927 73.8913 125.228 73.7422C125.533 73.593 125.788 73.3643 125.994 73.0561C126.203 72.7479 126.307 72.3551 126.307 71.8778ZM135.878 69.0739L134.824 69.3722C134.758 69.1965 134.66 69.0258 134.531 68.8601C134.405 68.6911 134.233 68.5518 134.014 68.4425C133.795 68.3331 133.515 68.2784 133.174 68.2784C132.707 68.2784 132.317 68.3861 132.006 68.6016C131.697 68.8137 131.543 69.0838 131.543 69.4119C131.543 69.7036 131.649 69.9339 131.861 70.103C132.074 70.272 132.405 70.4129 132.856 70.5256L133.989 70.804C134.672 70.9697 135.181 71.2232 135.515 71.5646C135.85 71.9027 136.018 72.3385 136.018 72.8722C136.018 73.3097 135.892 73.7008 135.64 74.0455C135.391 74.3902 135.043 74.6619 134.596 74.8608C134.148 75.0597 133.628 75.1591 133.035 75.1591C132.256 75.1591 131.611 74.9901 131.101 74.652C130.59 74.3139 130.267 73.8201 130.131 73.1705L131.245 72.892C131.351 73.303 131.551 73.6113 131.846 73.8168C132.145 74.0223 132.534 74.125 133.015 74.125C133.562 74.125 133.996 74.009 134.317 73.777C134.642 73.5417 134.805 73.2599 134.805 72.9318C134.805 72.6667 134.712 72.4446 134.526 72.2656C134.341 72.0833 134.056 71.9474 133.671 71.858L132.398 71.5597C131.699 71.3939 131.185 71.1371 130.857 70.7891C130.532 70.4377 130.37 69.9986 130.37 69.4716C130.37 69.0407 130.491 68.6596 130.733 68.3281C130.978 67.9967 131.311 67.7365 131.732 67.5476C132.156 67.3587 132.637 67.2642 133.174 67.2642C133.93 67.2642 134.523 67.4299 134.954 67.7614C135.388 68.0928 135.696 68.5303 135.878 69.0739ZM146.603 75.1591C145.867 75.1591 145.232 74.9967 144.699 74.6719C144.169 74.3438 143.759 73.8864 143.471 73.2997C143.186 72.7098 143.043 72.0237 143.043 71.2415C143.043 70.4593 143.186 69.7699 143.471 69.1733C143.759 68.5734 144.16 68.1061 144.674 67.7713C145.191 67.4332 145.794 67.2642 146.484 67.2642C146.881 67.2642 147.274 67.3305 147.662 67.4631C148.05 67.5956 148.403 67.8111 148.721 68.1094C149.039 68.4044 149.293 68.7955 149.482 69.2827C149.67 69.7699 149.765 70.3698 149.765 71.0824V71.5795H143.879V70.5653H148.572C148.572 70.1345 148.486 69.75 148.313 69.4119C148.144 69.0739 147.902 68.8071 147.587 68.6115C147.276 68.416 146.908 68.3182 146.484 68.3182C146.016 68.3182 145.612 68.4342 145.271 68.6662C144.933 68.8949 144.672 69.1932 144.49 69.5611C144.308 69.929 144.217 70.3234 144.217 70.7443V71.4205C144.217 71.9972 144.316 72.486 144.515 72.8871C144.717 73.2848 144.997 73.5881 145.355 73.7969C145.713 74.0024 146.129 74.1051 146.603 74.1051C146.911 74.1051 147.19 74.062 147.438 73.9759C147.69 73.8864 147.907 73.7538 148.089 73.5781C148.272 73.3991 148.413 73.1771 148.512 72.9119L149.646 73.2301C149.526 73.6146 149.326 73.9527 149.044 74.2443C148.762 74.5327 148.414 74.758 148 74.9205C147.586 75.0795 147.12 75.1591 146.603 75.1591ZM153.563 70.4062V75H152.39V67.3636H153.523V68.5568H153.623C153.802 68.169 154.073 67.8575 154.438 67.6222C154.803 67.3835 155.273 67.2642 155.85 67.2642C156.367 67.2642 156.819 67.3703 157.207 67.5824C157.595 67.7912 157.897 68.1094 158.112 68.5369C158.327 68.9612 158.435 69.4981 158.435 70.1477V75H157.262V70.2273C157.262 69.6274 157.106 69.16 156.795 68.8253C156.483 68.4872 156.055 68.3182 155.512 68.3182C155.137 68.3182 154.803 68.3994 154.508 68.5618C154.216 68.7242 153.986 68.9612 153.817 69.2727C153.648 69.5843 153.563 69.9621 153.563 70.4062ZM164.502 78.0227C163.935 78.0227 163.448 77.9498 163.04 77.804C162.632 77.6615 162.293 77.4725 162.021 77.2372C161.752 77.0052 161.538 76.7566 161.379 76.4915L162.314 75.8352C162.42 75.9744 162.554 76.1335 162.717 76.3125C162.879 76.4948 163.101 76.6522 163.383 76.7848C163.668 76.9207 164.041 76.9886 164.502 76.9886C165.118 76.9886 165.627 76.8395 166.028 76.5412C166.429 76.2429 166.629 75.7756 166.629 75.1392V73.5881H166.53C166.444 73.7273 166.321 73.8996 166.162 74.1051C166.006 74.3073 165.781 74.4879 165.486 74.647C165.194 74.8028 164.8 74.8807 164.303 74.8807C163.686 74.8807 163.133 74.7348 162.642 74.4432C162.155 74.1515 161.769 73.7273 161.484 73.1705C161.202 72.6136 161.061 71.9375 161.061 71.142C161.061 70.3598 161.199 69.6787 161.474 69.0987C161.749 68.5154 162.132 68.0646 162.622 67.7464C163.113 67.425 163.68 67.2642 164.323 67.2642C164.82 67.2642 165.214 67.3471 165.506 67.5128C165.801 67.6752 166.026 67.8608 166.182 68.0696C166.341 68.2751 166.464 68.4441 166.55 68.5767H166.669V67.3636H167.803V75.2188C167.803 75.875 167.654 76.4086 167.355 76.8196C167.06 77.2339 166.663 77.5372 166.162 77.7294C165.665 77.925 165.111 78.0227 164.502 78.0227ZM164.462 73.8267C164.932 73.8267 165.33 73.719 165.655 73.5036C165.98 73.2881 166.227 72.9782 166.396 72.5739C166.565 72.1695 166.649 71.6856 166.649 71.1222C166.649 70.572 166.566 70.0864 166.401 69.6655C166.235 69.2446 165.99 68.9148 165.665 68.6761C165.34 68.4375 164.939 68.3182 164.462 68.3182C163.965 68.3182 163.55 68.4441 163.219 68.696C162.891 68.9479 162.644 69.286 162.478 69.7102C162.316 70.1345 162.235 70.6051 162.235 71.1222C162.235 71.6525 162.317 72.1214 162.483 72.5291C162.652 72.9335 162.901 73.2517 163.229 73.4837C163.56 73.7124 163.971 73.8267 164.462 73.8267ZM173.038 75.179C172.554 75.179 172.115 75.0878 171.72 74.9055C171.326 74.7199 171.012 74.4531 170.78 74.1051C170.548 73.7538 170.432 73.3295 170.432 72.8324C170.432 72.3949 170.519 72.0402 170.691 71.7685C170.863 71.4934 171.094 71.2779 171.382 71.1222C171.67 70.9664 171.989 70.8504 172.337 70.7741C172.688 70.6946 173.041 70.6316 173.396 70.5852C173.86 70.5256 174.236 70.4808 174.524 70.451C174.816 70.4179 175.028 70.3632 175.16 70.2869C175.296 70.2107 175.364 70.0781 175.364 69.8892V69.8494C175.364 69.3589 175.23 68.9777 174.962 68.706C174.696 68.4342 174.294 68.2983 173.753 68.2983C173.193 68.2983 172.754 68.4209 172.436 68.6662C172.118 68.9115 171.894 69.1733 171.765 69.4517L170.651 69.054C170.85 68.59 171.115 68.2287 171.447 67.9702C171.781 67.7083 172.146 67.526 172.54 67.4233C172.938 67.3172 173.329 67.2642 173.714 67.2642C173.959 67.2642 174.241 67.294 174.559 67.3537C174.88 67.41 175.19 67.5277 175.489 67.7067C175.79 67.8857 176.04 68.1558 176.239 68.517C176.438 68.8783 176.538 69.3622 176.538 69.9688V75H175.364V73.9659H175.305C175.225 74.1316 175.093 74.3089 174.907 74.4979C174.721 74.6868 174.474 74.8475 174.166 74.9801C173.858 75.1127 173.482 75.179 173.038 75.179ZM173.217 74.125C173.681 74.125 174.072 74.0339 174.39 73.8516C174.711 73.6693 174.953 73.4339 175.116 73.1456C175.281 72.8572 175.364 72.554 175.364 72.2358V71.1619C175.315 71.2216 175.205 71.2763 175.036 71.326C174.87 71.3724 174.678 71.4138 174.459 71.4503C174.244 71.4834 174.034 71.5133 173.828 71.5398C173.626 71.563 173.462 71.5829 173.336 71.5994C173.031 71.6392 172.746 71.7038 172.481 71.7933C172.219 71.8795 172.007 72.0104 171.844 72.1861C171.685 72.3584 171.606 72.5937 171.606 72.892C171.606 73.2997 171.757 73.608 172.058 73.8168C172.363 74.0223 172.749 74.125 173.217 74.125ZM182.601 78.0227C182.035 78.0227 181.548 77.9498 181.14 77.804C180.732 77.6615 180.392 77.4725 180.121 77.2372C179.852 77.0052 179.638 76.7566 179.479 76.4915L180.414 75.8352C180.52 75.9744 180.654 76.1335 180.817 76.3125C180.979 76.4948 181.201 76.6522 181.483 76.7848C181.768 76.9207 182.141 76.9886 182.601 76.9886C183.218 76.9886 183.727 76.8395 184.128 76.5412C184.529 76.2429 184.729 75.7756 184.729 75.1392V73.5881H184.63C184.544 73.7273 184.421 73.8996 184.262 74.1051C184.106 74.3073 183.881 74.4879 183.586 74.647C183.294 74.8028 182.9 74.8807 182.403 74.8807C181.786 74.8807 181.233 74.7348 180.742 74.4432C180.255 74.1515 179.869 73.7273 179.584 73.1705C179.302 72.6136 179.161 71.9375 179.161 71.142C179.161 70.3598 179.299 69.6787 179.574 69.0987C179.849 68.5154 180.232 68.0646 180.722 67.7464C181.213 67.425 181.78 67.2642 182.423 67.2642C182.92 67.2642 183.314 67.3471 183.606 67.5128C183.901 67.6752 184.126 67.8608 184.282 68.0696C184.441 68.2751 184.564 68.4441 184.65 68.5767H184.769V67.3636H185.903V75.2188C185.903 75.875 185.753 76.4086 185.455 76.8196C185.16 77.2339 184.762 77.5372 184.262 77.7294C183.765 77.925 183.211 78.0227 182.601 78.0227ZM182.562 73.8267C183.032 73.8267 183.43 73.719 183.755 73.5036C184.08 73.2881 184.327 72.9782 184.496 72.5739C184.665 72.1695 184.749 71.6856 184.749 71.1222C184.749 70.572 184.666 70.0864 184.501 69.6655C184.335 69.2446 184.09 68.9148 183.765 68.6761C183.44 68.4375 183.039 68.3182 182.562 68.3182C182.065 68.3182 181.65 68.4441 181.319 68.696C180.991 68.9479 180.744 69.286 180.578 69.7102C180.416 70.1345 180.334 70.6051 180.334 71.1222C180.334 71.6525 180.417 72.1214 180.583 72.5291C180.752 72.9335 181.001 73.2517 181.329 73.4837C181.66 73.7124 182.071 73.8267 182.562 73.8267ZM192.092 75.1591C191.356 75.1591 190.722 74.9967 190.188 74.6719C189.658 74.3438 189.248 73.8864 188.96 73.2997C188.675 72.7098 188.532 72.0237 188.532 71.2415C188.532 70.4593 188.675 69.7699 188.96 69.1733C189.248 68.5734 189.649 68.1061 190.163 67.7713C190.68 67.4332 191.283 67.2642 191.973 67.2642C192.37 67.2642 192.763 67.3305 193.151 67.4631C193.539 67.5956 193.892 67.8111 194.21 68.1094C194.528 68.4044 194.782 68.7955 194.971 69.2827C195.16 69.7699 195.254 70.3698 195.254 71.0824V71.5795H189.368V70.5653H194.061C194.061 70.1345 193.975 69.75 193.802 69.4119C193.633 69.0739 193.391 68.8071 193.076 68.6115C192.765 68.416 192.397 68.3182 191.973 68.3182C191.505 68.3182 191.101 68.4342 190.76 68.6662C190.422 68.8949 190.161 69.1932 189.979 69.5611C189.797 69.929 189.706 70.3234 189.706 70.7443V71.4205C189.706 71.9972 189.805 72.486 190.004 72.8871C190.206 73.2848 190.486 73.5881 190.844 73.7969C191.202 74.0024 191.618 74.1051 192.092 74.1051C192.4 74.1051 192.679 74.062 192.927 73.9759C193.179 73.8864 193.396 73.7538 193.579 73.5781C193.761 73.3991 193.902 73.1771 194.001 72.9119L195.135 73.2301C195.015 73.6146 194.815 73.9527 194.533 74.2443C194.251 74.5327 193.903 74.758 193.489 74.9205C193.075 75.0795 192.609 75.1591 192.092 75.1591ZM191.376 66.3295L192.589 64.0227H193.961L192.41 66.3295H191.376ZM201.08 75.1591C200.345 75.1591 199.71 74.9967 199.176 74.6719C198.646 74.3438 198.237 73.8864 197.948 73.2997C197.663 72.7098 197.521 72.0237 197.521 71.2415C197.521 70.4593 197.663 69.7699 197.948 69.1733C198.237 68.5734 198.638 68.1061 199.152 67.7713C199.669 67.4332 200.272 67.2642 200.961 67.2642C201.359 67.2642 201.752 67.3305 202.139 67.4631C202.527 67.5956 202.88 67.8111 203.198 68.1094C203.517 68.4044 203.77 68.7955 203.959 69.2827C204.148 69.7699 204.242 70.3698 204.242 71.0824V71.5795H198.356V70.5653H203.049C203.049 70.1345 202.963 69.75 202.791 69.4119C202.622 69.0739 202.38 68.8071 202.065 68.6115C201.753 68.416 201.385 68.3182 200.961 68.3182C200.494 68.3182 200.089 68.4342 199.748 68.6662C199.41 68.8949 199.15 69.1932 198.968 69.5611C198.785 69.929 198.694 70.3234 198.694 70.7443V71.4205C198.694 71.9972 198.794 72.486 198.992 72.8871C199.195 73.2848 199.475 73.5881 199.833 73.7969C200.191 74.0024 200.607 74.1051 201.08 74.1051C201.389 74.1051 201.667 74.062 201.916 73.9759C202.168 73.8864 202.385 73.7538 202.567 73.5781C202.749 73.3991 202.89 73.1771 202.99 72.9119L204.123 73.2301C204.004 73.6146 203.803 73.9527 203.522 74.2443C203.24 74.5327 202.892 74.758 202.478 74.9205C202.063 75.0795 201.598 75.1591 201.08 75.1591ZM212.276 69.0739L211.222 69.3722C211.156 69.1965 211.058 69.0258 210.929 68.8601C210.803 68.6911 210.631 68.5518 210.412 68.4425C210.193 68.3331 209.913 68.2784 209.572 68.2784C209.104 68.2784 208.715 68.3861 208.403 68.6016C208.095 68.8137 207.941 69.0838 207.941 69.4119C207.941 69.7036 208.047 69.9339 208.259 70.103C208.471 70.272 208.803 70.4129 209.254 70.5256L210.387 70.804C211.07 70.9697 211.579 71.2232 211.913 71.5646C212.248 71.9027 212.416 72.3385 212.416 72.8722C212.416 73.3097 212.29 73.7008 212.038 74.0455C211.789 74.3902 211.441 74.6619 210.994 74.8608C210.546 75.0597 210.026 75.1591 209.433 75.1591C208.654 75.1591 208.009 74.9901 207.499 74.652C206.988 74.3139 206.665 73.8201 206.529 73.1705L207.643 72.892C207.749 73.303 207.949 73.6113 208.244 73.8168C208.543 74.0223 208.932 74.125 209.413 74.125C209.96 74.125 210.394 74.009 210.715 73.777C211.04 73.5417 211.202 73.2599 211.202 72.9318C211.202 72.6667 211.11 72.4446 210.924 72.2656C210.738 72.0833 210.453 71.9474 210.069 71.858L208.796 71.5597C208.097 71.3939 207.583 71.1371 207.255 70.7891C206.93 70.4377 206.768 69.9986 206.768 69.4716C206.768 69.0407 206.889 68.6596 207.131 68.3281C207.376 67.9967 207.709 67.7365 208.13 67.5476C208.554 67.3587 209.035 67.2642 209.572 67.2642C210.327 67.2642 210.921 67.4299 211.352 67.7614C211.786 68.0928 212.094 68.5303 212.276 69.0739Z" fill="#747474"/>
</g>
<defs>
<filter id="filter0_d_386_2400" x="0" y="0" width="279" height="120" filterUnits="userSpaceOnUse" color-interpolation-filters="sRGB">
<feFlood flood-opacity="0" result="BackgroundImageFix"/>
<feColorMatrix in="SourceAlpha" type="matrix" values="0 0 0 0 0 0 0 0 0 0 0 0 0 0 0 0 0 0 127 0" result="hardAlpha"/>
<feOffset dx="4" dy="4"/>
<feGaussianBlur stdDeviation="15"/>
<feComposite in2="hardAlpha" operator="out"/>
<feColorMatrix type="matrix" values="0 0 0 0 0 0 0 0 0 0 0 0 0 0 0 0 0 0 0.2 0"/>
<feBlend mode="normal" in2="BackgroundImageFix" result="effect1_dropShadow_386_2400"/>
<feBlend mode="normal" in="SourceGraphic" in2="effect1_dropShadow_386_2400" result="shape"/>
</filter>
</defs>
</svg>
