<svg width="1280" height="937" viewBox="0 0 1280 937" fill="none" xmlns="http://www.w3.org/2000/svg">
<g opacity="0.24">
<path d="M53.6003 174.713C45.1648 181.534 31.9767 181.108 24.1441 173.763C16.3114 166.417 16.8002 154.933 25.2358 148.113C33.6713 141.293 46.8594 141.718 54.692 149.064C62.5246 156.409 62.0348 167.894 53.6003 174.713ZM-28.4039 355.81C-35.3154 349.328 -46.952 348.953 -54.3955 354.971C-61.839 360.989 -62.2702 371.122 -55.3587 377.604C-48.4472 384.086 -36.8106 384.461 -29.3672 378.443C-21.9237 372.424 -21.4924 362.291 -28.4039 355.81ZM-233.837 42.2565C-240.748 35.7748 -252.385 35.3993 -259.829 41.4177C-267.272 47.436 -267.703 57.5689 -260.792 64.0506C-253.88 70.5322 -242.244 70.9077 -234.8 64.8894C-227.357 58.871 -226.926 48.7381 -233.837 42.2565Z" fill="#FFB636"/>
<path d="M-229.005 181.704C-238.75 189.583 -253.986 189.092 -263.034 180.606C-272.083 172.121 -271.518 158.853 -261.773 150.974C-252.028 143.095 -236.793 143.587 -227.744 152.073C-218.694 160.558 -219.26 173.824 -229.005 181.704ZM284.683 212.564C285.305 201.612 281.356 190.138 273.563 180.254C269.02 174.486 259.938 173.006 253.3 176.974C246.663 180.941 244.977 188.84 249.533 194.619C253.675 199.872 255.875 205.956 255.572 211.311C255.435 213.711 254.639 218.075 250.838 220.348C247.037 222.62 242.073 221.698 239.452 220.947C233.602 219.269 227.877 215.294 223.733 210.041C206.803 188.574 176.466 181.001 156.101 193.172C135.739 205.344 132.944 232.717 149.872 254.191C149.961 254.303 150.069 254.396 150.161 254.505C158.248 265.029 157.255 276.287 151.218 279.896C147.419 282.167 142.454 281.246 139.833 280.494C133.983 278.816 128.255 274.845 124.114 269.589C107.187 248.121 76.847 240.549 56.4817 252.72C36.1195 264.891 33.325 292.264 50.2531 313.739C50.6673 314.262 51.1163 314.75 51.6002 315.204C56.4346 319.738 64.4821 320.625 70.5166 317.019C77.1517 313.052 78.8384 305.153 74.2833 299.374C65.9122 288.755 66.8769 277.291 72.9773 273.646C79.0799 269.998 91.7161 273.325 100.083 283.953C101.947 286.319 103.991 288.539 106.183 290.596C113.145 297.125 121.616 301.992 130.713 304.601C143.888 308.38 157.374 307.002 167.715 300.821C188.077 288.649 190.872 261.276 173.944 239.802C173.832 239.66 173.707 239.534 173.589 239.397C165.577 228.9 166.578 217.695 172.596 214.097C178.698 210.449 191.334 213.78 199.701 224.404C201.567 226.771 203.609 228.991 205.802 231.047C212.765 237.577 221.234 242.443 230.332 245.052C243.507 248.831 256.993 247.453 267.333 241.272C277.674 235.09 283.998 224.627 284.683 212.564Z" fill="#00B0AE"/>
<path d="M-44.5617 274.113C-54.3065 281.992 -69.5424 281.5 -78.5907 273.015C-87.639 264.529 -87.0743 251.262 -77.3295 243.383C-67.5848 235.504 -52.3489 235.995 -43.3006 244.481C-34.2512 252.966 -34.8159 266.233 -44.5617 274.113ZM-35.1626 -30.0254C-34.8599 -41.3907 -39.2963 -53.1738 -47.6568 -63.2037C-47.7739 -63.344 -47.9055 -63.4692 -48.0271 -63.6042C-55.3982 -72.7653 -55.3315 -83.063 -50.2463 -86.2766C-42.7792 -90.9954 -41.1194 -100.092 -46.5374 -106.594C-51.9569 -113.085 -62.4033 -114.541 -69.8694 -109.823C-91.1642 -96.3654 -93.303 -68.3716 -74.7365 -46.092C-74.6324 -45.9676 -74.5127 -45.8611 -74.4052 -45.7412C-70.5684 -40.9913 -68.4353 -35.5374 -68.5643 -30.7009C-68.6192 -28.6431 -69.1582 -24.907 -72.1471 -23.0172C-75.1337 -21.1291 -79.3802 -21.8427 -81.6444 -22.4355C-87.1036 -23.8656 -92.5455 -27.4555 -96.5743 -32.2923C-104.934 -42.3267 -116.422 -49.6508 -128.925 -52.9233C-142.849 -56.5698 -156.971 -54.7844 -167.664 -48.0277C-188.961 -34.5699 -191.099 -6.57701 -172.534 15.7035C-172.129 16.1883 -171.698 16.6449 -171.241 17.0734C-165.575 22.3874 -156.112 23.3005 -149.203 18.934C-141.735 14.2162 -140.075 5.1193 -145.493 -1.38196C-153.213 -10.6459 -153.207 -21.2188 -148.043 -24.4812C-145.055 -26.3691 -140.809 -25.6565 -138.544 -25.0628C-133.086 -23.6336 -127.642 -20.0418 -123.615 -15.2069C-121.973 -13.2345 -120.209 -11.3691 -118.34 -9.61674C-110.701 -2.45258 -101.311 2.79554 -91.2649 5.42409C-77.3391 9.07154 -63.2189 7.28521 -52.525 0.528465C-41.829 -6.23005 -35.5003 -17.366 -35.1626 -30.0254ZM52.0565 488.303C61.0124 490.229 70.0655 485.467 72.2765 477.666C96.7413 391.359 170.045 383.095 213.841 378.157C219.167 377.557 224.199 376.988 228.548 376.327C237.636 374.944 243.718 367.409 242.13 359.494C240.541 351.58 231.888 346.286 222.799 347.668C219.175 348.219 214.715 348.721 209.549 349.304C164.183 354.421 69.7805 365.065 39.8386 470.694C39.1723 473.039 39.1878 475.492 39.8839 477.831C40.58 480.17 41.9347 482.32 43.8254 484.089C46.0365 486.164 48.8984 487.63 52.0565 488.303Z" fill="#FF6E83"/>
</g>
<g opacity="0.24">
<path d="M391.588 83.7612C398.111 75.094 411.007 72.2996 420.391 77.5197C429.774 82.7398 432.093 93.9978 425.57 102.665C419.046 111.332 406.15 114.127 396.766 108.907C387.383 103.686 385.065 92.4272 391.588 83.7612ZM427.088 -111.841C435.369 -107.235 446.747 -109.701 452.504 -117.348C458.26 -124.996 456.214 -134.93 447.934 -139.536C439.653 -144.142 428.275 -141.677 422.518 -134.029C416.762 -126.381 418.808 -116.447 427.088 -111.841ZM702.608 142.339C710.888 146.945 722.267 144.479 728.023 136.831C733.78 129.183 731.734 119.25 723.453 114.644C715.173 110.037 703.795 112.503 698.038 120.151C692.282 127.799 694.328 137.732 702.608 142.339Z" fill="#FFB636"/>
<path d="M664.009 8.25238C671.545 -1.75998 686.443 -4.98836 697.283 1.04194C708.124 7.07224 710.802 20.0784 703.266 30.0907C695.73 40.1031 680.832 43.3314 669.992 37.3011C659.15 31.2712 656.472 18.2659 664.009 8.25238ZM158.238 103.245C160.298 114.019 166.919 124.189 176.881 131.881C182.691 136.371 191.86 135.597 197.334 130.134C202.806 124.672 202.521 116.6 196.697 112.103C191.402 108.015 187.788 102.649 186.78 97.3809C186.329 95.0198 186.04 90.5924 189.174 87.4638C192.308 84.3353 197.347 84.0223 200.072 84.1142C206.155 84.3184 212.674 86.7819 217.971 90.8694C239.614 107.574 270.881 107.543 287.675 90.7846C304.466 74.0263 300.52 46.7954 278.877 30.0826C278.764 29.9957 278.637 29.9313 278.521 29.8477C268.118 21.607 266.343 10.4449 271.321 5.47697C274.454 2.34953 279.494 2.03544 282.219 2.12741C288.301 2.3327 294.824 4.79161 300.118 8.8825C321.758 25.5892 353.028 25.5557 369.822 8.79769C386.613 -7.96052 382.667 -35.1915 361.024 -51.9042C360.495 -52.3108 359.941 -52.6753 359.361 -52.9978C353.57 -56.2197 345.548 -55.1235 340.572 -50.1578C335.1 -44.6968 335.385 -36.6248 341.209 -32.1265C351.911 -23.8625 353.764 -12.508 348.733 -7.48833C343.7 -2.46642 330.634 -2.62066 319.934 -10.8945C317.551 -12.7355 315.028 -14.3928 312.402 -15.854C304.061 -20.4939 294.661 -23.1551 285.202 -23.4733C271.504 -23.9349 258.758 -19.3187 250.23 -10.8079C233.44 5.95026 237.386 33.1812 259.028 49.894C259.171 50.0036 259.323 50.0962 259.47 50.2003C269.795 58.4337 271.549 69.546 266.587 74.4992C261.555 79.5211 248.488 79.3633 237.789 71.093C235.404 69.2514 232.883 67.5948 230.256 66.1336C221.914 61.493 212.515 58.8324 203.056 58.5142C189.358 58.0526 176.612 62.6688 168.085 71.1796C159.558 79.6904 155.969 91.3774 158.238 103.245Z" fill="#FB87A7"/>
<path d="M462.629 -36.5262C470.166 -46.5386 485.064 -49.7669 495.904 -43.7367C506.744 -37.7063 509.423 -24.7002 501.887 -14.6879C494.351 -4.6755 479.453 -1.44718 468.612 -7.47749C457.771 -13.5067 455.093 -26.5127 462.629 -36.5262ZM527.477 260.767C529.947 271.864 537.116 282.215 547.665 289.91C547.813 290.018 547.971 290.108 548.121 290.209C557.499 297.302 559.939 307.307 555.788 311.661C549.692 318.054 550.295 327.281 557.131 332.27C563.967 337.248 574.454 336.12 580.548 329.728C597.931 311.496 593.197 283.822 569.77 266.727C569.639 266.632 569.497 266.557 569.363 266.467C564.487 262.793 561.091 258.022 560.04 253.299C559.593 251.29 559.207 247.534 561.647 244.975C564.085 242.417 568.377 242.076 570.718 242.101C576.361 242.16 582.512 244.319 587.596 248.031C598.145 255.731 611.069 260.041 623.993 260.175C638.386 260.325 651.649 255.16 660.379 246.005C677.764 227.772 673.029 200.1 649.603 183.003C649.093 182.631 648.564 182.293 648.016 181.988C641.228 178.212 631.826 179.628 626.187 185.543C620.09 191.936 620.693 201.163 627.529 206.152C637.271 213.26 639.835 223.517 635.621 227.937C633.181 230.495 628.889 230.836 626.548 230.811C620.906 230.753 614.752 228.592 609.67 224.882C607.597 223.368 605.433 221.988 603.194 220.742C594.042 215.651 583.657 212.844 573.274 212.738C558.879 212.587 545.617 217.753 536.888 226.908C528.156 236.065 524.726 248.405 527.477 260.767ZM316.822 -220.789C307.667 -220.479 300.043 -213.659 299.796 -205.554C297.055 -115.889 227.961 -90.0457 186.682 -74.6045C181.661 -72.7273 176.919 -70.9525 172.861 -69.253C164.382 -65.702 160.315 -56.914 163.781 -49.623C167.246 -42.3321 176.928 -39.3016 185.407 -42.8525C188.789 -44.2687 192.993 -45.8406 197.862 -47.6624C240.622 -63.6578 329.601 -96.9401 332.956 -206.68C333.032 -209.117 332.42 -211.492 331.176 -213.592C329.932 -215.691 328.095 -217.448 325.831 -218.703C323.182 -220.179 320.049 -220.904 316.822 -220.789Z" fill="#FF6E83"/>
<path d="M403.606 164.636C408.827 157.699 419.147 155.463 426.657 159.64C434.167 163.818 436.023 172.828 430.802 179.764C425.581 186.701 415.261 188.937 407.751 184.759C400.241 180.581 398.385 171.572 403.606 164.636ZM97.8045 24.5029C105.095 28.5586 115.114 26.3867 120.181 19.6539C125.249 12.9211 123.449 4.17447 116.158 0.118746C108.867 -3.93698 98.8486 -1.76508 93.781 4.96771C88.7134 11.7005 90.515 20.4478 97.8045 24.5029ZM615.069 50.7879C611.474 51.698 607.281 52.6339 602.84 53.6244C580.306 58.6546 549.445 65.5407 524.161 84.3719C493.786 106.995 479.581 141.092 481.944 185.719C482.353 193.466 489.817 199.036 498.609 198.166C507.403 197.295 514.199 190.311 513.79 182.566C511.912 147.094 521.706 121.876 543.729 105.474C562.909 91.1902 588.302 85.5226 608.704 80.9685C613.406 79.9186 617.847 78.9281 621.949 77.8903C630.545 75.7136 635.973 67.8828 634.073 60.3998C633.214 56.99 630.905 54.0792 627.61 52.252C625.805 51.2443 623.758 50.5938 621.6 50.3418C619.441 50.0897 617.217 50.2417 615.069 50.7879Z" fill="#00B0AE"/>
</g>
<g opacity="0.24">
<path d="M962.497 22.8328C972.022 28.0248 976.664 40.3761 972.866 50.4201C969.068 60.464 958.268 64.3974 948.743 59.2054C939.218 54.0134 934.576 41.6621 938.374 31.6181C942.172 21.5742 952.974 17.6415 962.497 22.8328ZM1161.18 29.4725C1157.83 38.3352 1161.93 49.2335 1170.33 53.8149C1178.74 58.3963 1188.27 54.9256 1191.62 46.0629C1194.97 37.2001 1190.87 26.3019 1182.47 21.7205C1174.07 17.1391 1164.54 20.6097 1161.18 29.4725ZM949.833 339.068C946.482 347.931 950.578 358.829 958.983 363.41C967.388 367.992 976.917 364.521 980.269 355.658C983.62 346.796 979.524 335.897 971.119 331.316C962.715 326.735 953.185 330.205 949.833 339.068Z" fill="#FFB636"/>
<path d="M1076.87 281.355C1087.87 287.353 1093.24 301.622 1088.85 313.225C1084.46 324.828 1071.98 329.372 1060.98 323.374C1049.98 317.376 1044.61 303.107 1049 291.504C1053.39 279.899 1065.87 275.357 1076.87 281.355ZM909.241 -205.192C898.882 -201.585 889.785 -193.555 883.626 -182.578C880.029 -176.177 882.13 -167.218 888.332 -162.598C894.533 -157.979 902.477 -159.436 906.078 -165.854C909.351 -171.687 914.134 -176.044 919.199 -177.809C921.47 -178.599 925.808 -179.53 929.359 -176.884C932.911 -174.239 933.954 -169.299 934.26 -166.59C934.944 -160.542 933.456 -153.734 930.183 -147.898C916.808 -124.054 921.392 -93.124 940.417 -78.9492C959.442 -64.7776 985.808 -72.6472 999.191 -96.4924C999.261 -96.6174 999.306 -96.7524 999.372 -96.8794C1006.01 -108.372 1016.79 -111.753 1022.43 -107.552C1025.98 -104.907 1027.03 -99.9667 1027.33 -97.2575C1028.02 -91.2103 1026.53 -84.3991 1023.26 -78.5655C1009.88 -54.7235 1014.47 -23.7913 1033.49 -9.61644C1052.52 4.55513 1078.88 -3.31446 1092.27 -27.1597C1092.59 -27.7422 1092.87 -28.3437 1093.11 -28.9641C1095.45 -35.1634 1093.2 -42.94 1087.56 -47.1402C1081.36 -51.7579 1073.42 -50.3006 1069.81 -43.8838C1063.2 -32.0923 1052.23 -28.6065 1046.53 -32.8526C1040.83 -37.1001 1039.08 -50.0493 1045.71 -61.84C1047.18 -64.4665 1048.46 -67.2031 1049.52 -70.0146C1052.9 -78.9423 1054.16 -88.6297 1053.1 -98.0339C1051.56 -111.654 1045.14 -123.591 1035.47 -130.788C1016.45 -144.96 990.084 -137.09 976.701 -113.245C976.613 -113.088 976.543 -112.924 976.462 -112.763C969.82 -101.35 959.081 -97.9965 953.458 -102.184C947.757 -106.432 946.011 -119.382 952.635 -131.171C954.109 -133.799 955.381 -136.535 956.444 -139.346C959.821 -148.275 961.084 -157.961 960.022 -167.365C958.484 -180.985 952.061 -192.923 942.399 -200.12C932.737 -207.317 920.652 -209.166 909.241 -205.192Z" fill="#00B0AE"/>
<path d="M1091.85 75.6017C1102.85 81.5995 1108.21 95.8687 1103.83 107.471C1099.44 119.074 1086.96 123.618 1075.96 117.621C1064.95 111.623 1059.59 97.3537 1063.98 85.7508C1068.37 74.1473 1080.84 69.6032 1091.85 75.6017ZM807.166 183.048C796.546 187.109 787.35 195.708 781.272 207.265C781.187 207.427 781.122 207.596 781.043 207.76C775.391 218.071 765.848 221.941 760.936 218.469C753.724 213.369 744.683 215.309 740.743 222.799C736.813 230.286 739.456 240.497 746.667 245.596C767.236 260.138 793.926 251.426 807.428 225.759C807.503 225.615 807.556 225.464 807.625 225.318C810.55 219.959 814.776 215.905 819.296 214.177C821.218 213.442 824.877 212.514 827.765 214.554C830.651 216.594 831.613 220.791 831.929 223.11C832.692 228.702 831.452 235.102 828.52 240.672C822.438 252.23 820.056 265.644 821.805 278.449C823.752 292.711 830.795 305.081 841.123 312.384C861.693 326.929 888.381 318.215 901.884 292.549C902.178 291.99 902.435 291.418 902.657 290.832C905.404 283.565 902.635 274.471 895.961 269.753C888.749 264.652 879.708 266.591 875.768 274.081C870.154 284.754 860.38 288.785 855.393 285.259C852.507 283.218 851.544 279.022 851.228 276.701C850.465 271.111 851.706 264.708 854.636 259.14C855.832 256.869 856.883 254.527 857.789 252.131C861.493 242.335 862.758 231.652 861.351 221.363C859.405 207.1 852.362 194.732 842.034 187.428C831.703 180.124 818.995 178.527 807.166 183.048ZM1252.91 -95.483C1251.27 -104.496 1243.42 -111.045 1235.36 -110.109C1146.25 -99.7644 1110.62 -164.358 1089.34 -202.949C1086.75 -207.643 1084.3 -212.077 1082.03 -215.844C1077.28 -223.715 1068 -226.459 1061.29 -221.969C1054.58 -217.478 1052.99 -207.459 1057.74 -199.587C1059.63 -196.448 1061.8 -192.517 1064.31 -187.966C1086.36 -147.991 1132.25 -64.806 1241.3 -77.467C1243.73 -77.7467 1245.99 -78.6977 1247.88 -80.2341C1249.78 -81.7705 1251.25 -83.8437 1252.16 -86.2663C1253.24 -89.1025 1253.5 -92.3071 1252.91 -95.483Z" fill="#FF6E83"/>
<path d="M884.235 46.4999C891.858 50.6552 895.573 60.5395 892.533 68.578C889.494 76.6165 880.85 79.7642 873.227 75.6089C865.605 71.4536 861.889 61.5693 864.929 53.5308C867.969 45.4923 876.612 42.3446 884.235 46.4999ZM978.344 -276.448C975.394 -268.644 979.001 -259.049 986.4 -255.015C993.799 -250.982 1002.19 -254.037 1005.14 -261.841C1008.09 -269.644 1004.48 -279.24 997.085 -283.273C989.687 -287.306 981.295 -284.25 978.344 -276.448ZM1027.66 239.131C1026.24 235.707 1024.7 231.695 1023.07 227.445C1014.82 205.884 1003.51 176.355 981.197 154.082C954.393 127.325 918.591 118.237 874.783 127.073C867.178 128.606 862.755 136.801 864.895 145.373C867.038 153.946 874.937 159.653 882.54 158.121C917.36 151.098 943.735 157.115 963.17 176.515C980.094 193.41 989.399 217.707 996.875 237.228C998.599 241.728 1000.23 245.977 1001.85 249.884C1005.25 258.071 1013.79 262.301 1020.92 259.332C1024.17 257.985 1026.71 255.277 1028.04 251.751C1028.77 249.819 1029.12 247.699 1029.05 245.527C1028.99 243.354 1028.51 241.176 1027.66 239.131Z" fill="#00B0AE"/>
</g>
<g opacity="0.24">
<path d="M1427.3 519.785C1420.58 528.302 1407.62 530.801 1398.36 525.368C1389.1 519.936 1387.04 508.628 1393.76 500.112C1400.48 491.595 1413.43 489.096 1422.7 494.529C1431.96 499.961 1434.02 511.27 1427.3 519.785ZM1387.35 714.527C1379.17 709.733 1367.74 711.939 1361.81 719.454C1355.88 726.968 1357.7 736.946 1365.88 741.74C1374.05 746.534 1385.48 744.328 1391.41 736.813C1397.34 729.299 1395.52 719.321 1387.35 714.527ZM1117.7 454.13C1109.52 449.337 1098.09 451.542 1092.16 459.057C1086.23 466.571 1088.05 476.549 1096.22 481.343C1104.4 486.137 1115.83 483.931 1121.76 476.417C1127.69 468.902 1125.87 458.924 1117.7 454.13Z" fill="#FFB636"/>
<path d="M1153.23 589.062C1145.47 598.9 1130.5 601.788 1119.8 595.512C1109.1 589.236 1106.72 576.172 1114.48 566.334C1122.24 556.496 1137.21 553.609 1147.91 559.884C1158.61 566.16 1160.99 579.223 1153.23 589.062ZM1661.03 505.628C1659.22 494.81 1652.83 484.492 1643.05 476.575C1637.34 471.953 1628.16 472.518 1622.56 477.854C1616.97 483.19 1617.07 491.267 1622.79 495.895C1627.99 500.103 1631.48 505.55 1632.37 510.84C1632.76 513.211 1632.95 517.644 1629.75 520.7C1626.54 523.756 1621.5 523.954 1618.77 523.8C1612.7 523.457 1606.24 520.846 1601.03 516.638C1579.78 499.444 1548.52 498.763 1531.35 515.134C1514.18 531.505 1517.5 558.818 1538.76 576.02C1538.87 576.11 1538.99 576.177 1539.11 576.263C1549.32 584.739 1550.84 595.939 1545.75 600.792C1542.55 603.847 1537.5 604.046 1534.78 603.892C1528.7 603.548 1522.24 600.941 1517.04 596.731C1495.79 579.535 1464.52 578.855 1447.35 595.226C1430.18 611.597 1433.51 638.911 1454.76 656.113C1455.28 656.531 1455.83 656.908 1456.4 657.244C1462.12 660.597 1470.16 659.684 1475.25 654.833C1480.84 649.498 1480.74 641.422 1475.02 636.792C1464.51 628.286 1462.92 616.892 1468.06 611.989C1473.21 607.083 1486.27 607.535 1496.78 616.051C1499.12 617.945 1501.6 619.66 1504.19 621.181C1512.43 626.009 1521.76 628.884 1531.21 629.418C1544.9 630.192 1557.74 625.868 1566.46 617.554C1583.63 601.183 1580.31 573.869 1559.05 556.667C1558.91 556.554 1558.76 556.458 1558.62 556.351C1548.48 547.884 1546.98 536.734 1552.06 531.896C1557.2 526.99 1570.26 527.446 1580.77 535.958C1583.11 537.853 1585.59 539.567 1588.19 541.088C1596.42 545.917 1605.76 548.792 1615.21 549.325C1628.89 550.099 1641.74 545.775 1650.46 537.461C1659.18 529.147 1663.03 517.545 1661.03 505.628Z" fill="#00B0AE"/>
<path d="M1353.53 638.421C1345.77 648.259 1330.8 651.147 1320.1 644.871C1309.4 638.595 1307.02 625.531 1314.78 615.694C1322.55 605.856 1337.51 602.968 1348.21 609.244C1358.92 615.519 1361.3 628.582 1353.53 638.421ZM1295.48 339.727C1293.27 328.576 1286.34 318.065 1275.96 310.13C1275.82 310.02 1275.66 309.926 1275.51 309.822C1266.3 302.516 1264.09 292.458 1268.34 288.2C1274.58 281.948 1274.19 272.709 1267.47 267.566C1260.75 262.433 1250.24 263.322 1244 269.573C1226.2 287.404 1230.31 315.179 1253.34 332.804C1253.47 332.902 1253.61 332.98 1253.74 333.073C1258.53 336.857 1261.81 341.705 1262.76 346.45C1263.16 348.469 1263.46 352.232 1260.96 354.736C1258.47 357.237 1254.17 357.48 1251.83 357.402C1246.19 357.214 1240.09 354.915 1235.09 351.089C1224.72 343.15 1211.9 338.546 1198.98 338.118C1184.59 337.639 1171.21 342.501 1162.28 351.454C1144.48 369.286 1148.58 397.059 1171.62 414.686C1172.12 415.069 1172.64 415.419 1173.18 415.736C1179.88 419.666 1189.31 418.465 1195.08 412.68C1201.32 406.428 1200.93 397.189 1194.21 392.046C1184.63 384.718 1182.3 374.405 1186.62 370.082C1189.12 367.58 1193.41 367.337 1195.75 367.415C1201.39 367.603 1207.5 369.903 1212.49 373.728C1214.53 375.289 1216.66 376.718 1218.87 378.014C1227.91 383.313 1238.22 386.356 1248.6 386.699C1262.99 387.179 1276.37 382.316 1285.3 373.363C1294.24 364.407 1297.95 352.148 1295.48 339.727ZM1495.1 825.962C1504.26 825.861 1512.04 819.216 1512.47 811.119C1517.26 721.539 1586.92 697.279 1628.54 682.783C1633.6 681.021 1638.38 679.354 1642.48 677.748C1651.04 674.391 1655.3 665.698 1652.01 658.33C1648.71 650.962 1639.1 647.712 1630.54 651.068C1627.13 652.407 1622.89 653.882 1617.98 655.593C1574.86 670.609 1485.15 701.853 1479.29 811.488C1479.16 813.923 1479.72 816.312 1480.91 818.439C1482.11 820.566 1483.91 822.364 1486.14 823.671C1488.76 825.206 1491.87 826.003 1495.1 825.962Z" fill="#FF6E83"/>
<path d="M1417.13 438.658C1411.75 445.474 1401.38 447.474 1393.97 443.126C1386.56 438.778 1384.91 429.729 1390.29 422.913C1395.66 416.097 1406.03 414.097 1413.44 418.445C1420.86 422.793 1422.51 431.842 1417.13 438.658ZM1719.66 585.728C1712.46 581.507 1702.39 583.45 1697.17 590.065C1691.95 596.681 1693.55 605.466 1700.75 609.687C1707.95 613.908 1718.01 611.965 1723.23 605.35C1728.45 598.734 1726.85 589.948 1719.66 585.728ZM1203.13 547.654C1206.74 546.826 1210.95 545.986 1215.42 545.097C1238.06 540.582 1269.07 534.401 1294.78 516.152C1325.66 494.227 1340.64 460.463 1339.29 415.793C1339.06 408.039 1331.72 402.301 1322.92 402.969C1314.1 403.64 1307.15 410.467 1307.38 418.22C1308.45 453.725 1298.08 478.713 1275.69 494.609C1256.19 508.451 1230.68 513.538 1210.18 517.626C1205.45 518.568 1200.99 519.457 1196.86 520.401C1188.22 522.382 1182.62 530.086 1184.35 537.611C1185.13 541.039 1187.37 544.002 1190.62 545.904C1192.4 546.953 1194.43 547.65 1196.59 547.951C1198.74 548.252 1200.96 548.151 1203.13 547.654Z" fill="#00B0AE"/>
</g>
</svg>
