<svg width="193" height="346" viewBox="0 0 193 346" fill="none" xmlns="http://www.w3.org/2000/svg">
<path d="M48.7321 164.364C44.7508 168.067 38.5265 167.836 34.8298 163.847C31.1331 159.859 31.3638 153.624 35.3451 149.92C39.3263 146.217 45.5506 146.448 49.2473 150.437C52.944 154.425 52.7128 160.661 48.7321 164.364ZM10.0291 262.693C6.76718 259.174 1.27513 258.97 -2.23792 262.238C-5.75098 265.505 -5.9545 271.007 -2.69254 274.527C0.569421 278.046 6.06146 278.25 9.57452 274.982C13.0876 271.714 13.2911 266.212 10.0291 262.693ZM-86.9277 92.4437C-90.1896 88.9244 -95.6817 88.7205 -99.1947 91.9883C-102.708 95.2561 -102.911 100.758 -99.6493 104.277C-96.3874 107.797 -90.8953 108 -87.3823 104.733C-83.8692 101.465 -83.6657 95.9631 -86.9277 92.4437Z" fill="#FFB636"/>
<path d="M-84.6474 168.159C-89.2466 172.437 -96.4374 172.17 -100.708 167.563C-104.978 162.956 -104.712 155.752 -100.113 151.474C-95.5134 147.196 -88.3227 147.463 -84.0522 152.07C-79.7808 156.678 -80.0477 163.881 -84.6474 168.159ZM157.794 184.915C158.088 178.969 156.224 172.739 152.546 167.372C150.402 164.24 146.116 163.437 142.983 165.591C139.851 167.745 139.055 172.034 141.205 175.172C143.16 178.024 144.198 181.327 144.055 184.235C143.99 185.538 143.615 187.908 141.821 189.142C140.027 190.375 137.684 189.875 136.447 189.467C133.686 188.556 130.984 186.398 129.028 183.545C121.038 171.89 106.72 167.778 97.1085 174.386C87.4983 180.995 86.1794 195.857 94.1689 207.517C94.2108 207.578 94.2616 207.629 94.3051 207.688C98.1218 213.402 97.6532 219.515 94.8041 221.474C93.0107 222.707 90.6674 222.207 89.4306 221.799C86.6698 220.888 83.966 218.732 82.0118 215.878C74.0228 204.222 59.7035 200.11 50.0919 206.718C40.4817 213.327 39.1628 228.19 47.1522 239.85C47.3477 240.134 47.5596 240.399 47.788 240.645C50.0696 243.107 53.8678 243.589 56.7158 241.631C59.8474 239.477 60.6434 235.188 58.4936 232.05C54.5427 226.284 54.998 220.06 57.8772 218.08C60.7574 216.1 66.7212 217.907 70.6699 223.677C71.55 224.962 72.5144 226.167 73.5491 227.284C76.835 230.829 80.8328 233.472 85.1265 234.888C91.3445 236.94 97.7094 236.192 102.59 232.836C112.2 226.227 113.519 211.364 105.53 199.704C105.477 199.628 105.418 199.559 105.362 199.485C101.581 193.785 102.053 187.701 104.893 185.747C107.774 183.767 113.737 185.576 117.686 191.344C118.567 192.629 119.531 193.834 120.565 194.951C123.852 198.496 127.849 201.139 132.143 202.555C138.361 204.607 144.726 203.859 149.606 200.503C154.487 197.146 157.471 191.465 157.794 184.915Z" fill="#00B0AE"/>
<path d="M2.40311 218.334C-2.19607 222.612 -9.38683 222.345 -13.6573 217.738C-17.9277 213.13 -17.6612 205.927 -13.0621 201.649C-8.46289 197.371 -1.27212 197.638 2.99834 202.245C7.26931 206.852 7.0028 214.056 2.40311 218.334ZM6.83917 53.197C6.98202 47.026 4.88822 40.6282 0.942392 35.1823C0.887084 35.1061 0.825008 35.0381 0.767606 34.9648C-2.71129 29.9907 -2.6798 24.3993 -0.279788 22.6544C3.24442 20.0923 4.02779 15.153 1.47068 11.623C-1.08712 8.09847 -6.01744 7.30775 -9.54113 9.86941C-19.5915 17.1766 -20.6009 32.3763 -11.8383 44.4734C-11.7891 44.5409 -11.7326 44.5988 -11.6819 44.6639C-9.87105 47.2429 -8.86429 50.2042 -8.92518 52.8302C-8.95111 53.9476 -9.20551 55.9762 -10.6161 57.0023C-12.0257 58.0274 -14.0299 57.64 -15.0985 57.3181C-17.675 56.5416 -20.2434 54.5924 -22.1449 51.9662C-26.0901 46.5178 -31.5122 42.5411 -37.413 40.7642C-43.985 38.7843 -50.6497 39.7537 -55.6968 43.4224C-65.7481 50.7295 -66.757 65.9287 -57.9949 78.0263C-57.8039 78.2896 -57.6006 78.5375 -57.385 78.7701C-54.7106 81.6555 -50.2444 82.1513 -46.9836 79.7804C-43.4589 77.2188 -42.6755 72.2795 -45.2326 68.7495C-48.8764 63.7194 -48.8732 57.9787 -46.4364 56.2074C-45.0258 55.1823 -43.0221 55.5692 -41.953 55.8916C-39.377 56.6675 -36.8076 58.6178 -34.9071 61.243C-34.132 62.3139 -33.2996 63.3268 -32.4177 64.2783C-28.8122 68.1682 -24.3803 71.0177 -19.639 72.4449C-13.0666 74.4254 -6.40237 73.4555 -1.35526 69.7868C3.69287 66.1171 6.67977 60.0707 6.83917 53.197ZM48.0034 334.633C52.2302 335.678 56.5029 333.093 57.5464 328.857C69.0929 281.995 103.69 277.508 124.36 274.827C126.873 274.501 129.248 274.192 131.301 273.833C135.59 273.083 138.46 268.991 137.711 264.694C136.961 260.396 132.877 257.522 128.588 258.272C126.877 258.572 124.772 258.844 122.334 259.161C100.923 261.939 56.3684 267.718 42.2369 325.071C41.9224 326.345 41.9298 327.677 42.2583 328.947C42.5869 330.216 43.2262 331.384 44.1185 332.344C45.1621 333.471 46.5128 334.267 48.0034 334.633Z" fill="#FF6E83"/>
<path d="M52.5125 120.183C49.3262 123.147 44.3451 122.962 41.3865 119.77C38.4279 116.578 38.6125 111.588 41.7989 108.624C44.9852 105.66 49.9663 105.845 52.9249 109.037C55.8835 112.229 55.6989 117.219 52.5125 120.183ZM176.422 234.366C173.55 231.267 168.714 231.088 165.622 233.965C162.529 236.842 162.349 241.686 165.221 244.785C168.094 247.883 172.929 248.063 176.022 245.186C179.115 242.309 179.294 237.464 176.422 234.366ZM-57.3609 152.22C-55.611 152.215 -53.5838 152.276 -51.4371 152.341C-40.5438 152.667 -25.6256 153.115 -11.8891 146.536C4.61297 138.632 15.0292 122.55 19.0699 98.7346C19.7718 94.6004 16.9941 90.6815 12.8694 89.9785C8.74357 89.2763 4.83074 92.057 4.12887 96.1901C0.917225 115.12 -6.46063 127.108 -18.4255 132.838C-28.8452 137.829 -41.1205 137.46 -50.983 137.165C-53.2563 137.097 -55.403 137.032 -57.3999 137.037C-61.5848 137.049 -64.9684 140.456 -64.9576 144.648C-64.9557 146.557 -64.2328 148.395 -62.9342 149.793C-62.2236 150.562 -61.3613 151.174 -60.4019 151.592C-59.4425 152.01 -58.407 152.224 -57.3609 152.22Z" fill="#00B0AE"/>
</svg>
