<svg width="236" height="221" viewBox="0 0 236 221" fill="none" xmlns="http://www.w3.org/2000/svg">
<path d="M201.319 214.274C198.421 216.315 192.859 221.58 189.594 220.793C185.186 219.73 188.998 215.402 191.424 212.615C196.196 207.136 206.34 200.978 209.194 195.109C156.015 207.232 106.6 203.191 67.5005 182.496C28.6107 161.912 -2.8826 125.318 0.306757 77.8965C1.86773 54.6862 10.7322 30.0845 30.9395 8.93196C32.6734 7.1169 40.8763 -2.09781 42.7047 1.22213C43.658 2.95279 33.0214 14.7238 31.4182 17.0001C23.0824 28.8334 17.2005 40.7141 13.7293 53.2095C1.90196 95.7863 20.8039 133.34 49.4302 156.756C68.3935 172.267 93.1657 183.11 120.339 188.284C134.365 190.954 149.398 192.355 164.853 191.573C177.887 190.914 199.204 190.289 212.502 183.513C205.367 177.09 188.472 178.83 179.914 173.685C175.38 170.959 174.773 164.609 182.96 162.956C189.598 161.616 197.982 166.466 203.315 168.16C209.266 170.049 215.053 172.126 220.599 174.577C224.668 176.375 234.795 178.431 235.356 182.997C236.349 191.071 208.622 208.872 201.319 214.274C204.366 212.02 198.289 216.408 201.319 214.274Z" fill="#FFB636"/>
</svg>
