<svg width="279" height="120" viewBox="0 0 279 120" fill="none" xmlns="http://www.w3.org/2000/svg">
<g filter="url(#filter0_d_386_2341)">
<rect x="26" y="26" width="219" height="60" rx="4" fill="white"/>
<path d="M87.4102 50.5664V53.3203H75.7148V50.5664H87.4102ZM83.0508 45.8672V58.2891H80.0859V45.8672H83.0508ZM101.847 42.9375V44.625L95.1436 60H91.8741L98.5772 45.375H89.9053V42.9375H101.847ZM116.354 50.0039V52.875C116.354 54.1875 116.221 55.3086 115.955 56.2383C115.69 57.168 115.307 57.9297 114.807 58.5234C114.307 59.1094 113.709 59.543 113.014 59.8242C112.318 60.0977 111.545 60.2344 110.693 60.2344C110.014 60.2344 109.381 60.1484 108.795 59.9766C108.209 59.7969 107.682 59.5234 107.213 59.1562C106.752 58.7812 106.354 58.3047 106.018 57.7266C105.69 57.1484 105.436 56.457 105.256 55.6523C105.084 54.8477 104.998 53.9219 104.998 52.875V50.0039C104.998 48.6914 105.131 47.5742 105.397 46.6523C105.67 45.7305 106.057 44.9766 106.557 44.3906C107.057 43.8047 107.654 43.3789 108.35 43.1133C109.045 42.8398 109.818 42.7031 110.67 42.7031C111.358 42.7031 111.99 42.7891 112.568 42.9609C113.154 43.1328 113.678 43.4023 114.139 43.7695C114.608 44.1289 115.006 44.5977 115.334 45.1758C115.662 45.7461 115.912 46.4336 116.084 47.2383C116.264 48.0352 116.354 48.957 116.354 50.0039ZM113.26 53.2969V49.5703C113.26 48.9141 113.221 48.3438 113.143 47.8594C113.072 47.3672 112.967 46.9492 112.826 46.6055C112.686 46.2617 112.51 45.9844 112.299 45.7734C112.088 45.5547 111.846 45.3945 111.572 45.293C111.299 45.1914 110.998 45.1406 110.67 45.1406C110.264 45.1406 109.9 45.2227 109.58 45.3867C109.26 45.543 108.99 45.793 108.772 46.1367C108.553 46.4805 108.385 46.9375 108.268 47.5078C108.158 48.0703 108.104 48.7578 108.104 49.5703V53.2969C108.104 53.9531 108.139 54.5273 108.209 55.0195C108.287 55.5117 108.397 55.9336 108.537 56.2852C108.686 56.6367 108.861 56.9258 109.065 57.1523C109.275 57.3711 109.518 57.5352 109.791 57.6445C110.065 57.7461 110.365 57.7969 110.693 57.7969C111.108 57.7969 111.471 57.7148 111.783 57.5508C112.104 57.3867 112.373 57.1289 112.592 56.7773C112.811 56.418 112.975 55.9531 113.084 55.3828C113.201 54.8047 113.26 54.1094 113.26 53.2969Z" fill="black"/>
<ellipse cx="55" cy="52.5" rx="15" ry="13.5" fill="#00B0AE"/>
<path d="M79.4744 67.3636V68.358H75.358V67.3636H79.4744ZM76.5909 75V66.3097C76.5909 65.8722 76.6937 65.5076 76.8991 65.2159C77.1046 64.9242 77.3714 64.7055 77.6996 64.5597C78.0277 64.4138 78.3741 64.3409 78.7386 64.3409C79.027 64.3409 79.2623 64.3641 79.4446 64.4105C79.6269 64.4569 79.7628 64.5 79.8523 64.5398L79.5142 65.554C79.4545 65.5341 79.3717 65.5092 79.2656 65.4794C79.1629 65.4496 79.027 65.4347 78.858 65.4347C78.4702 65.4347 78.1901 65.5324 78.0178 65.728C77.8487 65.9235 77.7642 66.2102 77.7642 66.5881V75H76.5909ZM83.9872 75.179C83.5033 75.179 83.0641 75.0878 82.6697 74.9055C82.2753 74.7199 81.9621 74.4531 81.7301 74.1051C81.4981 73.7538 81.3821 73.3295 81.3821 72.8324C81.3821 72.3949 81.4683 72.0402 81.6406 71.7685C81.813 71.4934 82.0433 71.2779 82.3317 71.1222C82.62 70.9664 82.9382 70.8504 83.2862 70.7741C83.6375 70.6946 83.9905 70.6316 84.3451 70.5852C84.8092 70.5256 85.1853 70.4808 85.4737 70.451C85.7654 70.4179 85.9775 70.3632 86.1101 70.2869C86.246 70.2107 86.3139 70.0781 86.3139 69.8892V69.8494C86.3139 69.3589 86.1797 68.9777 85.9112 68.706C85.646 68.4342 85.2434 68.2983 84.7031 68.2983C84.143 68.2983 83.7038 68.4209 83.3856 68.6662C83.0675 68.9115 82.8437 69.1733 82.7145 69.4517L81.6008 69.054C81.7997 68.59 82.0648 68.2287 82.3963 67.9702C82.731 67.7083 83.0956 67.526 83.49 67.4233C83.8878 67.3172 84.2789 67.2642 84.6633 67.2642C84.9086 67.2642 85.1903 67.294 85.5085 67.3537C85.83 67.41 86.1399 67.5277 86.4382 67.7067C86.7398 67.8857 86.99 68.1558 87.1889 68.517C87.3878 68.8783 87.4872 69.3622 87.4872 69.9688V75H86.3139V73.9659H86.2542C86.1747 74.1316 86.0421 74.3089 85.8565 74.4979C85.6709 74.6868 85.424 74.8475 85.1157 74.9801C84.8075 75.1127 84.4313 75.179 83.9872 75.179ZM84.1662 74.125C84.6302 74.125 85.0213 74.0339 85.3395 73.8516C85.661 73.6693 85.9029 73.4339 86.0653 73.1456C86.231 72.8572 86.3139 72.554 86.3139 72.2358V71.1619C86.2642 71.2216 86.1548 71.2763 85.9858 71.326C85.8201 71.3724 85.6278 71.4138 85.4091 71.4503C85.1936 71.4834 84.9832 71.5133 84.7777 71.5398C84.5755 71.563 84.4114 71.5829 84.2855 71.5994C83.9806 71.6392 83.6955 71.7038 83.4304 71.7933C83.1685 71.8795 82.9564 72.0104 82.794 72.1861C82.6349 72.3584 82.5554 72.5937 82.5554 72.892C82.5554 73.2997 82.7062 73.608 83.0078 73.8168C83.3127 74.0223 83.6988 74.125 84.1662 74.125ZM90.4687 75V67.3636H91.6022V68.5568H91.7017C91.8608 68.1491 92.1176 67.8326 92.4723 67.6072C92.8269 67.3786 93.2528 67.2642 93.75 67.2642C94.2537 67.2642 94.673 67.3786 95.0078 67.6072C95.3458 67.8326 95.6093 68.1491 95.7983 68.5568H95.8778C96.0733 68.1624 96.3667 67.8492 96.7578 67.6172C97.1489 67.3819 97.6179 67.2642 98.1647 67.2642C98.8475 67.2642 99.406 67.478 99.8402 67.9055C100.274 68.3298 100.491 68.991 100.491 69.8892V75H99.3181V69.8892C99.3181 69.3258 99.164 68.9231 98.8558 68.6811C98.5475 68.4392 98.1846 68.3182 97.767 68.3182C97.2301 68.3182 96.8141 68.4806 96.5191 68.8054C96.2242 69.1269 96.0767 69.5346 96.0767 70.0284V75H94.8835V69.7699C94.8835 69.3357 94.7426 68.986 94.4609 68.7209C94.1792 68.4524 93.8162 68.3182 93.3721 68.3182C93.0672 68.3182 92.7822 68.3994 92.517 68.5618C92.2552 68.7242 92.043 68.9496 91.8806 69.2379C91.7215 69.523 91.642 69.8527 91.642 70.2273V75H90.4687ZM103.477 75V67.3636H104.65V75H103.477ZM104.073 66.0909C103.845 66.0909 103.647 66.013 103.482 65.8572C103.319 65.7015 103.238 65.5142 103.238 65.2955C103.238 65.0767 103.319 64.8894 103.482 64.7337C103.647 64.5779 103.845 64.5 104.073 64.5C104.302 64.5 104.498 64.5779 104.66 64.7337C104.826 64.8894 104.908 65.0767 104.908 65.2955C104.908 65.5142 104.826 65.7015 104.66 65.8572C104.498 66.013 104.302 66.0909 104.073 66.0909ZM108.812 64.8182V75H107.639V64.8182H108.812ZM112.975 64.8182V75H111.801V64.8182H112.975ZM119.165 75.1591C118.429 75.1591 117.795 74.9967 117.261 74.6719C116.731 74.3438 116.321 73.8864 116.033 73.2997C115.748 72.7098 115.606 72.0237 115.606 71.2415C115.606 70.4593 115.748 69.7699 116.033 69.1733C116.321 68.5734 116.722 68.1061 117.236 67.7713C117.753 67.4332 118.356 67.2642 119.046 67.2642C119.444 67.2642 119.836 67.3305 120.224 67.4631C120.612 67.5956 120.965 67.8111 121.283 68.1094C121.601 68.4044 121.855 68.7955 122.044 69.2827C122.233 69.7699 122.327 70.3698 122.327 71.0824V71.5795H116.441V70.5653H121.134C121.134 70.1345 121.048 69.75 120.875 69.4119C120.706 69.0739 120.464 68.8071 120.15 68.6115C119.838 68.416 119.47 68.3182 119.046 68.3182C118.579 68.3182 118.174 68.4342 117.833 68.6662C117.495 68.8949 117.235 69.1932 117.052 69.5611C116.87 69.929 116.779 70.3234 116.779 70.7443V71.4205C116.779 71.9972 116.878 72.486 117.077 72.8871C117.279 73.2848 117.559 73.5881 117.917 73.7969C118.275 74.0024 118.691 74.1051 119.165 74.1051C119.473 74.1051 119.752 74.062 120 73.9759C120.252 73.8864 120.469 73.7538 120.652 73.5781C120.834 73.3991 120.975 73.1771 121.074 72.9119L122.208 73.2301C122.088 73.6146 121.888 73.9527 121.606 74.2443C121.325 74.5327 120.976 74.758 120.562 74.9205C120.148 75.0795 119.682 75.1591 119.165 75.1591ZM130.361 69.0739L129.307 69.3722C129.241 69.1965 129.143 69.0258 129.014 68.8601C128.888 68.6911 128.715 68.5518 128.497 68.4425C128.278 68.3331 127.998 68.2784 127.656 68.2784C127.189 68.2784 126.8 68.3861 126.488 68.6016C126.18 68.8137 126.026 69.0838 126.026 69.4119C126.026 69.7036 126.132 69.9339 126.344 70.103C126.556 70.272 126.888 70.4129 127.338 70.5256L128.472 70.804C129.155 70.9697 129.663 71.2232 129.998 71.5646C130.333 71.9027 130.5 72.3385 130.5 72.8722C130.5 73.3097 130.374 73.7008 130.122 74.0455C129.874 74.3902 129.526 74.6619 129.078 74.8608C128.631 75.0597 128.111 75.1591 127.517 75.1591C126.738 75.1591 126.094 74.9901 125.583 74.652C125.073 74.3139 124.75 73.8201 124.614 73.1705L125.727 72.892C125.834 73.303 126.034 73.6113 126.329 73.8168C126.627 74.0223 127.017 74.125 127.497 74.125C128.044 74.125 128.478 74.009 128.8 73.777C129.125 73.5417 129.287 73.2599 129.287 72.9318C129.287 72.6667 129.194 72.4446 129.009 72.2656C128.823 72.0833 128.538 71.9474 128.154 71.858L126.881 71.5597C126.182 71.3939 125.668 71.1371 125.34 70.7891C125.015 70.4377 124.852 69.9986 124.852 69.4716C124.852 69.0407 124.973 68.6596 125.215 68.3281C125.461 67.9967 125.794 67.7365 126.215 67.5476C126.639 67.3587 127.12 67.2642 127.656 67.2642C128.412 67.2642 129.005 67.4299 129.436 67.7614C129.87 68.0928 130.179 68.5303 130.361 69.0739ZM143.293 69.0739L142.239 69.3722C142.173 69.1965 142.075 69.0258 141.946 68.8601C141.82 68.6911 141.647 68.5518 141.429 68.4425C141.21 68.3331 140.93 68.2784 140.588 68.2784C140.121 68.2784 139.732 68.3861 139.42 68.6016C139.112 68.8137 138.958 69.0838 138.958 69.4119C138.958 69.7036 139.064 69.9339 139.276 70.103C139.488 70.272 139.819 70.4129 140.27 70.5256L141.404 70.804C142.087 70.9697 142.595 71.2232 142.93 71.5646C143.265 71.9027 143.432 72.3385 143.432 72.8722C143.432 73.3097 143.306 73.7008 143.054 74.0455C142.806 74.3902 142.458 74.6619 142.01 74.8608C141.563 75.0597 141.042 75.1591 140.449 75.1591C139.67 75.1591 139.026 74.9901 138.515 74.652C138.005 74.3139 137.682 73.8201 137.546 73.1705L138.659 72.892C138.765 73.303 138.966 73.6113 139.261 73.8168C139.559 74.0223 139.949 74.125 140.429 74.125C140.976 74.125 141.41 74.009 141.732 73.777C142.057 73.5417 142.219 73.2599 142.219 72.9318C142.219 72.6667 142.126 72.4446 141.941 72.2656C141.755 72.0833 141.47 71.9474 141.086 71.858L139.813 71.5597C139.114 71.3939 138.6 71.1371 138.272 70.7891C137.947 70.4377 137.784 69.9986 137.784 69.4716C137.784 69.0407 137.905 68.6596 138.147 68.3281C138.393 67.9967 138.726 67.7365 139.147 67.5476C139.571 67.3587 140.051 67.2642 140.588 67.2642C141.344 67.2642 141.937 67.4299 142.368 67.7614C142.802 68.0928 143.111 68.5303 143.293 69.0739ZM148.285 75.179C147.802 75.179 147.362 75.0878 146.968 74.9055C146.574 74.7199 146.26 74.4531 146.028 74.1051C145.796 73.7538 145.68 73.3295 145.68 72.8324C145.68 72.3949 145.767 72.0402 145.939 71.7685C146.111 71.4934 146.342 71.2779 146.63 71.1222C146.918 70.9664 147.236 70.8504 147.584 70.7741C147.936 70.6946 148.289 70.6316 148.643 70.5852C149.107 70.5256 149.484 70.4808 149.772 70.451C150.064 70.4179 150.276 70.3632 150.408 70.2869C150.544 70.2107 150.612 70.0781 150.612 69.8892V69.8494C150.612 69.3589 150.478 68.9777 150.209 68.706C149.944 68.4342 149.542 68.2983 149.001 68.2983C148.441 68.2983 148.002 68.4209 147.684 68.6662C147.366 68.9115 147.142 69.1733 147.013 69.4517L145.899 69.054C146.098 68.59 146.363 68.2287 146.695 67.9702C147.029 67.7083 147.394 67.526 147.788 67.4233C148.186 67.3172 148.577 67.2642 148.962 67.2642C149.207 67.2642 149.489 67.294 149.807 67.3537C150.128 67.41 150.438 67.5277 150.736 67.7067C151.038 67.8857 151.288 68.1558 151.487 68.517C151.686 68.8783 151.785 69.3622 151.785 69.9688V75H150.612V73.9659H150.553C150.473 74.1316 150.34 74.3089 150.155 74.4979C149.969 74.6868 149.722 74.8475 149.414 74.9801C149.106 75.1127 148.73 75.179 148.285 75.179ZM148.464 74.125C148.928 74.125 149.32 74.0339 149.638 73.8516C149.959 73.6693 150.201 73.4339 150.364 73.1456C150.529 72.8572 150.612 72.554 150.612 72.2358V71.1619C150.562 71.2216 150.453 71.2763 150.284 71.326C150.118 71.3724 149.926 71.4138 149.707 71.4503C149.492 71.4834 149.281 71.5133 149.076 71.5398C148.874 71.563 148.71 71.5829 148.584 71.5994C148.279 71.6392 147.994 71.7038 147.729 71.7933C147.467 71.8795 147.255 72.0104 147.092 72.1861C146.933 72.3584 146.854 72.5937 146.854 72.892C146.854 73.2997 147.004 73.608 147.306 73.8168C147.611 74.0223 147.997 74.125 148.464 74.125ZM158.088 67.3636V68.358H154.131V67.3636H158.088ZM155.284 65.5341H156.457V72.8125C156.457 73.1439 156.505 73.3925 156.602 73.5582C156.701 73.7206 156.827 73.83 156.979 73.8864C157.135 73.9394 157.299 73.9659 157.472 73.9659C157.601 73.9659 157.707 73.9593 157.79 73.946C157.873 73.9295 157.939 73.9162 157.989 73.9062L158.227 74.9602C158.148 74.9901 158.037 75.0199 157.894 75.0497C157.752 75.0829 157.571 75.0994 157.352 75.0994C157.021 75.0994 156.696 75.0282 156.378 74.8857C156.063 74.7431 155.801 74.526 155.592 74.2344C155.387 73.9427 155.284 73.5748 155.284 73.1307V65.5341ZM160.693 75V67.3636H161.866V75H160.693ZM161.29 66.0909C161.061 66.0909 160.864 66.013 160.698 65.8572C160.535 65.7015 160.454 65.5142 160.454 65.2955C160.454 65.0767 160.535 64.8894 160.698 64.7337C160.864 64.5779 161.061 64.5 161.29 64.5C161.518 64.5 161.714 64.5779 161.876 64.7337C162.042 64.8894 162.125 65.0767 162.125 65.2955C162.125 65.5142 162.042 65.7015 161.876 65.8572C161.714 66.013 161.518 66.0909 161.29 66.0909ZM170.264 69.0739L169.21 69.3722C169.144 69.1965 169.046 69.0258 168.917 68.8601C168.791 68.6911 168.619 68.5518 168.4 68.4425C168.181 68.3331 167.901 68.2784 167.56 68.2784C167.092 68.2784 166.703 68.3861 166.391 68.6016C166.083 68.8137 165.929 69.0838 165.929 69.4119C165.929 69.7036 166.035 69.9339 166.247 70.103C166.459 70.272 166.791 70.4129 167.242 70.5256L168.375 70.804C169.058 70.9697 169.567 71.2232 169.901 71.5646C170.236 71.9027 170.403 72.3385 170.403 72.8722C170.403 73.3097 170.278 73.7008 170.026 74.0455C169.777 74.3902 169.429 74.6619 168.982 74.8608C168.534 75.0597 168.014 75.1591 167.421 75.1591C166.642 75.1591 165.997 74.9901 165.487 74.652C164.976 74.3139 164.653 73.8201 164.517 73.1705L165.631 72.892C165.737 73.303 165.937 73.6113 166.232 73.8168C166.531 74.0223 166.92 74.125 167.401 74.125C167.948 74.125 168.382 74.009 168.703 73.777C169.028 73.5417 169.19 73.2599 169.19 72.9318C169.19 72.6667 169.098 72.4446 168.912 72.2656C168.726 72.0833 168.441 71.9474 168.057 71.858L166.784 71.5597C166.085 71.3939 165.571 71.1371 165.243 70.7891C164.918 70.4377 164.756 69.9986 164.756 69.4716C164.756 69.0407 164.877 68.6596 165.119 68.3281C165.364 67.9967 165.697 67.7365 166.118 67.5476C166.542 67.3587 167.023 67.2642 167.56 67.2642C168.315 67.2642 168.909 67.4299 169.34 67.7614C169.774 68.0928 170.082 68.5303 170.264 69.0739ZM176.41 67.3636V68.358H172.294V67.3636H176.41ZM173.527 75V66.3097C173.527 65.8722 173.629 65.5076 173.835 65.2159C174.04 64.9242 174.307 64.7055 174.635 64.5597C174.963 64.4138 175.31 64.3409 175.674 64.3409C175.963 64.3409 176.198 64.3641 176.38 64.4105C176.563 64.4569 176.699 64.5 176.788 64.5398L176.45 65.554C176.39 65.5341 176.307 65.5092 176.201 65.4794C176.099 65.4496 175.963 65.4347 175.794 65.4347C175.406 65.4347 175.126 65.5324 174.954 65.728C174.785 65.9235 174.7 66.2102 174.7 66.5881V75H173.527ZM180.923 75.179C180.439 75.179 180 75.0878 179.606 74.9055C179.211 74.7199 178.898 74.4531 178.666 74.1051C178.434 73.7538 178.318 73.3295 178.318 72.8324C178.318 72.3949 178.404 72.0402 178.576 71.7685C178.749 71.4934 178.979 71.2779 179.267 71.1222C179.556 70.9664 179.874 70.8504 180.222 70.7741C180.573 70.6946 180.926 70.6316 181.281 70.5852C181.745 70.5256 182.121 70.4808 182.409 70.451C182.701 70.4179 182.913 70.3632 183.046 70.2869C183.182 70.2107 183.25 70.0781 183.25 69.8892V69.8494C183.25 69.3589 183.115 68.9777 182.847 68.706C182.582 68.4342 182.179 68.2983 181.639 68.2983C181.079 68.2983 180.64 68.4209 180.321 68.6662C180.003 68.9115 179.78 69.1733 179.65 69.4517L178.537 69.054C178.735 68.59 179.001 68.2287 179.332 67.9702C179.667 67.7083 180.031 67.526 180.426 67.4233C180.824 67.3172 181.215 67.2642 181.599 67.2642C181.844 67.2642 182.126 67.294 182.444 67.3537C182.766 67.41 183.076 67.5277 183.374 67.7067C183.676 67.8857 183.926 68.1558 184.125 68.517C184.324 68.8783 184.423 69.3622 184.423 69.9688V75H183.25V73.9659H183.19C183.11 74.1316 182.978 74.3089 182.792 74.4979C182.607 74.6868 182.36 74.8475 182.052 74.9801C181.743 75.1127 181.367 75.179 180.923 75.179ZM181.102 74.125C181.566 74.125 181.957 74.0339 182.275 73.8516C182.597 73.6693 182.839 73.4339 183.001 73.1456C183.167 72.8572 183.25 72.554 183.25 72.2358V71.1619C183.2 71.2216 183.091 71.2763 182.922 71.326C182.756 71.3724 182.564 71.4138 182.345 71.4503C182.129 71.4834 181.919 71.5133 181.713 71.5398C181.511 71.563 181.347 71.5829 181.221 71.5994C180.916 71.6392 180.631 71.7038 180.366 71.7933C180.104 71.8795 179.892 72.0104 179.73 72.1861C179.571 72.3584 179.491 72.5937 179.491 72.892C179.491 73.2997 179.642 73.608 179.944 73.8168C180.248 74.0223 180.635 74.125 181.102 74.125ZM187.404 75V67.3636H188.578V75H187.404ZM188.001 66.0909C187.772 66.0909 187.575 66.013 187.409 65.8572C187.247 65.7015 187.166 65.5142 187.166 65.2955C187.166 65.0767 187.247 64.8894 187.409 64.7337C187.575 64.5779 187.772 64.5 188.001 64.5C188.23 64.5 188.425 64.5779 188.588 64.7337C188.753 64.8894 188.836 65.0767 188.836 65.2955C188.836 65.5142 188.753 65.7015 188.588 65.8572C188.425 66.013 188.23 66.0909 188.001 66.0909ZM194.888 67.3636V68.358H190.93V67.3636H194.888ZM192.084 65.5341H193.257V72.8125C193.257 73.1439 193.305 73.3925 193.401 73.5582C193.501 73.7206 193.627 73.83 193.779 73.8864C193.935 73.9394 194.099 73.9659 194.271 73.9659C194.401 73.9659 194.507 73.9593 194.589 73.946C194.672 73.9295 194.739 73.9162 194.788 73.9062L195.027 74.9602C194.947 74.9901 194.836 75.0199 194.694 75.0497C194.551 75.0829 194.371 75.0994 194.152 75.0994C193.821 75.0994 193.496 75.0282 193.178 74.8857C192.863 74.7431 192.601 74.526 192.392 74.2344C192.187 73.9427 192.084 73.5748 192.084 73.1307V65.5341ZM200.612 75.1591C199.877 75.1591 199.242 74.9967 198.708 74.6719C198.178 74.3438 197.769 73.8864 197.48 73.2997C197.195 72.7098 197.053 72.0237 197.053 71.2415C197.053 70.4593 197.195 69.7699 197.48 69.1733C197.769 68.5734 198.17 68.1061 198.683 67.7713C199.2 67.4332 199.804 67.2642 200.493 67.2642C200.891 67.2642 201.284 67.3305 201.671 67.4631C202.059 67.5956 202.412 67.8111 202.73 68.1094C203.048 68.4044 203.302 68.7955 203.491 69.2827C203.68 69.7699 203.774 70.3698 203.774 71.0824V71.5795H197.888V70.5653H202.581C202.581 70.1345 202.495 69.75 202.323 69.4119C202.154 69.0739 201.912 68.8071 201.597 68.6115C201.285 68.416 200.917 68.3182 200.493 68.3182C200.026 68.3182 199.621 68.4342 199.28 68.6662C198.942 68.8949 198.682 69.1932 198.499 69.5611C198.317 69.929 198.226 70.3234 198.226 70.7443V71.4205C198.226 71.9972 198.325 72.486 198.524 72.8871C198.726 73.2848 199.007 73.5881 199.364 73.7969C199.722 74.0024 200.138 74.1051 200.612 74.1051C200.921 74.1051 201.199 74.062 201.448 73.9759C201.699 73.8864 201.917 73.7538 202.099 73.5781C202.281 73.3991 202.422 73.1771 202.521 72.9119L203.655 73.2301C203.536 73.6146 203.335 73.9527 203.053 74.2443C202.772 74.5327 202.424 74.758 202.009 74.9205C201.595 75.0795 201.129 75.1591 200.612 75.1591ZM211.808 69.0739L210.754 69.3722C210.688 69.1965 210.59 69.0258 210.461 68.8601C210.335 68.6911 210.163 68.5518 209.944 68.4425C209.725 68.3331 209.445 68.2784 209.104 68.2784C208.636 68.2784 208.247 68.3861 207.935 68.6016C207.627 68.8137 207.473 69.0838 207.473 69.4119C207.473 69.7036 207.579 69.9339 207.791 70.103C208.003 70.272 208.335 70.4129 208.785 70.5256L209.919 70.804C210.602 70.9697 211.111 71.2232 211.445 71.5646C211.78 71.9027 211.947 72.3385 211.947 72.8722C211.947 73.3097 211.821 73.7008 211.57 74.0455C211.321 74.3902 210.973 74.6619 210.526 74.8608C210.078 75.0597 209.558 75.1591 208.964 75.1591C208.186 75.1591 207.541 74.9901 207.03 74.652C206.52 74.3139 206.197 73.8201 206.061 73.1705L207.175 72.892C207.281 73.303 207.481 73.6113 207.776 73.8168C208.075 74.0223 208.464 74.125 208.945 74.125C209.491 74.125 209.926 74.009 210.247 73.777C210.572 73.5417 210.734 73.2599 210.734 72.9318C210.734 72.6667 210.642 72.4446 210.456 72.2656C210.27 72.0833 209.985 71.9474 209.601 71.858L208.328 71.5597C207.629 71.3939 207.115 71.1371 206.787 70.7891C206.462 70.4377 206.3 69.9986 206.3 69.4716C206.3 69.0407 206.421 68.6596 206.663 68.3281C206.908 67.9967 207.241 67.7365 207.662 67.5476C208.086 67.3587 208.567 67.2642 209.104 67.2642C209.859 67.2642 210.453 67.4299 210.883 67.7614C211.318 68.0928 211.626 68.5303 211.808 69.0739Z" fill="#747474"/>
</g>
<defs>
<filter id="filter0_d_386_2341" x="0" y="0" width="279" height="120" filterUnits="userSpaceOnUse" color-interpolation-filters="sRGB">
<feFlood flood-opacity="0" result="BackgroundImageFix"/>
<feColorMatrix in="SourceAlpha" type="matrix" values="0 0 0 0 0 0 0 0 0 0 0 0 0 0 0 0 0 0 127 0" result="hardAlpha"/>
<feOffset dx="4" dy="4"/>
<feGaussianBlur stdDeviation="15"/>
<feComposite in2="hardAlpha" operator="out"/>
<feColorMatrix type="matrix" values="0 0 0 0 0 0 0 0 0 0 0 0 0 0 0 0 0 0 0.2 0"/>
<feBlend mode="normal" in2="BackgroundImageFix" result="effect1_dropShadow_386_2341"/>
<feBlend mode="normal" in="SourceGraphic" in2="effect1_dropShadow_386_2341" result="shape"/>
</filter>
</defs>
</svg>
