<svg width="72" height="72" viewBox="0 0 72 72" fill="none" xmlns="http://www.w3.org/2000/svg">
<rect width="71.9999" height="72" rx="8" fill="#DDF6F8"/>
<path fill-rule="evenodd" clip-rule="evenodd" d="M30.2857 33.1429C32.559 33.1429 34.7392 32.2398 36.3466 30.6323C37.9541 29.0249 38.8571 26.8447 38.8571 24.5714C38.8571 22.2981 37.9541 20.118 36.3466 18.5105C34.7392 16.9031 32.559 16 30.2857 16C28.0124 16 25.8323 16.9031 24.2248 18.5105C22.6173 20.118 21.7143 22.2981 21.7143 24.5714C21.7143 26.8447 22.6173 29.0249 24.2248 30.6323C25.8323 32.2398 28.0124 33.1429 30.2857 33.1429ZM17.4286 51.7143H33.2857C32.7757 50.5665 32.658 49.2827 32.9509 48.0613C33.2437 46.84 33.9308 45.7491 34.9059 44.9575C35.881 44.1659 37.0897 43.7175 38.3452 43.6818C39.6007 43.6461 40.8329 44.025 41.8514 44.76L43.5657 45.9171L43.7857 45.6C42.6744 42.4135 40.4713 39.723 37.5665 38.0051C34.6617 36.2872 31.2427 35.6526 27.9149 36.2138C24.5871 36.775 21.5653 38.4957 19.3846 41.0712C17.2038 43.6468 16.0048 46.911 16 50.2857C16 50.6646 16.1505 51.028 16.4184 51.2959C16.6863 51.5638 17.0497 51.7143 17.4286 51.7143Z" fill="#00B0AE"/>
<path fill-rule="evenodd" clip-rule="evenodd" d="M55.143 39.2858C55.3681 39.4546 55.5578 39.6661 55.7012 39.9083C55.8445 40.1504 55.9388 40.4184 55.9786 40.697C56.0184 40.9756 56.003 41.2593 55.9331 41.5319C55.8633 41.8045 55.7404 42.0606 55.5716 42.2858L46.6573 55.1429C46.4885 55.368 46.2769 55.5577 46.0348 55.7011C45.7926 55.8444 45.5246 55.9387 45.2461 55.9785C44.9675 56.0183 44.6838 56.0028 44.4112 55.933C44.1386 55.8632 43.8824 55.7403 43.6573 55.5715L37.2287 51.1143C37.0036 50.9455 36.8139 50.734 36.6706 50.4918C36.5272 50.2497 36.4329 49.9817 36.3931 49.7031C36.3533 49.4245 36.3688 49.1408 36.4386 48.8682C36.5085 48.5956 36.6313 48.3395 36.8002 48.1143C36.969 47.8892 37.1805 47.6995 37.4227 47.5562C37.6648 47.4128 37.9328 47.3185 38.2114 47.2787C38.49 47.2389 38.7737 47.2544 39.0463 47.3242C39.3189 47.3941 39.575 47.5169 39.8002 47.6858L44.5144 50.8572L52.143 39.7143C52.484 39.2597 52.9916 38.9591 53.5543 38.8787C54.1169 38.7984 54.6884 38.9448 55.143 39.2858Z" fill="#00B0AE"/>
</svg>
