<svg width="64" height="64" viewBox="0 0 64 64" fill="none" xmlns="http://www.w3.org/2000/svg">
<rect width="64" height="64" rx="8" fill="#FFB636"/>
<g clip-path="url(#clip0_561_1249)">
<g clip-path="url(#clip1_561_1249)">
<path d="M23.3625 28.785L22.275 32H19.5L24.155 19.5H27.365L32 32H29.0825L27.995 28.785H23.3625ZM27.4475 26.945L25.75 21.89H25.6275L23.93 26.945H27.4475Z" fill="white"/>
<path d="M12 17C12 15.6739 12.5268 14.4021 13.4645 13.4645C14.4021 12.5268 15.6739 12 17 12H34.5C35.8261 12 37.0979 12.5268 38.0355 13.4645C38.9732 14.4021 39.5 15.6739 39.5 17V24.5H47C48.3261 24.5 49.5979 25.0268 50.5355 25.9645C51.4732 26.9021 52 28.1739 52 29.5V47C52 48.3261 51.4732 49.5979 50.5355 50.5355C49.5979 51.4732 48.3261 52 47 52H29.5C28.1739 52 26.9021 51.4732 25.9645 50.5355C25.0268 49.5979 24.5 48.3261 24.5 47V39.5H17C15.6739 39.5 14.4021 38.9732 13.4645 38.0355C12.5268 37.0979 12 35.8261 12 34.5V17ZM17 14.5C16.337 14.5 15.7011 14.7634 15.2322 15.2322C14.7634 15.7011 14.5 16.337 14.5 17V34.5C14.5 35.163 14.7634 35.7989 15.2322 36.2678C15.7011 36.7366 16.337 37 17 37H34.5C35.163 37 35.7989 36.7366 36.2678 36.2678C36.7366 35.7989 37 35.163 37 34.5V17C37 16.337 36.7366 15.7011 36.2678 15.2322C35.7989 14.7634 35.163 14.5 34.5 14.5H17ZM34.845 39.4875C35.3267 40.2392 35.8517 40.9442 36.42 41.6025C34.55 43.04 32.2375 44.105 29.5 44.8325C29.945 45.375 30.6275 46.42 30.8875 47C33.7 46.1025 36.0875 44.89 38.1025 43.265C40.045 44.9275 42.45 46.1775 45.4275 46.945C45.76 46.31 46.4625 45.2625 47 44.72C44.1875 44.0875 41.8575 42.985 39.95 41.51C41.6525 39.6425 43.005 37.3825 44.0025 34.6175H47V32H39.5V34.6175H41.4125C40.6175 36.7275 39.5625 38.4825 38.2325 39.9425C37.8649 39.5514 37.5186 39.1408 37.195 38.7125C36.489 39.1637 35.6809 39.4301 34.845 39.4875Z" fill="white"/>
</g>
</g>
<defs>
<clipPath id="clip0_561_1249">
<rect width="32" height="32" fill="white" transform="translate(16 16)"/>
</clipPath>
<clipPath id="clip1_561_1249">
<rect width="40" height="40" fill="white" transform="translate(12 12)"/>
</clipPath>
</defs>
</svg>
