<svg width="72" height="82" viewBox="0 0 72 82" fill="none" xmlns="http://www.w3.org/2000/svg">
<rect width="72" height="82" rx="8" fill="#DDF6F8"/>
<path d="M21.3333 16C19.9188 16 18.5623 16.6197 17.5621 17.7229C16.5619 18.8261 16 20.3223 16 21.8824V57.1765C16 58.7366 16.5619 60.2328 17.5621 61.3359C18.5623 62.4391 19.9188 63.0588 21.3333 63.0588H32.6853C32.0061 62.1516 31.4186 61.1654 30.9333 60.1176H21.3333C20.6261 60.1176 19.9478 59.8078 19.4477 59.2562C18.9476 58.7046 18.6667 57.9565 18.6667 57.1765H29.8853C29.1721 54.4057 29.1426 51.4752 29.7998 48.6877C30.4569 45.9002 31.777 43.3567 33.6235 41.3201C35.4701 39.2834 37.7761 37.8275 40.3035 37.1027C42.8309 36.3779 45.4879 36.4104 48 37.1971V21.8824C48 20.3223 47.4381 18.8261 46.4379 17.7229C45.4377 16.6197 44.0812 16 42.6667 16H21.3333ZM23.3333 23.3529H40.6667C41.1971 23.3529 41.7058 23.5853 42.0809 23.999C42.456 24.4127 42.6667 24.9738 42.6667 25.5588C42.6667 26.1439 42.456 26.7049 42.0809 27.1186C41.7058 27.5323 41.1971 27.7647 40.6667 27.7647H23.3333C22.8029 27.7647 22.2942 27.5323 21.9191 27.1186C21.544 26.7049 21.3333 26.1439 21.3333 25.5588C21.3333 24.9738 21.544 24.4127 21.9191 23.999C22.2942 23.5853 22.8029 23.3529 23.3333 23.3529ZM56 52.7647C56 56.2749 54.7357 59.6414 52.4853 62.1235C50.2348 64.6056 47.1826 66 44 66C40.8174 66 37.7652 64.6056 35.5147 62.1235C33.2643 59.6414 32 56.2749 32 52.7647C32 49.2545 33.2643 45.888 35.5147 43.4059C37.7652 40.9238 40.8174 39.5294 44 39.5294C47.1826 39.5294 50.2348 40.9238 52.4853 43.4059C54.7357 45.888 56 49.2545 56 52.7647ZM42.72 46.9824C42.5473 46.8508 42.3463 46.7716 42.1372 46.7525C41.928 46.7334 41.718 46.7751 41.528 46.8735C41.3732 46.9495 41.2329 47.0573 41.1147 47.1912C40.9905 47.3293 40.8923 47.4932 40.8259 47.6734C40.7596 47.8537 40.7263 48.0466 40.728 48.2412V57.2853C40.7259 57.4803 40.759 57.6738 40.8254 57.8546C40.8918 58.0354 40.9901 58.1998 41.1147 58.3382C41.2376 58.4701 41.379 58.5794 41.5333 58.6618C41.8039 58.7985 42.1109 58.8195 42.3947 58.7206C42.5179 58.6767 42.6347 58.6133 42.7413 58.5324L48.864 53.9235C49.0502 53.7881 49.2003 53.6002 49.2987 53.3794C49.3991 53.1567 49.4508 52.911 49.4494 52.6622C49.448 52.4134 49.3936 52.1684 49.2907 51.9471C49.1851 51.7304 49.032 51.5463 48.8453 51.4118L42.72 46.9824Z" fill="#00B0AE"/>
</svg>
