<svg width="32" height="26" viewBox="0 0 32 26" fill="none" xmlns="http://www.w3.org/2000/svg">
<path d="M14.0803 4.33789C12.1664 5.32178 10.6032 6.79017 9.39083 8.74316C8.18093 10.6974 7.70401 12.5416 7.99728 14.2832C8.85888 14.0834 9.81228 14.1003 10.8205 14.335C11.8447 14.5721 12.6564 15.0679 13.2541 15.8232C14.0973 16.9195 14.5187 18.2745 14.5188 19.8877L14.5149 19.8828C14.516 21.7208 13.9412 23.1677 12.7912 24.2236C11.629 25.3015 10.1608 25.833 8.39181 25.833C6.38126 25.833 4.70183 25.0627 3.35372 23.5215C2.00439 21.9998 1.1754 19.9465 0.867396 17.3799C0.630896 15.4365 0.768881 13.548 1.26388 11.6963C1.75887 9.84476 2.52831 8.21106 3.5549 6.76465C4.58151 5.31822 5.73671 4.03858 7.03829 2.92578C8.32155 1.81301 9.71528 0.892973 11.1818 0.166992L14.0803 4.33789ZM30.7893 4.34863C28.8755 5.33856 27.3136 6.80501 26.1037 8.74805C24.8901 10.7097 24.4315 12.5618 24.7248 14.2852C25.5803 14.0859 26.5215 14.0991 27.5481 14.3252C28.571 14.5537 29.3818 15.0534 29.9807 15.8232C30.824 16.9195 31.2463 18.2744 31.2463 19.8877L31.2395 20.208C31.171 21.8854 30.5969 23.219 29.5188 24.209C28.3552 25.2832 26.8876 25.8188 25.1154 25.8164C23.1073 25.8164 21.4306 25.0517 20.0861 23.5215C18.7406 21.9998 17.9159 19.9464 17.6115 17.3799C17.3714 15.4776 17.5062 13.5465 18.009 11.6963C18.504 9.84467 19.2631 8.21295 20.2824 6.76465C21.2748 5.34485 22.4417 4.05524 23.7551 2.92578C25.0494 1.81237 26.4308 0.892978 27.8986 0.166992L30.7893 4.34863Z" fill="white"/>
</svg>
