<svg width="49" height="50" viewBox="0 0 49 50" fill="none" xmlns="http://www.w3.org/2000/svg">
<path d="M0 0H40.2508C44.669 0 48.2508 3.58172 48.2508 8V42C48.2508 46.4183 44.669 50 40.2508 50H0V0Z" fill="#FB87A7"/>
<path d="M33.9616 25.4913C34.0492 25.4426 34.1223 25.3713 34.1731 25.2848C34.2239 25.1984 34.2508 25.0999 34.2508 24.9996C34.2508 24.8994 34.2239 24.8009 34.1731 24.7145C34.1223 24.628 34.0492 24.5567 33.9616 24.508L31.3942 23.0815C26.3348 20.271 21.0014 17.9851 15.4772 16.2592L14.729 16.0252C14.6449 15.9991 14.5558 15.9932 14.469 16.0078C14.3822 16.0225 14.3 16.0573 14.229 16.1095C14.1581 16.1617 14.1005 16.2298 14.0607 16.3084C14.0209 16.387 14.0001 16.4738 14 16.5619V23.0308C13.9998 23.1751 14.055 23.3139 14.1543 23.4186C14.2535 23.5233 14.3892 23.5858 14.5333 23.5933L15.6696 23.653C18.4388 23.7982 21.1912 24.1738 23.8981 24.7758L24.1659 24.8354C24.2255 24.8478 24.2514 24.8725 24.266 24.8916C24.2879 24.9233 24.2994 24.9611 24.2986 24.9996C24.2986 25.0447 24.284 25.0829 24.266 25.1077C24.2514 25.1268 24.2255 25.1515 24.1659 25.1639L23.8981 25.2235C21.1907 25.8254 18.438 26.2014 15.6684 26.3474L14.5321 26.4071C14.3885 26.4148 14.2532 26.4774 14.1543 26.5818C14.0553 26.6862 14.0001 26.8246 14 26.9685V33.4374C14 33.5258 14.0208 33.6129 14.0607 33.6916C14.1006 33.7704 14.1585 33.8387 14.2297 33.891C14.3009 33.9432 14.3834 33.978 14.4706 33.9924C14.5577 34.0069 14.647 34.0006 14.7313 33.9741L15.4783 33.7401C21.0018 32.0141 26.3344 29.7281 31.3931 26.9178L33.9616 25.4913Z" fill="white"/>
</svg>
