<svg width="234" height="129" viewBox="0 0 234 129" fill="none" xmlns="http://www.w3.org/2000/svg">
<g filter="url(#filter0_d_376_2220)">
<rect x="26" y="26" width="179" height="69" rx="4" fill="white"/>
<path d="M87.7852 57.5625V60H76.2305V57.9141L81.7734 51.9258C82.3516 51.2695 82.8086 50.6992 83.1445 50.2148C83.4805 49.7305 83.7188 49.293 83.8594 48.9023C84.0078 48.5039 84.082 48.125 84.082 47.7656C84.082 47.2422 83.9883 46.7852 83.8008 46.3945C83.6133 45.9961 83.3398 45.6875 82.9805 45.4688C82.6289 45.25 82.1953 45.1406 81.6797 45.1406C81.1094 45.1406 80.6211 45.2734 80.2148 45.5391C79.8164 45.7969 79.5117 46.1562 79.3008 46.6172C79.0977 47.0781 78.9961 47.6055 78.9961 48.1992H75.8906C75.8906 47.1914 76.125 46.2734 76.5938 45.4453C77.0625 44.6094 77.7344 43.9414 78.6094 43.4414C79.4844 42.9414 80.5234 42.6914 81.7266 42.6914C82.8984 42.6914 83.8906 42.8867 84.7031 43.2773C85.5156 43.6602 86.1328 44.207 86.5547 44.918C86.9766 45.6289 87.1875 46.4766 87.1875 47.4609C87.1875 48.0078 87.0977 48.5469 86.918 49.0781C86.7383 49.6094 86.4844 50.1367 86.1562 50.6602C85.8359 51.1758 85.4531 51.6992 85.0078 52.2305C84.5625 52.7617 84.0664 53.3047 83.5195 53.8594L80.1914 57.5625H87.7852ZM102.198 50.0039V52.875C102.198 54.1875 102.065 55.3086 101.8 56.2383C101.534 57.168 101.151 57.9297 100.651 58.5234C100.151 59.1094 99.5538 59.543 98.8584 59.8242C98.1631 60.0977 97.3897 60.2344 96.5381 60.2344C95.8584 60.2344 95.2256 60.1484 94.6397 59.9766C94.0538 59.7969 93.5264 59.5234 93.0577 59.1562C92.5967 58.7812 92.1983 58.3047 91.8623 57.7266C91.5342 57.1484 91.2803 56.457 91.1006 55.6523C90.9288 54.8477 90.8428 53.9219 90.8428 52.875V50.0039C90.8428 48.6914 90.9756 47.5742 91.2413 46.6523C91.5147 45.7305 91.9014 44.9766 92.4014 44.3906C92.9014 43.8047 93.4991 43.3789 94.1944 43.1133C94.8897 42.8398 95.6631 42.7031 96.5147 42.7031C97.2022 42.7031 97.835 42.7891 98.4131 42.9609C98.9991 43.1328 99.5225 43.4023 99.9834 43.7695C100.452 44.1289 100.851 44.5977 101.179 45.1758C101.507 45.7461 101.757 46.4336 101.929 47.2383C102.108 48.0352 102.198 48.957 102.198 50.0039ZM99.1045 53.2969V49.5703C99.1045 48.9141 99.0655 48.3438 98.9873 47.8594C98.917 47.3672 98.8116 46.9492 98.6709 46.6055C98.5303 46.2617 98.3545 45.9844 98.1436 45.7734C97.9327 45.5547 97.6905 45.3945 97.417 45.293C97.1436 45.1914 96.8428 45.1406 96.5147 45.1406C96.1084 45.1406 95.7452 45.2227 95.4248 45.3867C95.1045 45.543 94.835 45.793 94.6163 46.1367C94.3975 46.4805 94.2295 46.9375 94.1123 47.5078C94.003 48.0703 93.9483 48.7578 93.9483 49.5703V53.2969C93.9483 53.9531 93.9834 54.5273 94.0538 55.0195C94.1319 55.5117 94.2413 55.9336 94.3819 56.2852C94.5303 56.6367 94.7061 56.9258 94.9092 57.1523C95.1202 57.3711 95.3623 57.5352 95.6358 57.6445C95.9092 57.7461 96.21 57.7969 96.5381 57.7969C96.9522 57.7969 97.3155 57.7148 97.628 57.5508C97.9483 57.3867 98.2178 57.1289 98.4366 56.7773C98.6553 56.418 98.8194 55.9531 98.9288 55.3828C99.0459 54.8047 99.1045 54.1094 99.1045 53.2969ZM116.869 50.0039V52.875C116.869 54.1875 116.736 55.3086 116.471 56.2383C116.205 57.168 115.822 57.9297 115.322 58.5234C114.822 59.1094 114.225 59.543 113.529 59.8242C112.834 60.0977 112.061 60.2344 111.209 60.2344C110.529 60.2344 109.897 60.1484 109.311 59.9766C108.725 59.7969 108.197 59.5234 107.729 59.1562C107.268 58.7812 106.869 58.3047 106.533 57.7266C106.205 57.1484 105.951 56.457 105.772 55.6523C105.6 54.8477 105.514 53.9219 105.514 52.875V50.0039C105.514 48.6914 105.647 47.5742 105.912 46.6523C106.186 45.7305 106.572 44.9766 107.072 44.3906C107.572 43.8047 108.17 43.3789 108.865 43.1133C109.561 42.8398 110.334 42.7031 111.186 42.7031C111.873 42.7031 112.506 42.7891 113.084 42.9609C113.67 43.1328 114.193 43.4023 114.654 43.7695C115.123 44.1289 115.522 44.5977 115.85 45.1758C116.178 45.7461 116.428 46.4336 116.6 47.2383C116.779 48.0352 116.869 48.957 116.869 50.0039ZM113.775 53.2969V49.5703C113.775 48.9141 113.736 48.3438 113.658 47.8594C113.588 47.3672 113.483 46.9492 113.342 46.6055C113.201 46.2617 113.025 45.9844 112.815 45.7734C112.604 45.5547 112.361 45.3945 112.088 45.293C111.815 45.1914 111.514 45.1406 111.186 45.1406C110.779 45.1406 110.416 45.2227 110.096 45.3867C109.775 45.543 109.506 45.793 109.287 46.1367C109.068 46.4805 108.9 46.9375 108.783 47.5078C108.674 48.0703 108.619 48.7578 108.619 49.5703V53.2969C108.619 53.9531 108.654 54.5273 108.725 55.0195C108.803 55.5117 108.912 55.9336 109.053 56.2852C109.201 56.6367 109.377 56.9258 109.58 57.1523C109.791 57.3711 110.033 57.5352 110.307 57.6445C110.58 57.7461 110.881 57.7969 111.209 57.7969C111.623 57.7969 111.986 57.7148 112.299 57.5508C112.619 57.3867 112.889 57.1289 113.108 56.7773C113.326 56.418 113.49 55.9531 113.6 55.3828C113.717 54.8047 113.775 54.1094 113.775 53.2969Z" fill="black"/>
<ellipse cx="55" cy="52.5" rx="15" ry="13.5" fill="#FB87A7"/>
<path d="M79.2756 80.1591C78.5398 80.1591 77.9051 79.9967 77.3714 79.6719C76.8411 79.3438 76.4318 78.8864 76.1435 78.2997C75.8584 77.7098 75.7159 77.0237 75.7159 76.2415C75.7159 75.4593 75.8584 74.7699 76.1435 74.1733C76.4318 73.5734 76.8329 73.1061 77.3466 72.7713C77.8636 72.4332 78.4669 72.2642 79.1562 72.2642C79.554 72.2642 79.9467 72.3305 80.3345 72.4631C80.7223 72.5956 81.0753 72.8111 81.3935 73.1094C81.7116 73.4044 81.9652 73.7955 82.1541 74.2827C82.343 74.7699 82.4375 75.3698 82.4375 76.0824V76.5795H76.5511V75.5653H81.2443C81.2443 75.1345 81.1581 74.75 80.9858 74.4119C80.8168 74.0739 80.5748 73.8071 80.2599 73.6115C79.9484 73.416 79.5805 73.3182 79.1562 73.3182C78.6889 73.3182 78.2846 73.4342 77.9432 73.6662C77.6051 73.8949 77.3449 74.1932 77.1626 74.5611C76.9804 74.929 76.8892 75.3234 76.8892 75.7443V76.4205C76.8892 76.9972 76.9886 77.486 77.1875 77.8871C77.3897 78.2848 77.6697 78.5881 78.0277 78.7969C78.3857 79.0024 78.8016 79.1051 79.2756 79.1051C79.5838 79.1051 79.8622 79.062 80.1108 78.9759C80.3627 78.8864 80.5798 78.7538 80.7621 78.5781C80.9444 78.3991 81.0852 78.1771 81.1847 77.9119L82.3182 78.2301C82.1989 78.6146 81.9983 78.9527 81.7166 79.2443C81.4349 79.5327 81.0869 79.758 80.6726 79.9205C80.2583 80.0795 79.7926 80.1591 79.2756 80.1591ZM86.2356 75.4062V80H85.0623V72.3636H86.1958V73.5568H86.2953C86.4742 73.169 86.746 72.8575 87.1106 72.6222C87.4752 72.3835 87.9458 72.2642 88.5225 72.2642C89.0396 72.2642 89.492 72.3703 89.8798 72.5824C90.2676 72.7912 90.5692 73.1094 90.7846 73.5369C91 73.9612 91.1078 74.4981 91.1078 75.1477V80H89.9345V75.2273C89.9345 74.6274 89.7787 74.16 89.4671 73.8253C89.1556 73.4872 88.728 73.3182 88.1845 73.3182C87.8099 73.3182 87.4752 73.3994 87.1802 73.5618C86.8885 73.7242 86.6582 73.9612 86.4891 74.2727C86.3201 74.5843 86.2356 74.9621 86.2356 75.4062ZM97.4923 72.3636V73.358H93.3758V72.3636H97.4923ZM94.6088 80V71.3097C94.6088 70.8722 94.7115 70.5076 94.917 70.2159C95.1225 69.9242 95.3893 69.7055 95.7175 69.5597C96.0456 69.4138 96.3919 69.3409 96.7565 69.3409C97.0449 69.3409 97.2802 69.3641 97.4625 69.4105C97.6448 69.4569 97.7807 69.5 97.8702 69.5398L97.5321 70.554C97.4724 70.5341 97.3896 70.5092 97.2835 70.4794C97.1808 70.4496 97.0449 70.4347 96.8758 70.4347C96.4881 70.4347 96.208 70.5324 96.0356 70.728C95.8666 70.9235 95.7821 71.2102 95.7821 71.5881V80H94.6088ZM102.005 80.179C101.521 80.179 101.082 80.0878 100.688 79.9055C100.293 79.7199 99.98 79.4531 99.748 79.1051C99.516 78.7538 99.4 78.3295 99.4 77.8324C99.4 77.3949 99.4861 77.0402 99.6585 76.7685C99.8308 76.4934 100.061 76.2779 100.35 76.1222C100.638 75.9664 100.956 75.8504 101.304 75.7741C101.655 75.6946 102.008 75.6316 102.363 75.5852C102.827 75.5256 103.203 75.4808 103.492 75.451C103.783 75.4179 103.995 75.3632 104.128 75.2869C104.264 75.2107 104.332 75.0781 104.332 74.8892V74.8494C104.332 74.3589 104.198 73.9777 103.929 73.706C103.664 73.4342 103.261 73.2983 102.721 73.2983C102.161 73.2983 101.722 73.4209 101.404 73.6662C101.085 73.9115 100.862 74.1733 100.732 74.4517L99.6187 74.054C99.8176 73.59 100.083 73.2287 100.414 72.9702C100.749 72.7083 101.114 72.526 101.508 72.4233C101.906 72.3172 102.297 72.2642 102.681 72.2642C102.926 72.2642 103.208 72.294 103.526 72.3537C103.848 72.41 104.158 72.5277 104.456 72.7067C104.758 72.8857 105.008 73.1558 105.207 73.517C105.406 73.8783 105.505 74.3622 105.505 74.9688V80H104.332V78.9659H104.272C104.193 79.1316 104.06 79.3089 103.874 79.4979C103.689 79.6868 103.442 79.8475 103.134 79.9801C102.825 80.1127 102.449 80.179 102.005 80.179ZM102.184 79.125C102.648 79.125 103.039 79.0339 103.357 78.8516C103.679 78.6693 103.921 78.4339 104.083 78.1456C104.249 77.8572 104.332 77.554 104.332 77.2358V76.1619C104.282 76.2216 104.173 76.2763 104.004 76.326C103.838 76.3724 103.646 76.4138 103.427 76.4503C103.212 76.4834 103.001 76.5133 102.796 76.5398C102.593 76.563 102.429 76.5829 102.303 76.5994C101.998 76.6392 101.713 76.7038 101.448 76.7933C101.186 76.8795 100.974 77.0104 100.812 77.1861C100.653 77.3584 100.573 77.5937 100.573 77.892C100.573 78.2997 100.724 78.608 101.026 78.8168C101.331 79.0223 101.717 79.125 102.184 79.125ZM109.66 75.4062V80H108.487V72.3636H109.62V73.5568H109.72C109.899 73.169 110.17 72.8575 110.535 72.6222C110.899 72.3835 111.37 72.2642 111.947 72.2642C112.464 72.2642 112.916 72.3703 113.304 72.5824C113.692 72.7912 113.993 73.1094 114.209 73.5369C114.424 73.9612 114.532 74.4981 114.532 75.1477V80H113.359V75.2273C113.359 74.6274 113.203 74.16 112.891 73.8253C112.58 73.4872 112.152 73.3182 111.609 73.3182C111.234 73.3182 110.899 73.3994 110.604 73.5618C110.313 73.7242 110.082 73.9612 109.913 74.2727C109.744 74.5843 109.66 74.9621 109.66 75.4062ZM120.837 72.3636V73.358H116.88V72.3636H120.837ZM118.033 70.5341H119.206V77.8125C119.206 78.1439 119.254 78.3925 119.351 78.5582C119.45 78.7206 119.576 78.83 119.728 78.8864C119.884 78.9394 120.048 78.9659 120.221 78.9659C120.35 78.9659 120.456 78.9593 120.539 78.946C120.622 78.9295 120.688 78.9162 120.738 78.9062L120.976 79.9602C120.897 79.9901 120.786 80.0199 120.643 80.0497C120.501 80.0829 120.32 80.0994 120.101 80.0994C119.77 80.0994 119.445 80.0282 119.127 79.8857C118.812 79.7431 118.55 79.526 118.341 79.2344C118.136 78.9427 118.033 78.5748 118.033 78.1307V70.5341ZM128.714 74.0739L127.66 74.3722C127.594 74.1965 127.496 74.0258 127.367 73.8601C127.241 73.6911 127.069 73.5518 126.85 73.4425C126.631 73.3331 126.351 73.2784 126.01 73.2784C125.542 73.2784 125.153 73.3861 124.841 73.6016C124.533 73.8137 124.379 74.0838 124.379 74.4119C124.379 74.7036 124.485 74.9339 124.697 75.103C124.909 75.272 125.241 75.4129 125.692 75.5256L126.825 75.804C127.508 75.9697 128.017 76.2232 128.351 76.5646C128.686 76.9027 128.854 77.3385 128.854 77.8722C128.854 78.3097 128.728 78.7008 128.476 79.0455C128.227 79.3902 127.879 79.6619 127.432 79.8608C126.984 80.0597 126.464 80.1591 125.871 80.1591C125.092 80.1591 124.447 79.9901 123.937 79.652C123.426 79.3139 123.103 78.8201 122.967 78.1705L124.081 77.892C124.187 78.303 124.387 78.6113 124.682 78.8168C124.981 79.0223 125.37 79.125 125.851 79.125C126.398 79.125 126.832 79.009 127.153 78.777C127.478 78.5417 127.64 78.2599 127.64 77.9318C127.64 77.6667 127.548 77.4446 127.362 77.2656C127.176 77.0833 126.891 76.9474 126.507 76.858L125.234 76.5597C124.535 76.3939 124.021 76.1371 123.693 75.7891C123.368 75.4377 123.206 74.9986 123.206 74.4716C123.206 74.0407 123.327 73.6596 123.569 73.3281C123.814 72.9967 124.147 72.7365 124.568 72.5476C124.992 72.3587 125.473 72.2642 126.01 72.2642C126.765 72.2642 127.359 72.4299 127.79 72.7614C128.224 73.0928 128.532 73.5303 128.714 74.0739ZM139.32 83.0227C138.753 83.0227 138.266 82.9498 137.858 82.804C137.45 82.6615 137.111 82.4725 136.839 82.2372C136.57 82.0052 136.357 81.7566 136.197 81.4915L137.132 80.8352C137.238 80.9744 137.372 81.1335 137.535 81.3125C137.697 81.4948 137.919 81.6522 138.201 81.7848C138.486 81.9207 138.859 81.9886 139.32 81.9886C139.936 81.9886 140.445 81.8395 140.846 81.5412C141.247 81.2429 141.447 80.7756 141.447 80.1392V78.5881H141.348C141.262 78.7273 141.139 78.8996 140.98 79.1051C140.824 79.3073 140.599 79.4879 140.304 79.647C140.012 79.8028 139.618 79.8807 139.121 79.8807C138.504 79.8807 137.951 79.7348 137.46 79.4432C136.973 79.1515 136.587 78.7273 136.302 78.1705C136.02 77.6136 135.879 76.9375 135.879 76.142C135.879 75.3598 136.017 74.6787 136.292 74.0987C136.567 73.5154 136.95 73.0646 137.44 72.7464C137.931 72.425 138.498 72.2642 139.141 72.2642C139.638 72.2642 140.032 72.3471 140.324 72.5128C140.619 72.6752 140.844 72.8608 141 73.0696C141.159 73.2751 141.282 73.4441 141.368 73.5767H141.487V72.3636H142.621V80.2188C142.621 80.875 142.472 81.4086 142.173 81.8196C141.878 82.2339 141.481 82.5372 140.98 82.7294C140.483 82.925 139.929 83.0227 139.32 83.0227ZM139.28 78.8267C139.75 78.8267 140.148 78.719 140.473 78.5036C140.798 78.2881 141.045 77.9782 141.214 77.5739C141.383 77.1695 141.467 76.6856 141.467 76.1222C141.467 75.572 141.384 75.0864 141.219 74.6655C141.053 74.2446 140.808 73.9148 140.483 73.6761C140.158 73.4375 139.757 73.3182 139.28 73.3182C138.783 73.3182 138.368 73.4441 138.037 73.696C137.709 73.9479 137.462 74.286 137.296 74.7102C137.134 75.1345 137.053 75.6051 137.053 76.1222C137.053 76.6525 137.135 77.1214 137.301 77.5291C137.47 77.9335 137.719 78.2517 138.047 78.4837C138.378 78.7124 138.789 78.8267 139.28 78.8267ZM147.856 80.179C147.372 80.179 146.933 80.0878 146.538 79.9055C146.144 79.7199 145.831 79.4531 145.599 79.1051C145.367 78.7538 145.251 78.3295 145.251 77.8324C145.251 77.3949 145.337 77.0402 145.509 76.7685C145.681 76.4934 145.912 76.2779 146.2 76.1222C146.488 75.9664 146.807 75.8504 147.155 75.7741C147.506 75.6946 147.859 75.6316 148.214 75.5852C148.678 75.5256 149.054 75.4808 149.342 75.451C149.634 75.4179 149.846 75.3632 149.978 75.2869C150.114 75.2107 150.182 75.0781 150.182 74.8892V74.8494C150.182 74.3589 150.048 73.9777 149.78 73.706C149.514 73.4342 149.112 73.2983 148.572 73.2983C148.011 73.2983 147.572 73.4209 147.254 73.6662C146.936 73.9115 146.712 74.1733 146.583 74.4517L145.469 74.054C145.668 73.59 145.933 73.2287 146.265 72.9702C146.599 72.7083 146.964 72.526 147.358 72.4233C147.756 72.3172 148.147 72.2642 148.532 72.2642C148.777 72.2642 149.059 72.294 149.377 72.3537C149.698 72.41 150.008 72.5277 150.307 72.7067C150.608 72.8857 150.858 73.1558 151.057 73.517C151.256 73.8783 151.356 74.3622 151.356 74.9688V80H150.182V78.9659H150.123C150.043 79.1316 149.911 79.3089 149.725 79.4979C149.539 79.6868 149.292 79.8475 148.984 79.9801C148.676 80.1127 148.3 80.179 147.856 80.179ZM148.035 79.125C148.499 79.125 148.89 79.0339 149.208 78.8516C149.529 78.6693 149.771 78.4339 149.934 78.1456C150.099 77.8572 150.182 77.554 150.182 77.2358V76.1619C150.133 76.2216 150.023 76.2763 149.854 76.326C149.688 76.3724 149.496 76.4138 149.278 76.4503C149.062 76.4834 148.852 76.5133 148.646 76.5398C148.444 76.563 148.28 76.5829 148.154 76.5994C147.849 76.6392 147.564 76.7038 147.299 76.7933C147.037 76.8795 146.825 77.0104 146.662 77.1861C146.503 77.3584 146.424 77.5937 146.424 77.892C146.424 78.2997 146.575 78.608 146.876 78.8168C147.181 79.0223 147.567 79.125 148.035 79.125ZM154.337 80V72.3636H155.471V73.517H155.55C155.689 73.1392 155.941 72.8326 156.306 72.5973C156.67 72.362 157.081 72.2443 157.539 72.2443C157.625 72.2443 157.733 72.246 157.862 72.2493C157.991 72.2526 158.089 72.2576 158.155 72.2642V73.4574C158.116 73.4474 158.024 73.4325 157.882 73.4126C157.743 73.3894 157.595 73.3778 157.439 73.3778C157.068 73.3778 156.737 73.4557 156.445 73.6115C156.157 73.764 155.928 73.9761 155.759 74.2479C155.593 74.5163 155.51 74.8229 155.51 75.1676V80H154.337ZM163.037 80.1591C162.401 80.1591 161.839 79.9983 161.352 79.6768C160.865 79.352 160.483 78.8946 160.208 78.3047C159.933 77.7114 159.796 77.0104 159.796 76.2017C159.796 75.3996 159.933 74.7036 160.208 74.1136C160.483 73.5237 160.866 73.0679 161.357 72.7464C161.847 72.425 162.414 72.2642 163.057 72.2642C163.554 72.2642 163.947 72.3471 164.235 72.5128C164.527 72.6752 164.749 72.8608 164.902 73.0696C165.057 73.2751 165.178 73.4441 165.265 73.5767H165.364V69.8182H166.537V80H165.404V78.8267H165.265C165.178 78.9659 165.056 79.1416 164.897 79.3537C164.738 79.5625 164.51 79.7498 164.215 79.9155C163.921 80.0779 163.528 80.1591 163.037 80.1591ZM163.196 79.1051C163.667 79.1051 164.065 78.9825 164.39 78.7372C164.714 78.4886 164.961 78.1456 165.13 77.7081C165.299 77.2673 165.384 76.7585 165.384 76.1818C165.384 75.6117 165.301 75.1129 165.135 74.6854C164.97 74.2545 164.724 73.9197 164.399 73.6811C164.075 73.4392 163.674 73.3182 163.196 73.3182C162.699 73.3182 162.285 73.4458 161.953 73.701C161.625 73.9529 161.378 74.2959 161.213 74.7301C161.05 75.161 160.969 75.6449 160.969 76.1818C160.969 76.7254 161.052 77.2192 161.218 77.6634C161.387 78.1042 161.635 78.4555 161.963 78.7173C162.295 78.9759 162.706 79.1051 163.196 79.1051ZM172.891 80.1591C172.155 80.1591 171.52 79.9967 170.987 79.6719C170.456 79.3438 170.047 78.8864 169.759 78.2997C169.474 77.7098 169.331 77.0237 169.331 76.2415C169.331 75.4593 169.474 74.7699 169.759 74.1733C170.047 73.5734 170.448 73.1061 170.962 72.7713C171.479 72.4332 172.082 72.2642 172.771 72.2642C173.169 72.2642 173.562 72.3305 173.95 72.4631C174.337 72.5956 174.69 72.8111 175.009 73.1094C175.327 73.4044 175.58 73.7955 175.769 74.2827C175.958 74.7699 176.053 75.3698 176.053 76.0824V76.5795H170.166V75.5653H174.859C174.859 75.1345 174.773 74.75 174.601 74.4119C174.432 74.0739 174.19 73.8071 173.875 73.6115C173.564 73.416 173.196 73.3182 172.771 73.3182C172.304 73.3182 171.9 73.4342 171.558 73.6662C171.22 73.8949 170.96 74.1932 170.778 74.5611C170.596 74.929 170.504 75.3234 170.504 75.7443V76.4205C170.504 76.9972 170.604 77.486 170.803 77.8871C171.005 78.2848 171.285 78.5881 171.643 78.7969C172.001 79.0024 172.417 79.1051 172.891 79.1051C173.199 79.1051 173.477 79.062 173.726 78.9759C173.978 78.8864 174.195 78.7538 174.377 78.5781C174.56 78.3991 174.7 78.1771 174.8 77.9119L175.933 78.2301C175.814 78.6146 175.614 78.9527 175.332 79.2443C175.05 79.5327 174.702 79.758 174.288 79.9205C173.873 80.0795 173.408 80.1591 172.891 80.1591ZM172.175 71.3295L173.388 69.0227H174.76L173.209 71.3295H172.175ZM184.087 74.0739L183.033 74.3722C182.966 74.1965 182.869 74.0258 182.739 73.8601C182.613 73.6911 182.441 73.5518 182.222 73.4425C182.003 73.3331 181.723 73.2784 181.382 73.2784C180.915 73.2784 180.525 73.3861 180.214 73.6016C179.905 73.8137 179.751 74.0838 179.751 74.4119C179.751 74.7036 179.857 74.9339 180.07 75.103C180.282 75.272 180.613 75.4129 181.064 75.5256L182.197 75.804C182.88 75.9697 183.389 76.2232 183.724 76.5646C184.058 76.9027 184.226 77.3385 184.226 77.8722C184.226 78.3097 184.1 78.7008 183.848 79.0455C183.599 79.3902 183.251 79.6619 182.804 79.8608C182.356 80.0597 181.836 80.1591 181.243 80.1591C180.464 80.1591 179.819 79.9901 179.309 79.652C178.798 79.3139 178.475 78.8201 178.339 78.1705L179.453 77.892C179.559 78.303 179.76 78.6113 180.055 78.8168C180.353 79.0223 180.742 79.125 181.223 79.125C181.77 79.125 182.204 79.009 182.525 78.777C182.85 78.5417 183.013 78.2599 183.013 77.9318C183.013 77.6667 182.92 77.4446 182.734 77.2656C182.549 77.0833 182.264 76.9474 181.879 76.858L180.606 76.5597C179.907 76.3939 179.393 76.1371 179.065 75.7891C178.74 75.4377 178.578 74.9986 178.578 74.4716C178.578 74.0407 178.699 73.6596 178.941 73.3281C179.186 72.9967 179.519 72.7365 179.94 72.5476C180.364 72.3587 180.845 72.2642 181.382 72.2642C182.138 72.2642 182.731 72.4299 183.162 72.7614C183.596 73.0928 183.904 73.5303 184.087 74.0739Z" fill="#747474"/>
</g>
<defs>
<filter id="filter0_d_376_2220" x="0" y="0" width="239" height="129" filterUnits="userSpaceOnUse" color-interpolation-filters="sRGB">
<feFlood flood-opacity="0" result="BackgroundImageFix"/>
<feColorMatrix in="SourceAlpha" type="matrix" values="0 0 0 0 0 0 0 0 0 0 0 0 0 0 0 0 0 0 127 0" result="hardAlpha"/>
<feOffset dx="4" dy="4"/>
<feGaussianBlur stdDeviation="15"/>
<feComposite in2="hardAlpha" operator="out"/>
<feColorMatrix type="matrix" values="0 0 0 0 0 0 0 0 0 0 0 0 0 0 0 0 0 0 0.2 0"/>
<feBlend mode="normal" in2="BackgroundImageFix" result="effect1_dropShadow_376_2220"/>
<feBlend mode="normal" in="SourceGraphic" in2="effect1_dropShadow_376_2220" result="shape"/>
</filter>
</defs>
</svg>
