<svg width="50" height="50" viewBox="0 0 50 50" fill="none" xmlns="http://www.w3.org/2000/svg">
<path d="M0 2C0 0.895432 0.89543 0 2 0H30C41.0457 0 50 8.95431 50 20V30C50 41.0457 41.0457 50 30 50H2C0.895432 50 0 49.1046 0 48V2Z" fill="#FB87A7"/>
<path d="M37.5315 11.4706C37.3124 11.2516 37.0346 11.1005 36.7317 11.0356C36.4287 10.9708 36.1135 10.9948 35.8239 11.105L9.03559 21.2445H9.03023C8.72136 21.3633 8.45669 21.5746 8.27237 21.8494C8.08805 22.1243 7.99307 22.4494 8.00039 22.7802C8.00772 23.1111 8.117 23.4316 8.3133 23.698C8.50961 23.9644 8.78337 24.1638 9.0972 24.2688L9.12466 24.2775L18.319 28.2038C18.4984 28.2583 18.6888 28.2647 18.8715 28.2225C19.0541 28.1803 19.2224 28.091 19.3597 27.9634L34.1162 14.2129C34.1602 14.169 34.2124 14.1341 34.2699 14.1103C34.3273 14.0865 34.3889 14.0742 34.4511 14.0742C34.5133 14.0742 34.5748 14.0865 34.6323 14.1103C34.6897 14.1341 34.7419 14.169 34.7859 14.2129C34.8299 14.2569 34.8647 14.3091 34.8885 14.3666C34.9123 14.424 34.9246 14.4856 34.9246 14.5478C34.9246 14.61 34.9123 14.6715 34.8885 14.729C34.8647 14.7864 34.8299 14.8386 34.7859 14.8826L21.0352 29.6329C20.9076 29.7702 20.8182 29.9385 20.7761 30.1211C20.7339 30.3038 20.7403 30.4942 20.7948 30.6736L24.7223 39.8736C24.7263 39.887 24.7303 39.899 24.735 39.9118C24.9493 40.5325 25.4917 40.9705 26.1473 41H26.2143C26.5453 41.0019 26.8691 40.9041 27.1438 40.7195C27.4185 40.5349 27.6313 40.2718 27.7545 39.9647L37.8924 13.183C38.0041 12.8932 38.0295 12.5773 37.9654 12.2734C37.9014 11.9695 37.7507 11.6907 37.5315 11.4706Z" fill="white"/>
</svg>
