<svg width="1554" height="743" viewBox="0 0 1554 743" fill="none" xmlns="http://www.w3.org/2000/svg">
<path d="M335.905 461.444C329.038 466.997 318.301 466.651 311.924 460.671C305.548 454.69 305.946 445.341 312.813 439.789C319.681 434.236 330.417 434.582 336.794 440.562C343.171 446.543 342.772 455.893 335.905 461.444ZM269.144 608.878C263.517 603.601 254.044 603.296 247.984 608.195C241.924 613.095 241.573 621.344 247.2 626.621C252.826 631.898 262.3 632.204 268.36 627.304C274.42 622.404 274.771 614.155 269.144 608.878ZM101.897 353.609C96.2706 348.332 86.797 348.026 80.7371 352.926C74.6772 357.826 74.3262 366.075 79.9529 371.352C85.5797 376.629 95.0532 376.934 101.113 372.035C107.173 367.135 107.524 358.886 101.897 353.609Z" fill="white"/>
<path d="M105.831 467.136C97.8974 473.55 85.4936 473.15 78.1272 466.242C70.7608 459.333 71.2206 448.532 79.154 442.118C87.0874 435.703 99.4911 436.104 106.858 443.012C114.226 449.92 113.765 460.72 105.831 467.136ZM524.033 492.259C524.54 483.343 521.325 474.002 514.981 465.955C511.282 461.259 503.888 460.055 498.484 463.284C493.081 466.514 491.708 472.945 495.417 477.649C498.789 481.926 500.58 486.879 500.334 491.239C500.222 493.192 499.574 496.746 496.48 498.596C493.385 500.446 489.344 499.695 487.211 499.083C482.447 497.718 477.787 494.482 474.413 490.205C460.63 472.729 435.933 466.563 419.353 476.472C402.776 486.381 400.5 508.666 414.282 526.148C414.354 526.239 414.442 526.315 414.517 526.404C421.101 534.972 420.292 544.137 415.378 547.075C412.284 548.924 408.242 548.174 406.109 547.562C401.346 546.196 396.682 542.963 393.312 538.684C379.531 521.207 354.831 515.042 338.251 524.95C321.674 534.86 319.399 557.145 333.18 574.627C333.517 575.053 333.883 575.451 334.277 575.82C338.213 579.511 344.764 580.234 349.677 577.297C355.079 574.068 356.452 567.638 352.744 562.932C345.928 554.288 346.714 544.954 351.68 541.987C356.648 539.017 366.936 541.726 373.747 550.378C375.265 552.304 376.929 554.112 378.714 555.786C384.382 561.101 391.278 565.064 398.684 567.188C409.41 570.265 420.389 569.143 428.808 564.11C445.385 554.201 447.66 531.916 433.879 514.434C433.788 514.319 433.686 514.215 433.59 514.104C427.068 505.558 427.883 496.436 432.781 493.507C437.75 490.538 448.037 493.249 454.848 501.898C456.367 503.825 458.03 505.632 459.815 507.306C465.484 512.622 472.379 516.584 479.785 518.708C490.511 521.785 501.49 520.663 509.909 515.631C518.328 510.598 523.476 502.08 524.033 492.259Z" fill="white"/>
<path d="M255.99 542.367C248.056 548.781 235.652 548.381 228.286 541.473C220.92 534.565 221.379 523.764 229.313 517.349C237.246 510.935 249.65 511.335 257.016 518.243C264.384 525.151 263.924 535.952 255.99 542.367ZM263.642 294.763C263.888 285.51 260.276 275.917 253.47 267.752C253.375 267.638 253.267 267.536 253.168 267.426C247.168 259.968 247.222 251.584 251.362 248.968C257.441 245.126 258.792 237.72 254.381 232.427C249.969 227.143 241.465 225.957 235.386 229.798C218.05 240.754 216.309 263.545 231.424 281.683C231.509 281.784 231.606 281.871 231.694 281.968C234.817 285.835 236.554 290.275 236.449 294.213C236.404 295.888 235.965 298.93 233.532 300.468C231.1 302.005 227.643 301.425 225.8 300.942C221.356 299.778 216.925 296.855 213.645 292.917C206.84 284.748 197.487 278.785 187.308 276.121C175.972 273.153 164.476 274.606 155.77 280.107C138.431 291.063 136.691 313.853 151.805 331.992C152.135 332.386 152.486 332.758 152.857 333.107C157.471 337.433 165.175 338.176 170.8 334.622C176.879 330.781 178.231 323.375 173.82 318.082C167.535 310.54 167.54 301.932 171.743 299.277C174.177 297.739 177.633 298.32 179.477 298.803C183.921 299.966 188.353 302.891 191.631 306.827C192.968 308.433 194.404 309.951 195.925 311.378C202.144 317.21 209.789 321.483 217.968 323.623C229.305 326.592 240.801 325.138 249.507 319.637C258.214 314.135 263.367 305.069 263.642 294.763ZM334.648 716.743C341.939 718.311 349.31 714.434 351.11 708.083C371.027 637.82 430.705 631.092 466.36 627.071C470.696 626.583 474.792 626.12 478.333 625.581C485.732 624.456 490.683 618.321 489.39 611.878C488.097 605.434 481.052 601.124 473.653 602.25C470.702 602.698 467.071 603.107 462.866 603.582C425.932 607.747 349.078 616.413 324.701 702.407C324.159 704.317 324.172 706.314 324.738 708.218C325.305 710.122 326.408 711.873 327.947 713.312C329.747 715.002 332.077 716.195 334.648 716.743Z" fill="white"/>
<path d="M665.401 344.991C670.712 337.935 681.21 335.66 688.85 339.91C696.489 344.16 698.377 353.325 693.066 360.381C687.755 367.437 677.256 369.712 669.617 365.463C661.977 361.213 660.09 352.047 665.401 344.991ZM694.302 185.748C701.044 189.498 710.307 187.491 714.993 181.264C719.68 175.038 718.014 166.951 711.273 163.201C704.532 159.451 695.268 161.458 690.582 167.685C685.896 173.911 687.561 181.998 694.302 185.748ZM918.608 392.68C925.349 396.43 934.613 394.423 939.299 388.197C943.985 381.97 942.32 373.883 935.579 370.133C928.837 366.383 919.574 368.391 914.888 374.617C910.201 380.843 911.867 388.93 918.608 392.68Z" fill="white"/>
<path d="M887.184 283.518C893.319 275.367 905.448 272.739 914.273 277.648C923.098 282.558 925.279 293.146 919.144 301.297C913.008 309.449 900.88 312.077 892.054 307.168C883.227 302.259 881.048 291.671 887.184 283.518ZM475.427 360.854C477.104 369.625 482.494 377.904 490.604 384.167C495.334 387.822 502.799 387.192 507.255 382.745C511.71 378.298 511.478 371.726 506.736 368.065C502.426 364.737 499.484 360.368 498.663 356.08C498.296 354.157 498.06 350.553 500.612 348.006C503.164 345.459 507.266 345.204 509.484 345.279C514.436 345.445 519.744 347.451 524.056 350.778C541.676 364.378 567.131 364.352 580.804 350.709C594.473 337.066 591.261 314.897 573.641 301.291C573.549 301.22 573.445 301.168 573.351 301.1C564.882 294.391 563.436 285.303 567.489 281.259C570.04 278.713 574.143 278.457 576.361 278.532C581.313 278.699 586.623 280.701 590.933 284.031C608.551 297.633 634.009 297.605 647.681 283.962C661.351 270.319 658.138 248.15 640.518 234.544C640.088 234.213 639.637 233.916 639.165 233.654C634.449 231.031 627.919 231.923 623.867 235.966C619.413 240.412 619.645 246.983 624.386 250.645C633.099 257.373 634.607 266.617 630.512 270.704C626.415 274.792 615.777 274.667 607.066 267.931C605.126 266.432 603.072 265.083 600.934 263.893C594.143 260.116 586.491 257.949 578.79 257.69C567.638 257.314 557.261 261.072 550.319 268.001C536.649 281.644 539.862 303.813 557.482 317.42C557.598 317.509 557.722 317.584 557.842 317.669C566.247 324.372 567.675 333.419 563.635 337.451C559.538 341.54 548.901 341.411 540.19 334.678C538.248 333.179 536.196 331.83 534.058 330.641C527.266 326.863 519.614 324.697 511.914 324.437C500.762 324.062 490.385 327.82 483.443 334.749C476.501 341.677 473.579 351.192 475.427 360.854Z" fill="white"/>
<path d="M723.237 247.064C729.372 238.912 741.501 236.284 750.326 241.193C759.152 246.103 761.332 256.691 755.197 264.843C749.062 272.994 736.933 275.622 728.108 270.713C719.282 265.804 717.101 255.216 723.237 247.064ZM776.031 489.095C778.042 498.13 783.878 506.556 792.466 512.821C792.586 512.909 792.715 512.982 792.838 513.064C800.472 518.839 802.458 526.984 799.079 530.529C794.117 535.734 794.607 543.246 800.173 547.307C805.737 551.36 814.275 550.442 819.237 545.238C833.388 530.394 829.535 507.865 810.462 493.947C810.355 493.87 810.24 493.809 810.131 493.736C806.161 490.745 803.397 486.86 802.541 483.015C802.177 481.379 801.863 478.322 803.849 476.238C805.833 474.156 809.328 473.879 811.233 473.899C815.828 473.947 820.836 475.705 824.975 478.726C833.563 484.995 844.085 488.504 854.606 488.613C866.324 488.736 877.121 484.53 884.228 477.077C898.382 462.233 894.527 439.705 875.455 425.786C875.04 425.483 874.609 425.208 874.164 424.96C868.637 421.886 860.983 423.038 856.392 427.854C851.429 433.058 851.919 440.571 857.485 444.632C865.416 450.419 867.503 458.769 864.072 462.368C862.086 464.45 858.592 464.728 856.686 464.708C852.093 464.66 847.083 462.901 842.946 459.881C841.258 458.648 839.496 457.524 837.673 456.511C830.222 452.366 821.768 450.081 813.315 449.994C801.596 449.871 790.799 454.077 783.692 461.53C776.584 468.985 773.791 479.031 776.031 489.095ZM604.533 97.0519C597.079 97.3041 590.873 102.857 590.672 109.455C588.44 182.453 532.19 203.492 498.583 216.063C494.496 217.592 490.635 219.037 487.332 220.42C480.428 223.311 477.118 230.466 479.939 236.401C482.76 242.337 490.642 244.804 497.545 241.913C500.298 240.76 503.721 239.481 507.685 237.997C542.496 224.975 614.936 197.88 617.667 108.538C617.729 106.554 617.231 104.62 616.218 102.911C615.206 101.202 613.71 99.7722 611.867 98.7502C609.71 97.5488 607.16 96.9583 604.533 97.0519Z" fill="white"/>
<path d="M675.185 410.833C679.436 405.185 687.837 403.365 693.952 406.766C700.066 410.167 701.576 417.502 697.326 423.149C693.075 428.797 684.674 430.617 678.56 427.216C672.445 423.815 670.935 416.48 675.185 410.833ZM426.227 296.748C432.162 300.05 440.319 298.282 444.444 292.801C448.57 287.319 447.104 280.199 441.169 276.897C435.233 273.595 427.077 275.363 422.951 280.844C418.826 286.326 420.292 293.447 426.227 296.748ZM847.341 318.147C844.415 318.888 841.001 319.65 837.385 320.457C819.04 324.552 793.915 330.158 773.331 345.489C748.602 363.906 737.038 391.665 738.961 427.997C739.295 434.304 745.371 438.838 752.529 438.131C759.688 437.421 765.221 431.736 764.888 425.43C763.359 396.552 771.332 376.022 789.262 362.668C804.876 351.04 825.549 346.426 842.159 342.718C845.987 341.863 849.603 341.057 852.942 340.212C859.94 338.44 864.359 332.065 862.812 325.973C862.113 323.197 860.233 320.827 857.551 319.339C856.081 318.519 854.415 317.989 852.658 317.784C850.9 317.579 849.09 317.703 847.341 318.147Z" fill="white"/>
<path d="M1174.85 337.652C1182.61 341.879 1186.39 351.934 1183.3 360.111C1180.2 368.288 1171.41 371.49 1163.66 367.264C1155.9 363.037 1152.12 352.981 1155.21 344.804C1158.31 336.627 1167.1 333.426 1174.85 337.652ZM1336.61 343.057C1333.88 350.273 1337.21 359.145 1344.06 362.875C1350.9 366.605 1358.66 363.779 1361.39 356.564C1364.11 349.349 1360.78 340.476 1353.94 336.746C1347.1 333.017 1339.34 335.842 1336.61 343.057ZM1164.54 595.105C1161.82 602.32 1165.15 611.192 1171.99 614.922C1178.84 618.652 1186.59 615.827 1189.32 608.611C1192.05 601.396 1188.72 592.523 1181.87 588.794C1175.03 585.064 1167.27 587.889 1164.54 595.105Z" fill="white"/>
<path d="M1267.97 548.12C1276.92 553.003 1281.29 564.619 1277.72 574.065C1274.15 583.511 1263.99 587.211 1255.03 582.328C1246.07 577.445 1241.71 565.828 1245.28 556.382C1248.85 546.935 1259.01 543.236 1267.97 548.12ZM1131.5 152.013C1123.06 154.949 1115.66 161.487 1110.64 170.423C1107.72 175.635 1109.43 182.928 1114.47 186.69C1119.52 190.45 1125.99 189.263 1128.92 184.039C1131.59 179.29 1135.48 175.743 1139.6 174.306C1141.45 173.663 1144.98 172.905 1147.88 175.059C1150.77 177.212 1151.62 181.234 1151.87 183.439C1152.42 188.363 1151.21 193.906 1148.55 198.657C1137.66 218.069 1141.39 243.25 1156.88 254.79C1172.37 266.327 1193.83 259.92 1204.73 240.507C1204.78 240.406 1204.82 240.296 1204.87 240.192C1210.28 230.836 1219.06 228.083 1223.65 231.504C1226.54 233.657 1227.39 237.679 1227.64 239.884C1228.2 244.808 1226.99 250.353 1224.32 255.102C1213.43 274.512 1217.16 299.695 1232.65 311.235C1248.14 322.772 1269.61 316.365 1280.5 296.952C1280.77 296.478 1280.99 295.988 1281.18 295.483C1283.09 290.436 1281.26 284.105 1276.67 280.686C1271.62 276.926 1265.15 278.113 1262.22 283.337C1256.83 292.937 1247.91 295.774 1243.27 292.318C1238.63 288.86 1237.2 278.317 1242.6 268.718C1243.8 266.58 1244.84 264.352 1245.7 262.063C1248.45 254.795 1249.48 246.908 1248.61 239.252C1247.36 228.164 1242.13 218.445 1234.27 212.586C1218.78 201.049 1197.31 207.456 1186.42 226.868C1186.35 226.997 1186.29 227.13 1186.22 227.261C1180.82 236.553 1172.07 239.283 1167.5 235.874C1162.85 232.416 1161.43 221.872 1166.82 212.274C1168.03 210.135 1169.06 207.908 1169.93 205.619C1172.68 198.35 1173.7 190.465 1172.84 182.808C1171.59 171.72 1166.36 162.001 1158.49 156.142C1150.63 150.283 1140.79 148.778 1131.5 152.013Z" fill="white"/>
<path d="M1280.16 380.612C1289.12 385.495 1293.48 397.112 1289.91 406.558C1286.34 416.004 1276.18 419.703 1267.22 414.821C1258.27 409.938 1253.9 398.321 1257.47 388.875C1261.04 379.428 1271.2 375.729 1280.16 380.612ZM1048.4 468.087C1039.75 471.392 1032.26 478.393 1027.32 487.802C1027.25 487.933 1027.19 488.071 1027.13 488.205C1022.53 496.599 1014.76 499.75 1010.76 496.923C1004.89 492.771 997.527 494.35 994.32 500.448C991.12 506.543 993.272 514.856 999.143 519.007C1015.89 530.847 1037.62 523.754 1048.61 502.858C1048.67 502.741 1048.71 502.617 1048.77 502.499C1051.15 498.136 1054.59 494.835 1058.27 493.429C1059.84 492.831 1062.82 492.075 1065.17 493.736C1067.52 495.396 1068.3 498.813 1068.56 500.701C1069.18 505.254 1068.17 510.464 1065.78 514.999C1060.83 524.408 1058.89 535.329 1060.31 545.754C1061.9 557.365 1067.63 567.435 1076.04 573.381C1092.79 585.222 1114.51 578.128 1125.51 557.233C1125.75 556.778 1125.96 556.312 1126.14 555.835C1128.37 549.919 1126.12 542.515 1120.69 538.674C1114.81 534.521 1107.45 536.1 1104.25 542.198C1099.68 550.887 1091.72 554.168 1087.66 551.298C1085.31 549.636 1084.53 546.22 1084.27 544.331C1083.65 539.78 1084.66 534.567 1087.04 530.034C1088.02 528.185 1088.87 526.278 1089.61 524.328C1092.62 516.352 1093.65 507.655 1092.51 499.279C1090.92 487.667 1085.19 477.598 1076.78 471.652C1068.37 465.705 1058.03 464.405 1048.4 468.087ZM1411.29 241.329C1409.95 233.992 1403.56 228.66 1397 229.422C1324.45 237.844 1295.45 185.256 1278.12 153.839C1276.01 150.018 1274.02 146.408 1272.17 143.342C1268.3 136.933 1260.74 134.699 1255.28 138.355C1249.82 142.011 1248.53 150.167 1252.39 156.576C1253.93 159.132 1255.7 162.332 1257.74 166.037C1275.69 198.582 1313.05 266.304 1401.84 255.996C1403.81 255.769 1405.65 254.994 1407.19 253.744C1408.74 252.493 1409.93 250.805 1410.68 248.833C1411.55 246.524 1411.76 243.915 1411.29 241.329Z" fill="white"/>
<path d="M1111.14 356.92C1117.35 360.303 1120.37 368.35 1117.9 374.894C1115.42 381.438 1108.38 384.001 1102.18 380.618C1095.97 377.235 1092.95 369.188 1095.42 362.644C1097.9 356.1 1104.93 353.537 1111.14 356.92ZM1187.76 94.0026C1185.35 100.356 1188.29 108.167 1194.31 111.451C1200.34 114.734 1207.17 112.247 1209.57 105.894C1211.97 99.5414 1209.04 91.7295 1203.01 88.446C1196.99 85.1625 1190.16 87.6506 1187.76 94.0026ZM1227.91 513.744C1226.75 510.957 1225.5 507.69 1224.17 504.231C1217.45 486.677 1208.24 462.637 1190.08 444.504C1168.26 422.721 1139.11 415.323 1103.44 422.516C1097.25 423.764 1093.65 430.436 1095.39 437.414C1097.14 444.394 1103.57 449.04 1109.76 447.792C1138.11 442.075 1159.58 446.973 1175.4 462.767C1189.18 476.522 1196.76 496.303 1202.84 512.195C1204.25 515.858 1205.57 519.318 1206.89 522.499C1209.66 529.164 1216.61 532.607 1222.42 530.19C1225.06 529.094 1227.13 526.889 1228.21 524.019C1228.81 522.446 1229.09 520.72 1229.04 518.951C1228.99 517.183 1228.6 515.409 1227.91 513.744Z" fill="white"/>
</svg>
