<svg width="366" height="325" viewBox="0 0 366 325" fill="none" xmlns="http://www.w3.org/2000/svg">
<path d="M210.154 154.184C205.858 157.658 199.14 157.441 195.151 153.7C191.161 149.959 191.41 144.109 195.707 140.636C200.003 137.162 206.721 137.378 210.71 141.12C214.7 144.861 214.45 150.711 210.154 154.184ZM168.386 246.424C164.866 243.123 158.939 242.931 155.147 245.997C151.356 249.062 151.137 254.223 154.657 257.525C158.177 260.826 164.104 261.017 167.895 257.952C171.687 254.886 171.906 249.725 168.386 246.424ZM63.7506 86.7185C60.2303 83.4172 54.3033 83.2259 50.5121 86.2913C46.7208 89.3567 46.5011 94.5178 50.0214 97.8192C53.5417 101.121 59.4687 101.312 63.26 98.2464C67.0513 95.181 67.2709 90.0199 63.7506 86.7185Z" fill="#FFB636"/>
<path d="M66.2115 157.745C61.2481 161.758 53.4879 161.508 48.8792 157.186C44.2705 152.864 44.5581 146.106 49.5216 142.093C54.485 138.08 62.2452 138.33 66.8539 142.652C71.4636 146.974 71.1755 153.731 66.2115 157.745ZM327.854 173.463C328.17 167.885 326.159 162.041 322.19 157.006C319.876 154.068 315.25 153.315 311.869 155.336C308.489 157.356 307.63 161.38 309.95 164.323C312.06 166.998 313.181 170.097 313.026 172.825C312.957 174.047 312.551 176.27 310.615 177.428C308.679 178.585 306.151 178.116 304.816 177.733C301.836 176.878 298.92 174.854 296.81 172.178C288.186 161.244 272.735 157.387 262.362 163.586C251.991 169.785 250.567 183.728 259.189 194.665C259.235 194.722 259.289 194.77 259.336 194.826C263.455 200.186 262.95 205.92 259.875 207.758C257.94 208.915 255.411 208.446 254.076 208.063C251.096 207.208 248.178 205.185 246.07 202.508C237.448 191.574 221.995 187.717 211.622 193.916C201.25 200.116 199.827 214.058 208.449 224.995C208.66 225.262 208.889 225.511 209.135 225.742C211.598 228.051 215.697 228.503 218.77 226.666C222.15 224.646 223.009 220.623 220.689 217.679C216.425 212.27 216.916 206.431 220.024 204.574C223.132 202.717 229.568 204.411 233.829 209.824C234.779 211.029 235.82 212.16 236.937 213.208C240.483 216.533 244.797 219.012 249.431 220.341C256.141 222.266 263.01 221.564 268.277 218.416C278.649 212.216 280.072 198.274 271.45 187.336C271.393 187.264 271.329 187.2 271.269 187.13C267.188 181.784 267.698 176.076 270.763 174.244C273.872 172.386 280.308 174.083 284.569 179.494C285.519 180.699 286.56 181.83 287.676 182.877C291.223 186.203 295.537 188.682 300.171 190.011C306.881 191.935 313.75 191.234 319.017 188.085C324.284 184.937 327.505 179.607 327.854 173.463Z" fill="#00B0AE"/>
<path d="M160.156 204.812C155.193 208.825 147.432 208.575 142.824 204.253C138.215 199.931 138.503 193.173 143.466 189.16C148.43 185.147 156.19 185.398 160.799 189.72C165.408 194.041 165.12 200.799 160.156 204.812ZM164.944 49.9024C165.098 44.1136 162.838 38.112 158.58 33.0034C158.52 32.9319 158.453 32.8681 158.391 32.7994C154.637 28.1333 154.671 22.8882 157.261 21.2514C161.064 18.8479 161.909 14.2145 159.15 10.9032C156.389 7.59691 151.069 6.85517 147.266 9.25818C136.42 16.1128 135.33 30.3712 144.787 41.7191C144.84 41.7824 144.901 41.8367 144.956 41.8977C146.91 44.3171 147.996 47.095 147.931 49.5584C147.903 50.6065 147.628 52.5094 146.106 53.472C144.585 54.4337 142.422 54.0702 141.268 53.7683C138.488 53.0399 135.716 51.2114 133.664 48.7478C129.406 43.6369 123.555 39.9064 117.187 38.2396C110.094 36.3823 102.902 37.2917 97.455 40.7331C86.6076 47.5877 85.5188 61.8456 94.9749 73.194C95.1809 73.441 95.4004 73.6735 95.6331 73.8917C98.5192 76.5984 103.339 77.0635 106.858 74.8394C110.662 72.4365 111.507 67.803 108.748 64.4917C104.816 59.7732 104.819 54.388 107.449 52.7263C108.971 51.7647 111.133 52.1277 112.287 52.4301C115.067 53.158 117.84 54.9875 119.891 57.4501C120.728 58.4547 121.626 59.4048 122.578 60.2974C126.469 63.9464 131.252 66.6195 136.368 67.9583C143.461 69.8161 150.653 68.9062 156.1 65.4648C161.548 62.0224 164.771 56.3504 164.944 49.9024ZM209.368 313.908C213.929 314.889 218.54 312.464 219.667 308.49C232.128 264.531 269.464 260.321 291.771 257.806C294.484 257.5 297.047 257.211 299.262 256.874C303.891 256.17 306.989 252.332 306.18 248.301C305.371 244.269 300.963 241.573 296.334 242.277C294.488 242.558 292.216 242.814 289.585 243.11C266.478 245.716 218.395 251.138 203.145 304.939C202.805 306.134 202.813 307.383 203.168 308.574C203.522 309.765 204.212 310.861 205.175 311.762C206.302 312.819 207.759 313.565 209.368 313.908Z" fill="#FF6E83"/>
<path d="M214.234 112.74C210.795 115.52 205.42 115.346 202.227 112.352C199.034 109.358 199.233 104.677 202.672 101.897C206.111 99.1163 211.486 99.2898 214.679 102.284C217.872 105.278 217.673 109.959 214.234 112.74ZM347.957 219.851C344.857 216.944 339.639 216.776 336.301 219.475C332.964 222.174 332.77 226.718 335.869 229.625C338.969 232.532 344.187 232.7 347.525 230.001C350.863 227.302 351.056 222.758 347.957 219.851ZM95.6591 142.792C97.5476 142.788 99.7353 142.845 102.052 142.906C113.808 143.212 129.908 143.632 144.732 137.461C162.541 130.047 173.782 114.96 178.143 92.6197C178.9 88.7417 175.903 85.0655 171.451 84.4059C166.999 83.7473 162.776 86.3557 162.019 90.2328C158.553 107.99 150.59 119.236 137.678 124.612C126.433 129.293 113.186 128.947 102.542 128.67C100.089 128.606 97.772 128.546 95.6171 128.55C91.1006 128.561 87.4491 131.757 87.4608 135.69C87.4628 137.481 88.243 139.205 89.6445 140.516C90.4114 141.237 91.3419 141.812 92.3773 142.204C93.4126 142.596 94.5302 142.796 95.6591 142.792Z" fill="#00B0AE"/>
</svg>
