<svg width="109" height="13" viewBox="0 0 109 13" fill="none" xmlns="http://www.w3.org/2000/svg">
<path d="M54.711 6.5C53.2106 7.75 51.7102 9 48.4594 9C42.2079 9 42.2079 4 35.9563 4C29.4547 4 29.9548 9 23.4532 9C17.2016 9 17.2016 4 10.9501 4C7.69927 4 6.1989 5.25 4.69852 6.5" stroke="#FFB636" stroke-width="8" stroke-linecap="round" stroke-linejoin="round"/>
<path d="M104.724 6.5C103.223 7.75 101.723 9 98.472 9C92.2204 9 92.2204 4 85.9688 4C79.4672 4 79.9673 9 73.4657 9C67.2142 9 67.2142 4 60.9626 4C57.7118 4 56.2114 5.25 54.711 6.5" stroke="#FFB636" stroke-width="8" stroke-linecap="round" stroke-linejoin="round"/>
</svg>
