<svg width="166" height="36" viewBox="0 0 166 36" fill="none" xmlns="http://www.w3.org/2000/svg">
<path d="M9.22425 24.2V34.808C8.87225 34.904 8.31225 35 7.54425 35.096C6.77625 35.192 6.02425 35.24 5.28825 35.24C4.55225 35.24 3.89625 35.176 3.32025 35.048C2.77625 34.952 2.31225 34.76 1.92825 34.472C1.54425 34.184 1.25625 33.784 1.06425 33.272C0.87225 32.76 0.77625 32.088 0.77625 31.256V5.912C1.12825 5.848 1.68825 5.768 2.45625 5.672C3.22425 5.544 3.96025 5.48 4.66425 5.48C5.40025 5.48 6.04025 5.544 6.58425 5.672C7.16025 5.768 7.64025 5.96 8.02425 6.248C8.40825 6.536 8.69625 6.936 8.88825 7.448C9.08025 7.96 9.17625 8.632 9.17625 9.464V17.096L19.1603 5.624C21.3363 5.624 22.8883 6.04 23.8163 6.872C24.7763 7.672 25.2563 8.632 25.2563 9.752C25.2563 10.584 25.0483 11.368 24.6323 12.104C24.2163 12.84 23.5443 13.672 22.6163 14.6L16.6163 20.6C17.4163 21.496 18.2483 22.424 19.1123 23.384C20.0083 24.344 20.8723 25.288 21.7043 26.216C22.5683 27.112 23.3843 27.976 24.1523 28.808C24.9523 29.64 25.6403 30.36 26.2163 30.968C26.2163 31.672 26.0883 32.296 25.8323 32.84C25.5763 33.384 25.2243 33.848 24.7762 34.232C24.3603 34.616 23.8803 34.904 23.3363 35.096C22.7923 35.288 22.2163 35.384 21.6083 35.384C20.2963 35.384 19.2243 35.064 18.3923 34.424C17.5603 33.752 16.7603 32.968 15.9923 32.072L9.22425 24.2ZM29.2571 5.192C29.2571 3.976 29.6571 2.952 30.4571 2.12C31.2891 1.288 32.3771 0.871999 33.7211 0.871999C35.0651 0.871999 36.1371 1.288 36.9371 2.12C37.7691 2.952 38.1851 3.976 38.1851 5.192C38.1851 6.408 37.7691 7.432 36.9371 8.264C36.1371 9.096 35.0651 9.512 33.7211 9.512C32.3771 9.512 31.2891 9.096 30.4571 8.264C29.6571 7.432 29.2571 6.408 29.2571 5.192ZM37.8011 34.952C37.4491 35.016 36.9211 35.096 36.2171 35.192C35.5451 35.32 34.8571 35.384 34.1531 35.384C33.4491 35.384 32.8091 35.336 32.2331 35.24C31.6891 35.144 31.2251 34.952 30.8411 34.664C30.4571 34.376 30.1531 33.992 29.9291 33.512C29.7371 33 29.6411 32.344 29.6411 31.544V12.008C29.9931 11.944 30.5051 11.864 31.1771 11.768C31.8811 11.64 32.5851 11.576 33.2891 11.576C33.9931 11.576 34.6171 11.624 35.1611 11.72C35.7371 11.816 36.2171 12.008 36.6011 12.296C36.9851 12.584 37.2731 12.984 37.4651 13.496C37.6891 13.976 37.8011 14.616 37.8011 15.416V34.952ZM41.988 23.336C41.988 21.224 42.308 19.4 42.948 17.864C43.588 16.296 44.468 15 45.588 13.976C46.74 12.952 48.068 12.2 49.572 11.72C51.108 11.208 52.756 10.952 54.516 10.952C55.156 10.952 55.78 11.016 56.388 11.144C56.996 11.24 57.492 11.368 57.876 11.528V3.752C58.196 3.656 58.708 3.56 59.412 3.464C60.116 3.336 60.836 3.272 61.572 3.272C62.276 3.272 62.9 3.32 63.444 3.416C64.02 3.512 64.5 3.704 64.884 3.992C65.268 4.28 65.556 4.68 65.748 5.192C65.94 5.672 66.036 6.312 66.036 7.112V29.864C66.036 31.368 65.332 32.568 63.924 33.464C62.996 34.072 61.796 34.6 60.324 35.048C58.852 35.528 57.156 35.768 55.236 35.768C53.156 35.768 51.284 35.48 49.62 34.904C47.988 34.328 46.596 33.496 45.444 32.408C44.324 31.32 43.46 30.024 42.852 28.52C42.276 26.984 41.988 25.256 41.988 23.336ZM55.62 17.336C53.892 17.336 52.564 17.832 51.636 18.824C50.708 19.816 50.244 21.32 50.244 23.336C50.244 25.32 50.676 26.824 51.54 27.848C52.404 28.84 53.652 29.336 55.284 29.336C55.86 29.336 56.372 29.256 56.82 29.096C57.3 28.904 57.668 28.696 57.924 28.472V17.912C57.284 17.528 56.516 17.336 55.62 17.336Z" fill="#FB87A7"/>
<path d="M86.577 11.768C84.113 11.768 82.225 12.52 80.913 14.024C79.601 15.528 78.945 17.656 78.945 20.408C78.945 23.192 79.665 25.336 81.105 26.84C82.577 28.344 84.545 29.096 87.009 29.096C88.321 29.096 89.425 28.92 90.321 28.568C91.249 28.216 92.129 27.816 92.961 27.368C93.505 27.816 93.921 28.36 94.209 29C94.529 29.608 94.689 30.328 94.689 31.16C94.689 32.472 93.953 33.592 92.481 34.52C91.041 35.416 88.833 35.864 85.857 35.864C83.713 35.864 81.697 35.56 79.809 34.952C77.921 34.344 76.273 33.416 74.865 32.168C73.457 30.888 72.337 29.288 71.505 27.368C70.705 25.416 70.305 23.096 70.305 20.408C70.305 17.912 70.689 15.72 71.457 13.832C72.257 11.912 73.329 10.296 74.673 8.984C76.049 7.672 77.649 6.68 79.473 6.008C81.297 5.336 83.249 5 85.329 5C88.273 5 90.545 5.48 92.145 6.44C93.777 7.4 94.593 8.632 94.593 10.136C94.593 10.968 94.385 11.688 93.969 12.296C93.553 12.904 93.073 13.384 92.529 13.736C91.697 13.192 90.801 12.728 89.841 12.344C88.913 11.96 87.825 11.768 86.577 11.768ZM108.527 29.816C109.071 29.816 109.663 29.768 110.303 29.672C110.975 29.544 111.471 29.384 111.791 29.192V25.352L108.335 25.64C107.439 25.704 106.703 25.896 106.127 26.216C105.551 26.536 105.263 27.016 105.263 27.656C105.263 28.296 105.503 28.824 105.983 29.24C106.495 29.624 107.343 29.816 108.527 29.816ZM108.143 10.952C109.871 10.952 111.439 11.128 112.847 11.48C114.287 11.832 115.503 12.376 116.495 13.112C117.519 13.816 118.303 14.728 118.847 15.848C119.391 16.936 119.663 18.232 119.663 19.736V30.488C119.663 31.32 119.423 32.008 118.943 32.552C118.495 33.064 117.951 33.512 117.311 33.896C115.231 35.144 112.303 35.768 108.527 35.768C106.831 35.768 105.295 35.608 103.919 35.288C102.575 34.968 101.407 34.488 100.415 33.848C99.4549 33.208 98.7029 32.392 98.1589 31.4C97.6469 30.408 97.3909 29.256 97.3909 27.944C97.3909 25.736 98.0469 24.04 99.3589 22.856C100.671 21.672 102.703 20.936 105.455 20.648L111.743 19.976V19.64C111.743 18.712 111.327 18.056 110.495 17.672C109.695 17.256 108.527 17.048 106.991 17.048C105.775 17.048 104.591 17.176 103.439 17.432C102.287 17.688 101.247 18.008 100.319 18.392C99.9029 18.104 99.5509 17.672 99.2629 17.096C98.9749 16.488 98.8309 15.864 98.8309 15.224C98.8309 14.392 99.0229 13.736 99.4069 13.256C99.8229 12.744 100.447 12.312 101.279 11.96C102.207 11.608 103.295 11.352 104.543 11.192C105.823 11.032 107.023 10.952 108.143 10.952ZM132.812 34.952C132.492 35.048 131.98 35.144 131.276 35.24C130.604 35.336 129.9 35.384 129.164 35.384C128.46 35.384 127.82 35.336 127.244 35.24C126.7 35.144 126.236 34.952 125.852 34.664C125.468 34.376 125.164 33.992 124.94 33.512C124.748 33 124.652 32.344 124.652 31.544V17.144C124.652 16.408 124.78 15.784 125.036 15.272C125.324 14.728 125.724 14.248 126.236 13.832C126.748 13.416 127.372 13.048 128.108 12.728C128.876 12.376 129.692 12.072 130.556 11.816C131.42 11.56 132.316 11.368 133.244 11.24C134.172 11.08 135.1 11 136.028 11C137.564 11 138.78 11.304 139.676 11.912C140.572 12.488 141.02 13.448 141.02 14.792C141.02 15.24 140.956 15.688 140.828 16.136C140.7 16.552 140.54 16.936 140.348 17.288C139.676 17.288 138.988 17.32 138.284 17.384C137.58 17.448 136.892 17.544 136.22 17.672C135.548 17.8 134.908 17.944 134.3 18.104C133.724 18.232 133.228 18.392 132.812 18.584V34.952ZM155.832 35.768C153.944 35.768 152.184 35.512 150.552 35C148.952 34.456 147.544 33.656 146.328 32.6C145.144 31.544 144.2 30.216 143.496 28.616C142.824 27.016 142.488 25.144 142.488 23C142.488 20.888 142.824 19.08 143.496 17.576C144.2 16.04 145.112 14.792 146.232 13.832C147.352 12.84 148.632 12.12 150.072 11.672C151.512 11.192 152.984 10.952 154.488 10.952C156.184 10.952 157.72 11.208 159.096 11.72C160.504 12.232 161.704 12.936 162.696 13.832C163.72 14.728 164.504 15.8 165.048 17.048C165.624 18.296 165.912 19.656 165.912 21.128C165.912 22.216 165.608 23.048 165 23.624C164.392 24.2 163.544 24.568 162.456 24.728L150.6 26.504C150.952 27.56 151.672 28.36 152.76 28.904C153.848 29.416 155.096 29.672 156.504 29.672C157.816 29.672 159.048 29.512 160.2 29.192C161.384 28.84 162.344 28.44 163.08 27.992C163.592 28.312 164.024 28.76 164.376 29.336C164.728 29.912 164.904 30.52 164.904 31.16C164.904 32.6 164.232 33.672 162.888 34.376C161.864 34.92 160.712 35.288 159.432 35.48C158.152 35.672 156.952 35.768 155.832 35.768ZM154.488 16.904C153.72 16.904 153.048 17.032 152.472 17.288C151.928 17.544 151.48 17.88 151.128 18.296C150.776 18.68 150.504 19.128 150.312 19.64C150.152 20.12 150.056 20.616 150.024 21.128L158.232 19.784C158.136 19.144 157.784 18.504 157.176 17.864C156.568 17.224 155.672 16.904 154.488 16.904Z" fill="#00B0AE"/>
</svg>
