<svg width="22" height="22" viewBox="0 0 22 22" fill="none" xmlns="http://www.w3.org/2000/svg">
<path d="M11.9423 1.8335C12.9736 1.83625 13.497 1.84175 13.9489 1.85458L14.1267 1.861C14.3321 1.86833 14.5347 1.8775 14.7794 1.8885C15.7547 1.93433 16.4202 2.08833 17.0042 2.31475C17.6092 2.54758 18.1188 2.86291 18.6285 3.37166C19.0948 3.82975 19.4555 4.3841 19.6854 4.996C19.9118 5.57991 20.0658 6.24541 20.1117 7.22166C20.1227 7.4655 20.1318 7.66808 20.1392 7.87433L20.1447 8.05216C20.1584 8.50316 20.1639 9.02658 20.1657 10.0578L20.1667 10.7417V11.9425C20.1689 12.6111 20.1619 13.2797 20.1456 13.9482L20.1401 14.126C20.1327 14.3322 20.1236 14.5348 20.1126 14.7787C20.0667 15.7549 19.9109 16.4195 19.6854 17.0043C19.4555 17.6162 19.0948 18.1706 18.6285 18.6287C18.1704 19.095 17.6161 19.4557 17.0042 19.6856C16.4202 19.912 15.7547 20.066 14.7794 20.1118L14.1267 20.1393L13.9489 20.1448C13.497 20.1577 12.9736 20.1641 11.9423 20.1659L11.2585 20.1668H10.0586C9.38965 20.1692 8.72073 20.1622 8.052 20.1457L7.87416 20.1402C7.65656 20.132 7.439 20.1225 7.2215 20.1118C6.24616 20.066 5.58066 19.912 4.99583 19.6856C4.38426 19.4555 3.83024 19.0949 3.37241 18.6287C2.90578 18.1707 2.54476 17.6163 2.31458 17.0043C2.08816 16.4204 1.93416 15.7549 1.88833 14.7787L1.86083 14.126L1.85625 13.9482C1.83935 13.2797 1.83171 12.6111 1.83333 11.9425V10.0578C1.83079 9.38921 1.83752 8.72059 1.8535 8.05216L1.85991 7.87433C1.86725 7.66808 1.87641 7.4655 1.88741 7.22166C1.93325 6.24541 2.08725 5.58083 2.31366 4.996C2.54438 4.38384 2.90604 3.82948 3.37333 3.37166C3.83089 2.90558 4.38459 2.5449 4.99583 2.31475C5.58066 2.08833 6.24525 1.93433 7.2215 1.8885C7.46533 1.8775 7.66883 1.86833 7.87416 1.861L8.052 1.8555C8.72042 1.83921 9.38904 1.83218 10.0577 1.83441L11.9423 1.8335ZM11 6.41683C9.78442 6.41683 8.61863 6.89971 7.75909 7.75926C6.89955 8.6188 6.41666 9.78459 6.41666 11.0002C6.41666 12.2157 6.89955 13.3815 7.75909 14.2411C8.61863 15.1006 9.78442 15.5835 11 15.5835C12.2156 15.5835 13.3814 15.1006 14.2409 14.2411C15.1004 13.3815 15.5833 12.2157 15.5833 11.0002C15.5833 9.78459 15.1004 8.6188 14.2409 7.75926C13.3814 6.89971 12.2156 6.41683 11 6.41683ZM11 8.25016C11.3611 8.2501 11.7187 8.32117 12.0524 8.45932C12.3861 8.59746 12.6893 8.79998 12.9447 9.0553C13.2001 9.31061 13.4027 9.61374 13.5409 9.94736C13.6792 10.281 13.7504 10.6386 13.7505 10.9997C13.7505 11.3608 13.6794 11.7185 13.5413 12.0521C13.4032 12.3858 13.2006 12.689 12.9453 12.9444C12.69 13.1998 12.3869 13.4024 12.0533 13.5407C11.7196 13.6789 11.362 13.7501 11.0009 13.7502C10.2716 13.7502 9.5721 13.4604 9.05637 12.9447C8.54065 12.429 8.25091 11.7295 8.25091 11.0002C8.25091 10.2708 8.54065 9.57134 9.05637 9.05562C9.5721 8.53989 10.2716 8.25016 11.0009 8.25016M15.8134 5.04183C15.5095 5.04183 15.2181 5.16255 15.0032 5.37744C14.7883 5.59232 14.6676 5.88377 14.6676 6.18766C14.6676 6.49156 14.7883 6.783 15.0032 6.99789C15.2181 7.21277 15.5095 7.3335 15.8134 7.3335C16.1173 7.3335 16.4088 7.21277 16.6236 6.99789C16.8385 6.783 16.9592 6.49156 16.9592 6.18766C16.9592 5.88377 16.8385 5.59232 16.6236 5.37744C16.4088 5.16255 16.1173 5.04183 15.8134 5.04183Z" fill="#585858"/>
</svg>
